<?xml version="1.0" standalone="no"?>
<!DOCTYPE svg PUBLIC "-//W3C//DTD SVG 1.1//EN" "http://www.w3.org/Graphics/SVG/1.1/DTD/svg11.dtd" >
<svg xmlns="http://www.w3.org/2000/svg" xmlns:xlink="http://www.w3.org/1999/xlink" version="1.1">
<metadata>
Created by FontForge 20201107 at Tue Mar 31 20:31:47 2026
 By www-data
Copyright (c) 2009 by Jonahfonts. All rights reserved.
</metadata>
<defs>
<font id="PonyTalePro" horiz-adv-x="1024" >
  <font-face 
    font-family="PonyTalePro"
    font-weight="400"
    font-style="italic"
    font-stretch="normal"
    units-per-em="2048"
    panose-1="2 0 5 6 0 0 0 2 0 3"
    ascent="1401"
    descent="-647"
    x-height="920"
    cap-height="1487"
    bbox="-414 -725.4 2357 1896"
    underline-thickness="102"
    underline-position="-204"
    slope="-8"
    unicode-range="U+000D-FB04"
  />
<missing-glyph horiz-adv-x="1413" 
d="M328 756h501q0 -106 -39 -194q-40 -91 -110 -159q-67 -65 -161 -107q-90 -40 -191 -40v500zM328 12q152 0 288 59q138 60 237 159q100 100 161 237q59 133 59 289h12v-760h-757v16z" />
    <glyph glyph-name="i_j" unicode="ij" horiz-adv-x="1015" 
d="M387 899q37 -16 49 -41q12 -24 -6 -65q-34 -66 -54 -126q-4 -12 -18 -56t-22 -68q-27 -88 -46 -177q-22 -105 -28 -223q-5 -35 13 -56q19 -23 42 -24q22 0 36 8q15 8 24 16q19 16 20 17q12 8 27 7q23 0 47 -18t23 -46q0 -2 -10 -22t-31 -38t-59 -34q-33 -14 -87 -12
q-81 5 -121 42q-41 38 -56 90q-15 54 -11 108q5 64 10 100q10 68 32 159q21 91 40 157q26 93 41 139q6 20 17.5 56.5t16.5 51.5q16 41 41 57q24 15 70 -2zM565 1153q-5 -29 -19 -55q-14 -25 -35 -46t-43 -32q-24 -12 -46 -12q-29 0 -47 22t-10 68q15 74 59 106q45 33 90 33
q66 0 51 -84zM547 698q29 13 55 27q37 20 62 43q35 32 49 50q16 21 33 40q15 16 31 26t40 5q28 -4 53 -17q26 -13 27 -65q0 -36 -5 -116q-5 -74 -15 -160q-10 -84 -24 -181q-12 -84 -27 -184q-19 -126 -27 -169q-15 -79 -27 -132q-8 -35 -24 -93q-16 -55 -41 -122
q-21 -56 -57 -124q-32 -61 -70 -99q-58 -58 -116 -97q-61 -41 -138 -41q-71 0 -119 23q-47 23 -76 53q-28 30 -41 63q-12 32 -12 50q0 30 18 48q17 17 41 17q33 0 59 -16q28 -17 42 -37t27 -33q18 -18 59 -18q84 0 139 49q54 48 92 120q35 65 57 148q7 26 35 138
q13 51 32 160q15 86 34 216q11 73 27 229q13 120 14 199q-30 -28 -45 -44q-16 -17 -44 -43q-18 -17 -43 -31q-23 -13 -40 -13q-39 0 -54 26q-14 24 -14 52q0 38 33 53zM985 1147q-5 -29 -19 -55q-14 -25 -35 -46t-43 -32q-26 -13 -46 -13q-29 0 -47 23t-11 68q15 72 56 109
q40 36 86 36q32 0 50 -24q17 -22 9 -66z" />
    <glyph glyph-name="f_t" unicode="ft" horiz-adv-x="1110" 
d="M94 700q72 25 152 41q3 13 6.5 30t8.5 40t8 38q15 72 31 133q18 70 39 144q22 77 48 142q21 57 58 102q36 45 85 81q42 31 101 53q54 20 106 20q59 0 99 -20q36 -18 62 -47q24 -26 33 -58q9 -30 9 -51q0 -52 -26 -73q-27 -22 -48 -22q-51 0 -66 20q-16 20 -20 44
q-6 30 -11 44q-7 19 -44 19q-79 0 -128 -38t-80 -115q-33 -81 -59 -195q-13 -56 -69 -272q61 11 79 14t52 10t42 8q64 12 95 17q21 3 82 14q2 10 10.5 38.5t13.5 48.5q13 48 37 114q20 55 50 99q28 42 65 42q84 0 84 -63q0 -21 -8 -48q-9 -30 -21 -57q-20 -44 -29 -67
q-18 -46 -28 -82q9 0 30.5 1.5t34.5 2.5q12 1 33.5 2.5t30.5 1.5q35 2 55 3q16 1 33 1q23 0 39 -22q17 -23 17 -45q0 -20 -25 -28q-22 -7 -67 -10t-100 -6q-51 -3 -117 -14q-29 -91 -40 -127q-26 -89 -41 -148q-21 -82 -32 -153q-12 -77 -12 -139q0 -57 13 -97
q13 -42 50 -42q39 0 64 11q32 14 45 23q12 8 32 24q14 11 29 11q25 0 45 -16q21 -17 21 -43q0 -11 -9 -31q-7 -16 -28 -31q-12 -7 -33 -21q-24 -15 -48 -26t-60 -21q-31 -9 -66 -9q-66 0 -105 30q-37 29 -59 77q-21 47 -27 96q-6 50 -6 92q0 55 11 127q15 95 24 139
q19 86 31 133q24 92 29 111q-16 -3 -47.5 -9.5t-44.5 -8.5q-64 -12 -95 -19q-73 -16 -90 -20q-29 -6 -74 -15q-66 -257 -90 -442q-28 -217 -39 -305q-15 -121 -34 -176q-19 -56 -72 -56q-31 0 -57 17q-27 18 -27 53q0 12 6 30q15 46 31 133q4 22 18 96.5t23 120.5
q9 47 26 136.5t21 112.5q20 106 49 233q-26 -13 -44 -19q-13 -4 -26 -4q-35 0 -66 21q-32 21 -32 49q0 17 12 35q11 16 41 32z" />
    <glyph glyph-name="T_h" unicode="Th" horiz-adv-x="1726" 
d="M125 1053q-22 7 -35 16q-10 7 -10 31q0 33 19 61q19 29 48 51q25 20 62 40q33 18 57 30q68 32 123 53q60 23 131 45v2q12 36 37 51q24 15 53 15q46 0 68 -27l24 6q51 12 106 16q67 5 122 5q34 0 96 -2q45 -1 86 -11q38 -9 63 -29q23 -19 23 -52q0 -18 -9 -53
q-7 -29 -24 -70q-5 -12 -14 -37t-14 -38q-17 -43 -23 -64q-73 -226 -113 -436q-42 -218 -49 -429q22 40 35 61l41 67q24 39 40 64q28 44 32 50q16 26 65 105q39 62 94 125q57 65 112 105q61 44 126 44q49 0 77 -17t41 -43q12 -24 17 -61q4 -31 4 -72q0 -49 -6 -89
q-10 -66 -13 -86q-7 -41 -13 -105q-7 -70 -7 -146q0 -61 8 -119q8 -56 27 -81q8 -10 18 -11q8 -1 22 -10q12 -8 21 -24q9 -17 9 -52q0 -31 -33 -52t-72 -21q-19 0 -42 20q-25 22 -45 55q-21 34 -36 84q-16 53 -16 109q0 107 10 203q11 105 11 205q0 70 -5 103q-4 30 -22 30
q-27 0 -69 -43q-40 -41 -84 -98q-38 -49 -76 -105t-47 -72q-7 -11 -54 -86q-26 -41 -55 -91q-7 -12 -50 -90q-20 -36 -38 -83q-12 -30 -42 -31q-40 -2 -56 -2q-35 0 -54 11t-24 65q7 168 18 324t30 306q20 156 52 300q31 143 86 305q2 8 2 16q0 20 -17 24q-20 5 -34 5
q-74 0 -140 -12q-65 -12 -130 -35q-31 -97 -86 -262q-41 -124 -68 -228q-29 -112 -48 -226q-21 -124 -28 -255q-2 -25 -3 -41q-1 -12 -1 -35q0 -62 8 -107q7 -41 20 -68q5 -10 12 -25.5t7 -16.5q9 -20 9 -32q0 -11 -8 -32t-20 -37q-13 -17 -32 -30q-18 -12 -41 -12
q-34 0 -58 32q-23 30 -38 77q-15 46 -21 98q-6 51 -6 90q0 10 1 14t1 13q7 110 31 247q24 134 52 256q35 149 64 260q27 104 64 261q-94 -38 -136 -69q-41 -30 -67 -54q-27 -26 -40 -36q-17 -14 -54 -14q-5 0 -14.5 1.5t-12.5 1.5q-16 2 -32 6z" />
    <glyph glyph-name="f_b" unicode="fb" horiz-adv-x="1566" 
d="M1069 1368q-23 -38 -58 -124q-38 -93 -65 -189q-32 -112 -50 -206q-22 -113 -30 -161q0 -3 -4.5 -30.5t-8.5 -48.5q-17 -100 -20 -115q-12 -63 -21 -129q-8 -58 -13 -121q19 33 59.5 102.5t60.5 103.5q63 108 140 214q71 98 150 167q77 68 151 68q47 0 86 -28
q36 -26 61 -71t37 -98t12 -104q0 -72 -24 -151q-22 -73 -68 -154t-99 -145t-120 -120q-64 -54 -129 -83q-68 -31 -127 -31q-66 0 -97 34q-32 35 -32 66q0 34 17 45t36 11q16 0 38 -10q19 -9 32 -9q38 0 87 26q51 27 98 67q53 45 97 99q45 55 83 116q35 56 59 123
q23 64 23 118q0 42 -10 74q-10 31 -20 44q-13 16 -23 20q-13 5 -15 5q-24 0 -53 -19q-34 -22 -62 -50q-73 -72 -142 -172q-71 -103 -126 -202q-54 -97 -100 -187q-35 -68 -64 -131q-18 -41 -46 -61q-26 -19 -56 -19q-29 0 -53 21q-23 20 -23 57q0 12 2 20q5 22 13 79
q8 54 15 118q8 70 15 139q3 28 8.5 77.5t7.5 65.5q2 15 16 130q11 91 13 102q11 60 30 171t54 261q11 42 -19 76t-87 34q-71 0 -115 -33q-48 -36 -83 -97q-38 -67 -64 -154q-26 -90 -54 -209q70 12 141 22q33 5 82 15q26 0 47 -24t21 -48q0 -17 -22 -26q-21 -9 -63 -18
q-29 -6 -102 -19q-55 -10 -139 -29q-66 -257 -90 -442q-28 -217 -39 -305q-15 -121 -34 -176q-19 -56 -72 -56q-31 0 -57 17q-27 18 -27 53q0 12 6 30q15 46 31 133q4 22 18 96.5t23 120.5q9 47 26 136.5t21 112.5q20 106 49 233q-26 -13 -44 -19q-13 -4 -26 -4
q-35 0 -66 21q-32 21 -32 49q0 22 18 40q14 14 49 30q34 15 65 23q37 9 73 15q10 54 22 104q17 73 37 137q23 73 57 146q35 75 84 134q47 57 116 96q65 37 155 37q97 0 149 -60q27 87 49 120q22 34 68 34q41 0 67 -26q25 -25 25 -58q0 -19 -6 -37z" />
    <glyph glyph-name="f_f_b" unicode="ffb" horiz-adv-x="2097" 
d="M1599 1368q-23 -40 -57 -124q-38 -93 -65 -189q-35 -123 -51 -206q-10 -51 -29 -161q-1 -8 -6 -34.5t-8 -44.5q-17 -100 -20 -115q-12 -63 -21 -129q-8 -58 -13 -121q19 33 59.5 102.5t60.5 103.5q63 108 140 214q70 95 151 167q77 68 150 68q47 0 86 -28q38 -27 62 -71
q25 -45 37 -98q12 -52 12 -104q0 -68 -25 -151q-23 -77 -67 -154t-100 -145q-55 -67 -119 -120q-64 -54 -129 -83q-68 -31 -127 -31q-67 0 -98 34t-31 66q0 35 16 45q17 11 37 11q16 0 38 -10q20 -9 31 -9q39 0 88 26q51 27 98 67q49 42 96 99q45 55 83 116q35 56 59 123
q23 64 23 118q0 46 -9 74q-9 29 -21 44q-13 17 -22 20q-13 5 -16 5q-24 0 -53 -19q-31 -20 -61 -50q-76 -75 -143 -172q-71 -103 -126 -202q-54 -97 -100 -187q-23 -44 -63 -131q-18 -40 -47 -61q-26 -19 -56 -19q-28 0 -52 21t-24 57q0 12 2 20q8 34 14 79q3 20 14 118
q8 70 15 139q3 26 9 74.5t8 68.5q8 77 15 130q11 91 13 102l12 72q2 12 7.5 43.5t8.5 49.5q9 50 21 105q4 19 11.5 56t11.5 55q11 50 27 97q16 48 16 89q0 17 -5 37q-5 19 -17 34q-11 14 -34 24q-21 9 -56 9q-66 0 -117 -51q-50 -51 -91 -136q-41 -87 -71 -194
q-28 -102 -57 -223q14 1 58.5 6t64.5 7q53 5 61 8q26 0 47 -24t21 -48q0 -14 -4 -24q-3 -8 -28 -12q-26 -5 -84 -9q-110 -8 -167 -14l-8 -35q-66 -257 -90 -442q-28 -217 -39 -305q-15 -121 -34 -176q-19 -56 -73 -56q-31 0 -56 17q-28 19 -28 53q0 12 6 30q15 46 31 133
q16 86 42 217q24 122 48 249q21 112 47 233l15 65q-41 -4 -123 -14q-66 -8 -116 -15q-54 -8 -96 -15q-13 -2 -35 -5.5t-30 -5.5q-60 -242 -88 -426q-26 -175 -42 -293q-15 -116 -36 -169q-21 -54 -69 -54q-31 0 -57 17q-27 18 -27 53q0 12 6 30q15 47 31 127q3 17 17.5 88.5
t23.5 115.5q5 26 21.5 108t25.5 129q17 86 49 227q-26 -13 -44 -19q-13 -4 -26 -4q-35 0 -66 21q-32 21 -32 49q0 22 18 40q16 16 49 31q29 13 65 22q48 12 73 16q6 24 23 113q14 70 36 146q24 80 55 153q34 78 82 138q50 62 116 101t159 39q64 0 127 -24q64 -25 98 -83
q21 45 50 91q26 40 67 75q39 33 91 51q55 19 122 19q51 0 95 -19q43 -18 71 -61q12 25 33 35q20 10 42 10q27 0 46 -11q18 -10 34 -28q16 -17 17 -39q1 -21 -11 -43zM780 764q6 31 25 90q22 68 32 103q5 16 26 99q11 43 11 74q0 58 -43 91q-42 32 -126 32q-55 0 -102 -39
t-84 -109q-36 -68 -70 -168q-33 -99 -60 -214q6 0 15.5 1.5t23 3t24.5 2.5q16 2 48 5.5t46 5.5q92 10 112 12q40 3 122 11z" />
    <glyph glyph-name="f_f_h" unicode="ffh" horiz-adv-x="2109" 
d="M1620 1421q-23 -63 -52 -134q-38 -95 -71 -195q-73 -226 -113 -436q-42 -218 -49 -429q22 40 35 61l41 67q24 39 40 64q28 44 32 50q16 26 65 105q42 66 93 125q55 63 113 105q61 44 126 44q49 0 77 -17t41 -43q12 -24 17 -61q4 -31 4 -72q0 -49 -6 -89q-10 -66 -13 -86
q-7 -41 -13 -105q-7 -70 -7 -146q0 -61 8 -119q8 -56 27 -81q8 -10 18 -11q7 -1 22 -10q12 -8 21 -24t9 -52q0 -31 -33 -52t-72 -21q-19 0 -42 20q-25 22 -45 55q-21 34 -36 84q-16 53 -16 109q0 107 10 203q11 105 11 205q0 70 -5 103q-5 30 -22 30q-27 0 -69 -43
q-40 -41 -84 -98q-38 -49 -76 -105t-47 -72q-7 -11 -54 -86q-26 -41 -55 -91q-7 -12 -50 -90q-20 -36 -38 -83q-12 -30 -42 -31q-40 -2 -56 -2q-35 0 -54 11t-24 65q7 131 23 293q15 150 39 304q20 130 55 303q32 158 67 294q16 57 -8 101t-102 44q-66 0 -117 -51
q-50 -51 -91 -136q-41 -87 -71 -194q-28 -102 -57 -223q14 1 58.5 6t64.5 7q53 5 61 8q26 0 47 -24t21 -48q0 -14 -4 -24q-3 -8 -28 -12q-26 -5 -84 -9q-110 -8 -167 -14l-8 -35q-66 -257 -90 -442q-28 -217 -39 -305q-15 -121 -34 -176q-19 -56 -73 -56q-31 0 -56 17
q-28 19 -28 53q0 12 6 30q15 46 31 133q16 86 42 217q24 122 48 249q21 112 47 233l15 65q-41 -4 -123 -14q-66 -8 -116 -15q-54 -8 -96 -15q-13 -2 -35 -5.5t-30 -5.5q-60 -242 -88 -426q-26 -175 -42 -293q-15 -116 -36 -169q-21 -54 -69 -54q-31 0 -57 17q-27 18 -27 53
q0 12 6 30q15 47 31 127q3 17 17.5 88.5t23.5 115.5q5 26 21.5 108t25.5 129q17 86 49 227q-26 -13 -44 -19q-13 -4 -26 -4q-35 0 -66 21q-32 21 -32 49q0 22 18 40q16 16 49 31q29 13 65 22q48 12 73 16q6 24 23 113q14 70 36 146q24 80 55 153q34 78 82 138q50 62 116 101
t159 39q64 0 127 -24q64 -25 98 -83q21 45 50 91q26 40 67 75q39 33 91 51q55 19 122 19q109 0 164 -76l12 37q10 29 33 42q22 13 47 13q46 0 76 -36q31 -37 16 -83zM780 764q6 31 25 90q22 68 32 103q5 16 26 99q12 46 12 74q0 58 -44 91q-42 32 -126 32q-55 0 -102 -39
t-84 -109q-36 -68 -70 -168q-33 -99 -60 -214q6 0 15.5 1.5t23 3t24.5 2.5q16 2 48 5.5t46 5.5q92 10 112 12q40 3 122 11z" />
    <glyph glyph-name="f_f_j" unicode="ffj" horiz-adv-x="1552" 
d="M1198 -106q19 81 36 182q18 107 30 218q13 128 20 226q8 120 8 207q-19 -13 -70 -20q-100 -14 -114 -16q-36 -4 -120 -13q-60 -6 -89 -12q-65 -253 -88 -430q-19 -149 -36 -281q-14 -109 -31 -152q-18 -45 -70 -45q-30 0 -57 18t-27 52q0 13 6 31q12 37 30 126
q19 93 39 202q22 121 45 236q23 118 48 226q-49 -6 -129 -17q-21 -3 -60.5 -9t-57.5 -9q-51 -7 -97 -15q-12 -2 -35 -5.5t-31 -5.5q-15 -60 -21 -89l-19 -80q-12 -54 -17 -83q-16 -94 -17 -100q-20 -130 -35 -265q-12 -110 -24 -181q-12 -69 -32 -103q-20 -33 -62 -33
q-36 0 -65 23q-30 24 -13 77q12 38 30 126q14 69 39 201q40 213 44 233q21 113 47 227q-26 -13 -44 -19q-13 -4 -26 -4q-35 0 -66 21q-32 21 -32 49q0 17 12 35q11 16 41 32q72 25 152 41q26 113 49 200q27 103 82 245q44 109 137 182q91 72 211 72q67 0 132 -20
q63 -19 91 -79q18 41 51 74q31 31 76 56q43 24 90 36q50 13 94 13q53 0 105 -22q49 -21 87 -59t59 -89q22 -53 22 -111q0 -28 -6 -58q-5 -27 -19 -54q-11 -22 -32 -38q-18 -14 -44 -14q-53 0 -75 24q-23 25 -23 50q0 13 19 34q18 20 18 58q0 23 -4 44q-4 23 -18 44
q-13 21 -37 34q-23 13 -64 13q-79 0 -122 -27q-43 -26 -72 -93q-32 -71 -54 -171q-20 -88 -65 -262q23 2 69 7t61 7q85 9 156 19q25 5 36 10q6 3 24 13q7 5 18 16v-2q2 3 8.5 11t10.5 14q11 16 41 16q14 0 30 -3q14 -3 31 -11q13 -7 25 -25q10 -16 10 -43q0 -36 -5 -116
q-4 -57 -16 -160q-16 -129 -23 -181q-12 -84 -27 -184q-19 -126 -27 -169q-15 -79 -27 -132q-4 -19 -25 -93q-16 -55 -41 -122q-24 -63 -56 -124q-31 -59 -71 -99q-60 -60 -115 -97q-61 -41 -138 -41q-71 0 -119 23q-47 23 -76 53q-28 30 -41 63q-12 31 -12 50q0 30 18 48
q17 17 41 17q32 0 58 -16q28 -17 42 -37q12 -17 28 -33q18 -18 58 -18q85 0 140 49q54 48 92 120q35 65 57 148q7 26 35 138zM383 715q12 1 62 8q38 5 97 12q21 2 61.5 7t54.5 7q42 5 126 13q14 66 38 165q8 33 27 106.5t23 90.5q11 46 -29 87q-41 42 -136 42
q-59 0 -106 -40q-48 -41 -87 -112q-39 -72 -72 -171q-30 -91 -59 -215z" />
    <glyph glyph-name="f_f_k" unicode="ffk" horiz-adv-x="1886" 
d="M1911 821q-24 -33 -78 -92q-49 -53 -116 -111q-62 -53 -135 -103q-74 -50 -132 -73q10 -28 14 -42q6 -21 21 -48q16 -29 40 -57q27 -32 72 -68q69 -57 129 -89q22 -11 55 -28t43 -22q39 -20 61 -39t22 -53q0 -25 -19 -47q-18 -21 -49 -21q-15 0 -54 17q-37 17 -87 45
q-52 30 -104 69q-54 41 -99 90q-53 56 -75 87q-32 45 -44 64q-16 26 -24 49q-2 6 -7.5 19.5t-7.5 20.5q-11 -108 -18 -206q-3 -36 -8.5 -102.5t-7.5 -96.5q-7 -37 -28 -56q-19 -18 -44 -18q-38 0 -61 26t-23 68q24 109 47 254q8 52 22.5 149.5t18.5 121.5q29 192 44 277
q26 150 56 267l45 180q8 29 1 51t-25 40q-17 17 -44 28q-24 10 -52 10q-66 0 -117 -51q-50 -51 -91 -136q-41 -87 -71 -194q-28 -102 -57 -223q14 1 58.5 6t64.5 7q53 5 61 8q26 0 47 -24t21 -48q0 -14 -4 -24q-3 -8 -28 -12q-26 -5 -84 -9q-110 -8 -167 -14l-8 -35
q-66 -257 -90 -442q-28 -217 -39 -305q-15 -121 -34 -176q-19 -56 -73 -56q-31 0 -56 17q-28 19 -28 53q0 12 6 30q15 46 31 134q6 34 21 110t22 115q9 46 26.5 136.5t25.5 131.5q17 90 57 270q-41 -4 -123 -14q-66 -8 -116 -15q-54 -8 -96 -15q-13 -2 -35 -5.5t-30 -5.5
q-60 -242 -88 -426q-26 -175 -42 -293q-15 -116 -36 -169q-21 -54 -69 -54q-31 0 -57 17q-27 18 -27 53q0 12 6 30q15 47 31 127q3 17 17.5 88.5t23.5 115.5q5 26 21.5 108t25.5 129q17 86 49 227q-26 -13 -44 -19q-13 -4 -26 -4q-35 0 -66 21q-32 21 -32 49q0 22 18 40
q16 16 49 31q29 13 65 22q48 12 73 16q6 24 23 113q14 70 36 146q24 80 55 153q34 78 82 138q50 62 116 101t159 39q64 0 127 -24q64 -25 98 -83q21 45 50 91q26 40 67 75q39 33 91 51q55 19 122 19q51 0 94 -19q41 -18 70 -59q24 59 48 76q23 16 42 16q24 0 47 -12
q22 -12 36 -32q12 -17 17 -42q4 -21 -8 -43q-26 -44 -66 -142q-33 -80 -77 -217q-39 -122 -72 -258q-32 -132 -49 -264q92 52 164 108q85 66 127 108q57 57 88 96q37 47 47 69q24 29 61 29q31 0 57 -19q27 -20 27 -51q0 -20 -14 -47zM780 764q6 30 25 91q25 80 32 104
q5 16 26 99q12 46 12 75q0 54 -45 88q-42 32 -125 32q-55 0 -102 -39t-84 -109q-36 -68 -70 -168q-33 -99 -60 -214q6 0 15.5 1.5t23 3t24.5 2.5q16 2 48 5.5t46 5.5q92 10 112 12q40 3 122 11z" />
    <glyph glyph-name="f_f_t" unicode="fft" horiz-adv-x="1632" 
d="M1227 705q-1 0 -47 -6q-10 -1 -37 -5t-44 -6q-43 -6 -101 -12q-31 -4 -103 -10q-40 -168 -49 -208q-27 -124 -43 -222q-26 -167 -34 -249q-9 -90 -17 -149q-7 -52 -25 -71q-17 -19 -59 -19q-35 0 -65 24q-29 24 -13 76q12 38 27 112q13 65 33 170q4 19 17 90t21 112
q20 103 45 211l25 108q-41 -4 -121 -14q-60 -7 -114 -15q-18 -2 -99 -16q-36 -6 -76 -16q-15 -64 -22 -89q-15 -57 -19 -80q-3 -17 -17 -84q-13 -63 -18 -101q-20 -130 -35 -265q-12 -110 -24 -181q-12 -69 -32 -103q-19 -33 -62 -33q-36 0 -65 23q-30 24 -13 77
q12 38 30 126q16 77 39 202q21 112 45 234q25 125 48 227q-26 -13 -44 -19q-13 -4 -26 -4q-35 0 -66 21q-32 21 -32 49q0 17 12 35q11 16 41 32q72 25 152 41q24 105 48 199q25 100 81 244q45 110 147 184t260 72q64 -1 103 -33q35 -28 55 -61q50 94 143 158q91 63 191 63
q58 0 98 -20q36 -18 62 -47q24 -26 33 -58q9 -30 9 -51q0 -52 -25 -73q-27 -22 -48 -22q-52 0 -67 20q-14 18 -19 44q-5 25 -12 44t-44 19q-73 0 -118 -35q-47 -36 -83 -110q-36 -73 -66 -185q-23 -85 -62 -266q75 12 102 15q87 9 104 11q12 1 40.5 4t42.5 4q29 2 47 5
q2 6 19 68q2 7 6.5 25t7.5 27q9 32 19 56l32 80q22 49 43 67q22 19 49 19q90 0 84 -73q0 -14 -3 -31q-3 -16 -14 -35q-20 -35 -37 -77q-13 -31 -32 -101q9 0 30.5 1.5t33.5 2.5q13 1 34.5 2.5t30.5 1.5q30 2 54 3q16 1 34 1q23 0 39 -22t16 -45q-1 -20 -27 -28
q-22 -7 -65 -10q-42 -3 -97 -6q-53 -3 -120 -14q-3 -11 -13 -40.5t-15 -47.5q-17 -55 -30 -103q-5 -17 -27 -111q-17 -70 -22 -107q-3 -18 -9 -58t-7 -63q-2 -33 0 -65q1 -30 8 -56q6 -24 19 -40q12 -15 34 -15q39 0 64 11q32 14 45 23q18 12 33 24q14 11 28 11q27 0 47 -17
q20 -18 19 -44q0 -33 -37 -60q-12 -7 -33 -21q-24 -15 -48 -26q-26 -12 -59 -21q-32 -9 -67 -9q-80 0 -121 44q-40 44 -57 102q-15 55 -17 117q-1 46 1 85q2 59 13 119q23 118 24 125q10 46 29 116q21 77 26 97zM383 717q26 6 71 12q39 5 97 12q2 0 45.5 5.5t67.5 7.5
l118 12q20 92 47 200q12 48 48 177q10 32 -20 70q-31 39 -93 40q-90 2 -149 -38q-61 -41 -103 -111t-73 -171q-26 -85 -56 -216z" />
    <glyph glyph-name="f_h" unicode="fh" horiz-adv-x="1579" 
d="M94 702q73 25 152 43q1 3 9.5 42t14.5 62q20 78 31 117q14 49 33 110q19 59 28 85t53 133q27 67 69 116q43 51 104 82q62 32 153 32q109 0 164 -76l12 37q11 29 33 42t47 13q46 0 76 -36q32 -38 17 -83q-14 -38 -53 -134q-34 -82 -70 -195q-73 -226 -113 -436
q-42 -218 -49 -429q22 40 35 61l41 67q24 39 40 64q20 31 31 50q7 12 17 28t24.5 38.5t24.5 38.5q42 66 93 125q55 63 113 105q61 44 126 44q48 0 76 -17t41 -43q14 -27 18 -61q4 -31 4 -72q0 -39 -6 -88q-2 -20 -13 -86q-6 -33 -12 -96q-7 -70 -8 -133q-2 -76 5 -132
q7 -62 30 -91q8 -10 17 -11t23 -10q10 -7 20 -24q9 -17 9 -52q0 -32 -32 -52q-33 -21 -72 -21q-17 0 -45 19q-29 20 -57 75q-23 44 -30 88q-7 42 -7 86q0 116 12 233t6 238q-5 48 -10 59q-7 14 -25 9q-26 -7 -68 -52q-39 -42 -80 -95q-42 -54 -73 -101l-45 -68
q-19 -31 -55.5 -92t-51.5 -86q-58 -96 -90 -172q-8 -21 -25 -27q-18 -6 -38 -6h-44q-19 0 -34 6q-13 5 -23 22q-11 18 -12 48q7 131 23 293q15 153 36 305q21 153 51 303q29 143 71 289q4 15 6 39q2 26 -7 49q-10 25 -33 43q-24 18 -73 18q-66 0 -117 -52q-50 -51 -91 -138
q-37 -79 -71 -196t-59 -224q51 8 114 14q43 4 75 13q26 0 47 -24q20 -23 20 -48q0 -13 -9 -25t-32 -12q-30 0 -82 -15q-14 -4 -172 -48l-42 -189q-22 -100 -38 -202q-20 -130 -35 -265q-12 -110 -24 -181q-12 -69 -32 -103q-19 -33 -62 -33q-36 0 -65 23q-30 24 -13 77
q15 46 31 133q4 22 18 96.5t23 120.5q9 47 26 136.5t21 112.5q20 106 49 233v2q-26 -13 -44 -19q-13 -4 -26 -4q-35 0 -66 21q-32 21 -32 49q0 17 12 35q11 16 41 32z" />
    <glyph glyph-name="f_j" unicode="fj" horiz-adv-x="999" 
d="M739 850q15 20 19 28q10 17 41 17q30 0 60 -17q31 -18 36 -71q4 -41 -1 -120q-5 -74 -15 -160q-10 -84 -24 -181q-11 -76 -29 -183q-16 -93 -30 -167q-5 -26 -26 -131q-22 -100 -55 -198t-89 -185q-54 -84 -129 -138q-76 -55 -173 -55q-71 0 -119 23q-47 23 -76 53
q-28 30 -41 63q-12 32 -12 50q0 30 18 48q17 17 41 17q40 0 59 -16q18 -15 34 -36q14 -18 35 -36q19 -16 59 -16q84 0 139 49q54 48 92 120q35 65 57 148q7 26 35 138q13 59 34 181q22 126 35 235q16 129 23 235q8 116 2 182q-18 -12 -70 -21q-63 -11 -114 -17
q-28 -3 -119 -13q-59 -6 -88 -12q-37 -145 -66 -305q-22 -122 -37 -234q-18 -137 -22 -170q-8 -74 -19 -114q-12 -43 -30 -63t-53 -20q-29 0 -56 18q-28 19 -28 52q0 13 6 31q13 39 30 122q21 100 39 191q5 24 13.5 68t16 82t14.5 73q19 97 47 221q-21 -11 -44 -18
q-13 -4 -26 -4q-36 0 -66 20q-32 21 -32 50q0 23 17 37q19 16 45 26q19 7 63 17q46 10 71 14q15 47 25 98q12 59 30 133q22 87 40 149q22 73 53 144q41 90 129 141q90 52 192 52q53 0 105 -22q49 -21 87 -59t59 -89q22 -53 22 -111q0 -28 -6 -58q-5 -27 -19 -54
q-11 -22 -32 -38q-18 -14 -44 -14q-52 0 -75 24q-23 25 -23 50q0 13 19 34q18 20 18 58q0 23 -4 44q-5 25 -17 44q-13 20 -38 34q-23 13 -64 13q-78 0 -122 -27q-43 -27 -72 -94q-32 -74 -54 -172q-20 -88 -65 -262q15 2 84 8q32 3 111 13q53 7 105 20q47 12 64 33z" />
    <glyph glyph-name="f_k" unicode="fk" horiz-adv-x="1355" 
d="M1380 821q-27 -38 -77 -92q-49 -53 -116 -111q-62 -53 -135 -103q-74 -50 -132 -73q10 -28 14 -42q7 -25 20 -48q16 -29 40 -57q25 -29 73 -68q75 -59 143 -99q73 -43 107 -50q24 -12 42 -33q17 -20 17 -49q0 -26 -18 -47t-49 -21q-16 0 -55 17q-38 17 -87 45
q-47 27 -103 69q-54 41 -99 90q-53 56 -75 87q-32 45 -44 64q-18 30 -25 49q-10 28 -14 40q-15 -146 -19 -206q-3 -36 -8.5 -102.5t-7.5 -96.5q-7 -37 -28 -56q-20 -18 -44 -18q-36 0 -60 27t-24 67q26 131 44 255q6 44 19.5 137.5t20.5 141.5q19 130 47 295q28 167 62 304
q4 15 2 39q-1 20 -13 37q-11 17 -34 29q-21 11 -59 11q-71 0 -115 -33q-48 -36 -83 -97q-38 -67 -64 -154q-26 -90 -54 -209q70 12 141 22q33 5 82 15q26 0 47 -24t21 -48q0 -13 -9 -25t-32 -12q-39 0 -112 -16q-44 -10 -173 -39q-27 -112 -44 -191q-21 -99 -38 -206
q-20 -130 -35 -265q-12 -110 -24 -181q-12 -69 -32 -103q-19 -33 -62 -33q-36 0 -65 23q-30 24 -13 77q15 46 31 133q4 22 18 96.5t23 120.5q9 47 26 136.5t21 112.5q20 106 49 233q-26 -13 -44 -19q-13 -4 -26 -4q-35 0 -66 21q-32 21 -32 49q0 17 12 35q11 16 41 32
q72 25 152 41q3 13 9.5 42.5t10.5 45.5q13 54 25 91q20 63 33 100q20 60 45 121q44 109 137 182q92 72 211 72q98 0 151 -62q15 38 18 47q7 19 15 37q11 25 34 38q19 11 40 11q25 0 42 -11t26 -29q10 -20 11 -37q1 -19 -10 -39q-25 -42 -58 -133q-33 -89 -62 -197
q-35 -130 -58 -238q-26 -123 -43 -254q92 52 164 108q85 66 127 108q57 57 88 96q37 47 47 69q24 29 62 29q31 0 57 -19q27 -20 27 -51q0 -18 -15 -47z" />
    <glyph glyph-name="f_f" unicode="ff" horiz-adv-x="1105" 
d="M758 651q-41 -4 -121 -14q-60 -7 -114 -15q-18 -2 -99 -16q-36 -6 -76 -16q-60 -242 -85 -423q-24 -177 -39 -291q-15 -112 -35 -168q-19 -54 -70 -54q-31 0 -57 17q-27 18 -27 53q0 12 6 30q12 38 30 126q16 77 39 202q21 112 45 234q25 125 48 227q-26 -13 -44 -19
q-13 -4 -26 -4q-35 0 -66 21q-32 21 -32 49q0 22 18 40q15 15 48 30t66 23q37 9 73 15q24 105 48 199q25 100 81 244q44 112 143 183q102 73 254 73q68 0 108 -31q39 -30 60 -63q50 94 143 158q91 63 191 63q58 0 98 -20q36 -18 62 -47q24 -26 33 -58q9 -30 9 -51
q0 -52 -25 -73q-27 -22 -48 -22q-52 0 -67 20q-14 18 -19 44q-5 25 -12 44t-44 19q-72 0 -119 -37q-48 -38 -85 -111q-38 -77 -68 -188q-29 -110 -63 -266q19 2 72.5 6.5t77.5 6.5q65 5 73 8q26 0 46 -26q19 -25 19 -48q0 -18 -5 -25q-4 -5 -35 -10q-17 -3 -93 -8
q-79 -6 -180 -16q-13 -74 -24 -120q-3 -12 -10.5 -45.5t-12.5 -51.5q-8 -31 -24 -97q-8 -34 -21 -116q-26 -167 -34 -249q-9 -90 -17 -149q-7 -52 -25 -71q-17 -19 -59 -19q-30 0 -57 18t-27 52l12 66q1 7 34 173q24 121 48 235q34 158 55 251zM383 717q26 6 71 12
q39 5 97 12q2 0 45.5 5.5t67.5 7.5l118 12q14 63 47 206q21 92 50 183q-9 24 -11 30q-6 18 -18 33q-11 13 -34 25q-20 10 -52 10q-92 0 -151 -40q-61 -41 -102 -110q-42 -71 -72 -169q-26 -87 -56 -217z" />
    <glyph glyph-name="fi" unicode="fi" horiz-adv-x="985" 
d="M889 899q51 -22 51 -61q0 -18 -12 -45q-34 -69 -54 -127q-8 -22 -21.5 -64.5t-18.5 -58.5q-32 -103 -50 -183q-24 -105 -24 -227q0 -34 17 -51q19 -19 42 -19q20 0 34 8q13 7 22 16q6 6 20 16q11 8 27 8q24 0 47 -18q22 -18 22 -46q0 -3 -9 -21t-30 -36q-25 -21 -53 -34
q-33 -15 -82 -15q-62 0 -101 20q-42 22 -62 53q-22 34 -29 74q-9 49 -9 80q0 62 12 132q16 94 28 142q23 91 38 140q12 38 37 125q-17 -12 -65 -24q-39 -10 -109 -20q-94 -14 -116 -17q-64 -8 -87 -13q-66 -257 -90 -442q-28 -217 -39 -305q-15 -121 -34 -176
q-19 -56 -72 -56q-31 0 -57 17q-27 18 -27 53q0 12 6 30q15 46 31 133q4 22 18 96.5t23 120.5q9 47 26 136.5t21 112.5q20 106 49 233q-26 -13 -44 -19q-13 -4 -26 -4q-35 0 -66 21q-32 21 -32 49q0 22 18 40q14 14 49 30q34 15 65 23q37 9 73 15q0 2 23 125q12 66 35 156
q20 77 53 163q31 80 81 145t118 105t163 40q52 0 104 -22q49 -21 87 -59q40 -40 60 -89q21 -51 21 -111q0 -28 -6 -58t-18 -54q-11 -22 -32 -38q-18 -14 -44 -14q-53 0 -76 24q-22 23 -22 50q0 14 18 34t18 58q0 23 -4 44q-5 25 -17 44q-13 20 -38 34q-23 13 -63 13
q-77 0 -122 -31q-44 -30 -74 -98q-29 -65 -55 -177q-16 -67 -67 -265q3 0 87 11q88 11 124 17q66 11 115 24q51 14 59 32q24 63 72 63q19 0 43 -8z" />
    <glyph glyph-name="fl" unicode="fl" horiz-adv-x="1048" 
d="M1069 1532q41 0 61 -13q21 -13 24 -36q3 -22 -6 -52q-8 -27 -26 -63q-54 -103 -105 -239q-47 -125 -82 -247q-40 -139 -64 -246q-27 -122 -48 -228q-2 -14 -6 -38q-4 -21 -9 -58q-6 -41 -8 -68q-3 -38 -3 -74q0 -65 13 -110q13 -46 54 -46q27 0 41 9q13 8 20 18
q10 14 14 18q9 9 26 9q23 0 45 -17q20 -16 20 -41q0 -33 -16 -56q-16 -24 -42 -39q-29 -17 -55 -24q-30 -8 -53 -8q-60 0 -102 25t-67 65t-36 98q-10 54 -10 122q0 81 16 182q16 100 34 181q21 96 40 158q17 58 31 111q6 26 26 99q5 17 14 52.5t14 52.5q16 60 25 87
q10 32 13 43q4 12 -2 29q-6 16 -21 33q-12 13 -38 27q-23 12 -51 12q-90 0 -148 -35q-56 -34 -96 -100t-65 -156q-22 -79 -52 -209q70 12 141 22q33 5 82 15q28 0 50 -30q22 -29 22 -54q0 -22 -22 -29q-25 -8 -65 -14q-69 -10 -103 -14q-74 -9 -140 -23q-66 -257 -90 -442
q-28 -217 -39 -305q-15 -121 -34 -176q-19 -56 -72 -56q-31 0 -57 17q-27 18 -27 53q0 12 6 30q15 46 31 133q4 22 18 96.5t23 120.5q9 47 26 136.5t21 112.5q20 106 49 233q-26 -13 -44 -19q-13 -4 -26 -4q-35 0 -66 21q-32 21 -32 49q0 22 18 40q14 14 49 30q34 15 65 23
q37 9 73 15q3 13 9.5 42.5t10.5 45.5q12 49 24 91q15 51 33 100q31 84 46 121q44 110 137 182q95 74 246 74q77 0 121 -28t61 -60q20 52 32 79q19 42 35 72q17 32 36 52q18 20 32 20z" />
    <glyph glyph-name="f_f_i" unicode="ffi" horiz-adv-x="1519" 
d="M1378 899q54 -23 54 -63q0 -15 -11 -43q-35 -66 -54 -126q-4 -12 -18 -56t-22 -68q-28 -91 -49 -183q-25 -109 -25 -227q0 -27 17 -49q16 -21 39 -21q22 0 36 8q13 7 22 16q6 6 18 16q10 8 26 8q22 0 48 -17t26 -45q-10 -32 -33 -55q-21 -21 -54 -37t-87 -16
q-63 0 -102 20q-41 21 -61 53q-23 36 -30 74q-8 43 -8 80q0 65 10 129q11 69 27 137q17 69 36 135t36 123q-20 -1 -79 -5t-86 -7q-13 -1 -42 -3.5t-43 -4.5q-40 -4 -74 -6q-7 -29 -22.5 -94.5t-23.5 -100.5q-23 -95 -46 -235q-26 -167 -34 -249q-9 -90 -17 -149
q-7 -52 -25 -71q-17 -19 -59 -19q-30 0 -57 18t-27 52l12 66q1 7 34 173q24 121 48 235q34 158 55 251l25 108q-41 -4 -121 -14q-60 -7 -114 -15q-18 -2 -99 -16q-36 -6 -76 -16q-60 -242 -85 -423q-24 -177 -39 -291q-15 -112 -35 -168q-19 -54 -70 -54q-31 0 -57 17
q-27 18 -27 53q0 12 6 30q12 38 30 126q16 77 39 202q21 112 45 234q25 125 48 227q-26 -13 -44 -19q-13 -4 -26 -4q-35 0 -66 21q-32 21 -32 49q0 22 18 40q15 15 48 30t66 23q37 9 73 15q24 105 48 199q25 100 81 244q44 112 143 183q102 73 254 73q71 0 115 -34
q44 -33 65 -67q28 44 69 79t84 57q40 21 87 32q46 11 78 11q68 0 121 -33q52 -33 85 -79q33 -47 48 -96q14 -48 8 -85q-8 -45 -10 -52q-5 -24 -19 -48q-11 -19 -32 -35q-19 -15 -46 -15q-33 0 -63 16q-29 15 -29 50q0 12 6 21q10 15 13 21q8 16 12 27q6 17 6 47q0 33 -11 54
q-12 23 -29 37q-14 12 -36 21q-17 7 -33 7q-84 2 -132 -26t-84 -96q-31 -60 -60 -173q-20 -77 -59 -260q31 1 74 6q56 6 84 8q53 4 82 7q62 7 69 8q20 5 24 7q8 4 9 7q23 57 27 64q12 22 46 22q19 0 43 -8zM383 717q26 6 71 12q39 5 97 12q2 0 45.5 5.5t67.5 7.5l118 12
q4 20 21 94t25 112q18 85 51 183q4 10 -1 30q-4 16 -21 33q-14 14 -39 25q-23 10 -54 10q-92 0 -151 -40q-61 -41 -102 -110q-42 -71 -72 -169q-26 -87 -56 -217z" />
    <glyph glyph-name="f_f_l" unicode="ffl" horiz-adv-x="1572" 
d="M1653 1376q-2 -20 -6 -43q-5 -25 -15 -47q-48 -109 -86 -213q-48 -132 -76 -224q-34 -114 -63 -225q-26 -102 -49 -216q-2 -14 -6 -38q-9 -51 -10 -58q-6 -41 -8 -68q-3 -38 -3 -74q0 -62 14 -110q13 -46 54 -46q27 0 41 9q11 7 19 18q7 11 15 18q9 9 25 9q23 0 45 -17
q21 -16 21 -41q0 -36 -23 -62q-21 -24 -53 -40q-29 -15 -64 -21q-33 -6 -55 -6q-53 0 -88 23q-36 24 -56 62q-22 43 -31 93q-9 52 -9 115q0 94 14 186q16 107 34 189q22 101 40 163q15 53 31 113q25 99 56 182q28 75 62 183q2 8 2 20q0 24 -15 47q-16 23 -42 41
q-28 19 -59 30q-30 11 -66 11q-71 0 -118 -30q-45 -29 -81 -98q-34 -65 -63 -173q-25 -95 -61 -260q19 2 72.5 6.5t77.5 6.5q65 5 73 8q26 0 46 -26q19 -25 19 -48q0 -18 -5 -25q-4 -5 -35 -10q-17 -3 -93 -8q-79 -6 -180 -16q-13 -74 -24 -120q-3 -12 -10.5 -45.5
t-12.5 -51.5q-8 -31 -24 -97q-8 -34 -21 -116q-26 -167 -34 -249q-9 -90 -17 -149q-7 -52 -25 -71q-17 -19 -59 -19q-30 0 -57 18t-27 52l12 66q1 7 34 173q24 121 48 235q34 158 55 251l25 108q-41 -4 -121 -14q-60 -7 -114 -15q-18 -2 -99 -16q-36 -6 -76 -16
q-60 -242 -85 -423q-24 -177 -39 -291q-15 -112 -35 -168q-19 -54 -70 -54q-31 0 -57 17q-27 18 -27 53q0 12 6 30q12 38 30 126q16 77 39 202q21 112 45 234q25 125 48 227q-26 -13 -44 -19q-13 -4 -26 -4q-35 0 -66 21q-32 21 -32 49q0 22 18 40q15 15 48 30t66 23
q37 9 73 15q24 105 48 199q25 100 81 244q44 112 143 183q102 73 254 73q68 0 108 -31q39 -30 60 -63q50 93 137 137q85 43 184 43q43 0 83 -15q48 -18 71 -34q33 -23 49 -46q20 -28 21 -47q11 46 35 78q26 35 53 35q36 0 60 -14q26 -15 26 -64zM383 717q26 6 71 12
q39 5 97 12q2 0 45.5 5.5t67.5 7.5l118 12q14 63 47 206q21 92 50 183q-9 24 -11 30q-6 18 -18 33q-11 13 -34 25q-20 10 -52 10q-92 0 -151 -40q-61 -41 -102 -110q-42 -71 -72 -169q-26 -87 -56 -217z" />
    <glyph glyph-name=".notdef" horiz-adv-x="1413" 
d="M328 756h501q0 -106 -39 -194q-40 -91 -110 -159q-67 -65 -161 -107q-90 -40 -191 -40v500zM328 12q152 0 288 59q138 60 237 159q100 100 161 237q59 133 59 289h12v-760h-757v16z" />
    <glyph glyph-name=".null" horiz-adv-x="0" 
 />
    <glyph glyph-name="nonmarkingreturn" unicode="&#xd;" horiz-adv-x="450" 
 />
    <glyph glyph-name="NULL" horiz-adv-x="0" 
 />
    <glyph glyph-name="NULL" horiz-adv-x="0" 
 />
    <glyph glyph-name="space" unicode=" " horiz-adv-x="450" 
 />
    <glyph glyph-name="exclam" unicode="!" horiz-adv-x="649" 
d="M610 1286q-10 -19 -31 -80q-22 -64 -38 -121q-19 -75 -29 -130q-10 -56 -16 -99q-4 -31 -20 -129q-12 -76 -17 -113q-12 -89 -14 -115q-6 -78 -7 -137q-4 -27 -28 -39t-60 -12q-35 0 -41 8t-8 37q15 105 27 213q2 17 10 93.5t13 115.5q4 36 11.5 99t10.5 90
q12 104 20 149q12 79 22 134q13 68 19 91q8 17 24 25t34 8q45 0 81 -26q37 -27 37 -52v-10zM428 53q0 -22 -7 -47q-8 -28 -22 -51q-18 -28 -34 -41q-20 -16 -48 -16q-35 0 -53 28q-18 29 -18 70q0 65 37 108t77 43q33 0 50 -26q18 -27 18 -68z" />
    <glyph glyph-name="quotedbl" unicode="&#x22;" horiz-adv-x="661" 
d="M373 1393q-16 -44 -42 -109l-46 -115q-2 -5 -18 -44t-23 -57l-27 -67q-11 -20 -45 -20q-25 0 -46 12q-22 13 -22 29q0 6 22 50q21 42 42 114q16 52 27 110q8 46 14 109q6 26 35 41q27 14 59 14q29 0 50 -12q22 -13 22 -41q0 -5 -1 -7t-1 -7zM659 1393q-16 -44 -42 -109
l-46 -115q-2 -5 -18 -44t-23 -57l-26 -67q-11 -20 -45 -20q-25 0 -46 12q-22 13 -22 29q0 6 22 50q21 42 42 114q14 44 26 110q10 56 15 109q6 26 34 41q27 14 60 14q29 0 50 -12q22 -13 22 -41q0 -3 -2 -7q-1 -2 -1 -7z" />
    <glyph glyph-name="numbersign" unicode="#" horiz-adv-x="1353" 
d="M174 995q67 0 123 1q78 1 176 3q7 24 13 40q2 5 7.5 18.5t8.5 21.5q10 29 34.5 98.5t37.5 103.5q36 98 47 138q15 35 39 49q26 15 55 15q42 0 59 -29q16 -28 0 -67q-14 -30 -69 -159q-66 -153 -93 -222l125 6q11 1 39.5 2.5t44.5 2.5q83 5 113 7q5 14 19 56t22 65
q4 12 18 51.5t21 59.5q6 19 17.5 51t16.5 45q22 64 23 67q15 34 40 49t54 15q30 0 55 -22q23 -20 5 -74q-14 -29 -29 -62q-25 -58 -36 -83q-30 -72 -41 -99q-7 -17 -21 -53l-21 -54q17 1 130 13q71 7 89 10q29 0 44 -18q15 -19 14 -46q-4 -33 -22 -62q-18 -30 -54 -34h-150
q-38 0 -106 -2q-26 -72 -41 -116q-22 -66 -29 -91l-28 -102q42 3 115 7t112 7q45 -8 41 -57q-5 -36 -25 -69q-21 -34 -53 -34q-24 4 -88 6q-42 1 -135 1q-13 -53 -25 -120q-8 -45 -14 -108q-4 -50 1 -89q4 -29 13 -55q5 -14 16 -36q7 -13 5 -29q0 -11 -7 -25q-8 -17 -19 -30
q-13 -16 -27 -25q-16 -10 -35 -10q-26 0 -46 22q-21 22 -32 58q-11 35 -16 85q-5 48 0 101q5 65 19 128q13 55 32 133q-4 0 -149 -8q-49 -3 -173 -13q-7 -31 -17 -97q-3 -18 -11 -87q-4 -55 1 -98q5 -38 12 -62q12 -37 13 -41q6 -15 4 -31q0 -11 -7 -25q-10 -20 -18 -30
q-11 -14 -27 -25q-14 -10 -36 -10q-49 0 -76 70q-26 66 -18 190q5 62 17 115q16 70 28 119l-254 -27q-22 4 -34 24q-11 17 -9 48q4 31 20 58q15 25 46 30q60 -12 129 -7q75 5 139 9l45 156q7 29 18 69q11 44 27 88q-23 -2 -160 -16q-74 -8 -108 -12q-29 0 -45 20
q-17 22 -13 51q1 29 21 58q17 25 53 30zM465 557q111 6 166 10l160 13l40 127q4 20 24 81q2 6 14.5 44.5t19.5 60.5l-164 -6q-4 0 -71 -5q-64 -5 -89 -7q-43 -110 -63 -185z" />
    <glyph glyph-name="dollar" unicode="$" horiz-adv-x="1071" 
d="M911 1210q-14 8 -56 23q-45 16 -95 16q-14 0 -21 -1t-20 -1q-36 -115 -62 -224q-32 -133 -47 -214q9 -6 47 -29.5t61 -36.5q57 -34 109 -78q51 -44 83 -101q32 -59 28 -130q-4 -48 -23 -88q-18 -40 -44 -70q-28 -33 -51 -52q-9 -7 -22 -18.5t-18 -15.5q-35 -26 -105 -67
q-68 -40 -153 -64q-3 -37 -5 -102q-1 -29 -1 -70q0 -45 -27 -69q-28 -25 -61 -25q-16 0 -34 6q-14 5 -30 19q-14 13 -20 30q-6 19 -2 41q7 33 11 67q6 49 7 83q-77 1 -140 24q-57 20 -105 55q-43 32 -66 69q-22 36 -20 69q2 35 21 50q21 16 42 16q23 0 61 -10q34 -9 44 -23
q1 -11 15 -27q14 -18 36 -32q24 -16 56 -27q39 -14 77 -15q8 73 18 138q11 69 21 135l11 71.5t8 52.5q2 15 8 50t8 51l-72 37q-2 1 -27 14t-40 21q-38 21 -72 51q-36 31 -58 74t-18 102q1 44 20 83q18 37 41 68t46 51q7 6 20 18t18 16q35 33 114 77q74 42 165 70
q11 43 32 116q14 51 28 77q14 27 34 42q17 13 49 13q35 0 58 -23q22 -22 20 -61q0 -3 -2 -9q0 -1 -2 -7.5t-4 -11.5q-2 -6 -12 -38q-5 -17 -23 -63q14 0 22 1t23 1q100 0 165 -35q64 -34 62 -86q-2 -29 -19 -45q-18 -17 -40 -24q-19 -6 -44 -8q-22 -2 -28 3zM797 428
q2 39 -20 70q-21 31 -55 54q-35 25 -73 42q-39 18 -69 33q-10 -83 -24 -195q-14 -114 -24 -223q27 7 75 30q44 21 85 50q43 30 71 64q29 35 34 75zM309 987q0 -17 13 -35q12 -16 31 -31t45 -27t51 -20l34 -14q16 81 30 169q14 86 38 177q-37 -15 -72 -33q-43 -22 -78 -49
q-34 -26 -63 -63q-28 -35 -29 -74z" />
    <glyph glyph-name="percent" unicode="%" horiz-adv-x="1339" 
d="M696 698q-64 -108 -117 -204q-65 -117 -120 -231t-93 -207q-39 -96 -40 -134q-11 -41 -25 -61q-15 -21 -49 -21q-25 0 -47 28q-21 27 -21 87q0 58 37 151q37 92 90 199q47 94 116 209q58 97 114 184q9 15 31.5 52t35.5 58q8 14 87 143l96 159q49 82 93 156q54 91 78 133
q35 62 52 92q16 28 22 37q7 10 31 10q34 0 61 -27t27 -69q0 -34 -16 -62q-49 -96 -102 -177q-61 -94 -107 -160q-10 -15 -114 -161q-54 -76 -120 -184zM629 1130q-18 -50 -51 -109q-34 -60 -77 -109q-42 -48 -99 -86q-55 -37 -117 -44q-54 -6 -92 11q-37 16 -61 46
q-23 29 -34 67q-10 36 -10 77q0 49 12 103q13 57 33 108q23 56 48 103q26 47 59 92q29 37 54 62t53 48q25 20 46 31q20 10 33 10q28 0 40 -23q11 -21 9 -53q10 4 23 6q24 3 28 3q42 0 71 -19t43 -45q16 -29 20 -56q6 -40 6 -53q0 -54 -14 -99q-18 -59 -23 -71zM223 1028
q0 -32 14 -54q15 -23 34 -31q22 -10 50 -5t54 25q23 16 41 37q14 16 38 52q3 4 31 55q11 19 25 52q9 19 14 42q6 25 6 54q0 36 -9 51t-19 15q-13 0 -26 -8t-21 -8q-17 0 -36 18q-20 18 -9 37q-37 -20 -70 -60q-31 -36 -59 -85q-28 -48 -42 -95q-16 -53 -16 -92zM1225 309
q-18 -50 -51 -109q-34 -60 -77 -109q-42 -48 -99 -86q-55 -37 -117 -44q-56 -6 -93 10q-36 16 -60 46q-23 29 -34 68q-10 36 -10 77q0 49 12 103q13 57 33 108q22 56 48 103q23 43 59 91q32 41 54 63q25 25 53 48q25 20 46 31q20 10 33 10q28 0 40 -24q11 -21 9 -52
q10 4 23 6q16 2 28 2q44 0 71 -18q29 -19 43 -45q16 -28 20 -57q6 -40 6 -52q0 -54 -14 -99q-18 -59 -23 -71zM819 207q0 -32 14 -54q15 -23 34 -31q22 -9 49 -5q31 5 55 24q21 15 41 38q17 19 38 51q5 8 10.5 17.5t11.5 21t9 17.5q11 19 25 52q9 19 14 42q6 26 6 54
q0 35 -9 50q-10 16 -19 16q-13 0 -26 -8q-14 -9 -21 -9q-15 0 -36 19q-20 18 -9 37q-37 -20 -70 -60q-31 -36 -59 -85q-28 -48 -42 -95q-16 -53 -16 -92z" />
    <glyph glyph-name="ampersand" unicode="&#x26;" horiz-adv-x="1196" 
d="M782 981q30 17 61 60t31 118q0 41 -17 68q-19 30 -46 47q-29 18 -66 27q-42 10 -73 10q-43 0 -92 -13q-45 -12 -82 -37q-38 -25 -60 -66q-22 -40 -22 -95q0 -57 14 -106q16 -54 37 -103q22 -49 51 -100q32 -55 57 -95q15 -24 59 -76q63 -75 88 -102q17 -19 48.5 -54
t44.5 -49q50 -55 74 -79q0 -2 2 -2q66 99 91 170q34 96 43 127q16 53 33 79q18 27 62 27q30 0 56 -23t26 -77q0 -22 -11 -62q-11 -41 -36 -98q-25 -58 -60 -119q-39 -69 -85 -127q56 -44 106 -73q57 -33 85 -48q35 -19 55 -36t20 -39q0 -17 -6 -36q-5 -17 -17 -37
q-11 -18 -24 -29q-14 -11 -33 -11q-12 0 -47 19t-74 48q-50 37 -84 64q-28 22 -80 68q-78 -78 -158 -124q-78 -45 -155 -70q-67 -22 -136 -30q-67 -8 -104 -8q-29 0 -96 10q-58 9 -115 38q-56 29 -96 82q-41 55 -41 145q0 77 41 170q40 90 111 164q60 62 128 103
q70 43 140 44q-6 10 -20.5 35t-22.5 37q-29 49 -54 101q-29 60 -47 124q-20 69 -20 139q0 85 32 155q32 69 87 117t131 73q78 26 162 26q69 0 129 -20q65 -22 113 -61q50 -41 79 -96q31 -59 31 -130q0 -82 -23 -141q-25 -64 -58 -104q-34 -42 -69 -62q-36 -21 -59 -21
q-40 0 -58 27t-18 53q0 20 10 48q9 25 27 36zM475 498q-30 -11 -80 -36q-49 -24 -105 -67q-51 -40 -91 -99q-39 -58 -39 -132q0 -39 18 -66t47 -42q26 -14 67 -22q35 -7 75 -7q25 0 79 8q44 6 113 30q61 21 126 60q65 40 120 100l-195 197q-26 23 -54 59q-38 49 -48 60
q-4 -28 -33 -43z" />
    <glyph glyph-name="quotesingle" unicode="'" horiz-adv-x="342" 
d="M373 1393q-16 -44 -42 -109l-46 -115q-2 -5 -18 -44t-23 -57l-27 -67q-11 -20 -45 -20q-25 0 -46 12q-22 13 -22 29q0 6 22 50q21 42 42 114q16 52 27 110q8 46 14 109q6 26 35 41q27 14 59 14q29 0 50 -12q22 -13 22 -41q0 -5 -1 -7t-1 -7z" />
    <glyph glyph-name="parenleft" unicode="(" horiz-adv-x="792" 
d="M641 1411q-10 -10 -58 -60q-39 -40 -77 -90q-48 -63 -82 -115q-46 -72 -76 -134q-56 -114 -97 -246q-38 -120 -57 -263q-18 -136 -8 -270q10 -131 52 -266q43 -139 94 -224t96 -138q54 -62 75 -85q29 -30 29 -65q0 -30 -20 -50q-21 -21 -53 -21q-53 0 -109 55
q-58 56 -129 178q-96 157 -138 342t-39 375q3 189 47 380q44 190 120 359q35 81 78 152q47 77 85 132q36 52 80 106q40 50 64 71q23 23 52 36q25 11 48 11q32 0 52 -19t20 -51q0 -21 -10 -47q-10 -25 -39 -53z" />
    <glyph glyph-name="parenright" unicode=")" horiz-adv-x="751" 
d="M238 1421q-26 31 -33 58q-8 30 -4 49q5 31 26 47q23 17 54 12q21 -2 46 -16q26 -15 48 -43q23 -28 54 -78q38 -59 67 -114q30 -56 68 -142q36 -82 59 -160q54 -174 74 -371q20 -196 -1 -383q-21 -192 -85 -367q-65 -178 -177 -323q-84 -110 -149 -160q-63 -48 -115 -42
q-34 5 -51 27q-19 26 -15 53q5 34 38 60q25 20 84 75q50 47 113 125q61 76 122 211q58 126 83 258q25 131 25 268q0 140 -23 268q-24 135 -67 256q-25 79 -58 144q-35 68 -68 123q-37 62 -64 99q-30 42 -51 66z" />
    <glyph glyph-name="asterisk" unicode="*" 
d="M166 1135q62 6 127 9q88 4 133 7q-62 71 -66 76q-10 11 -31.5 37t-32.5 39q-29 34 -49 61q-20 28 -20 35q0 26 28 49q26 22 54 22q19 0 33 -14q6 -15 31 -53q23 -35 51 -75q30 -42 58 -79q5 -7 55 -69q1 2 29 52q5 9 38 64q50 92 73 142q25 55 60 55q30 0 53 -20t23 -43
q0 -16 -35 -72q-29 -47 -78 -121l-49 -74q99 5 228 19q41 -6 41 -64q0 -24 -11 -44q-10 -18 -28 -23q-30 4 -102 6q-94 2 -144 2q49 -62 56 -71q31 -37 52 -68l38 -57q16 -26 16 -32q0 -25 -27 -43t-55 -18q-25 0 -35 16q-2 5 -5.5 11.5t-9 15.5t-9.5 16q-18 32 -34 57
q-7 11 -21.5 32.5t-19.5 28.5q-28 42 -42 61q-37 -53 -72 -113q-11 -19 -30.5 -53.5t-28.5 -49.5q-24 -41 -50 -76q-22 -30 -39 -30q-26 0 -51 22q-24 21 -24 48q0 13 38 68q35 50 83 116l79 109q-61 -5 -137 -17q-75 -11 -119 -26q-23 0 -38 24t-15 55q0 39 31 50z" />
    <glyph glyph-name="plus" unicode="+" horiz-adv-x="1116" 
d="M160 760q22 -2 40 -2h54q138 0 266 6q12 78 24 154q13 84 19 163q3 28 5 81q1 24 1 57q4 26 32 43q26 16 63 16q36 0 56 -13q22 -14 23 -46q-8 -38 -17 -108q-8 -66 -26 -150l-38 -189q10 1 161 18q82 9 164 21q21 -1 36 -24q13 -20 11 -56q-5 -37 -14 -60
q-11 -28 -37 -32q-22 2 -41 2h-57q-133 0 -252 -6q-12 -67 -31 -183q-12 -74 -24 -214q-2 -24 -1 -34q1 -7 -2 -26q-4 -28 -28 -43q-22 -14 -60 -14q-33 0 -58 16q-27 17 -28 47l93 443q-27 -2 -171 -18q-85 -9 -167 -21q-22 2 -36 27q-14 26 -9 61q1 34 12 57t37 27z" />
    <glyph glyph-name="comma" unicode="," horiz-adv-x="434" 
d="M350 102q-7 -18 -21 -55t-20 -53q-23 -60 -45 -117q-19 -48 -42 -100q-20 -45 -27 -66q-7 -16 -29 -19q-21 -3 -43 3q-23 8 -35 21q-12 14 -2 30q11 17 27 55q13 30 32 95q16 52 27 110q8 46 14 109q6 26 36 41q28 14 61 14q31 0 53 -16t14 -52z" />
    <glyph glyph-name="hyphen" unicode="-" horiz-adv-x="831" 
d="M117 588q16 -2 28 -2h39q142 0 260 11q130 12 263 36q15 -1 25 -22q9 -19 7 -50q-1 -25 -10 -53q-8 -24 -27 -29q-14 2 -28 2h-41q-138 0 -255 -11q-129 -12 -263 -36q-17 2 -26 26q-9 23 -7 52q2 30 9 51q7 20 26 25z" />
    <glyph glyph-name="period" unicode="." horiz-adv-x="348" 
d="M258 4q-16 -54 -48 -83q-34 -31 -69 -23q-35 6 -50 47t-3 92q16 55 49 84q35 30 70 24q35 -8 50 -48q16 -42 1 -93z" />
    <glyph glyph-name="slash" unicode="/" horiz-adv-x="1196" 
d="M692 610q-39 -63 -79 -138q-37 -71 -85 -166q-46 -92 -84 -175q-40 -89 -72 -165q-32 -78 -51 -136q-20 -62 -20 -86q-11 -41 -28 -61q-18 -21 -52 -21q-28 0 -42 22q-12 18 -23 68q-8 36 7 95q16 64 45 138q28 70 71 162q36 77 85 169q51 96 87 160q58 103 79 134
l72 116q42 67 98 160l49.5 81t59.5 99q55 93 105 177q11 19 43 72t46 78q10 18 29.5 52t26.5 46q20 33 23 37q7 10 30 10q35 0 58 -22q24 -22 30 -60q4 -13 2 -37q-2 -21 -12 -39q-51 -98 -111 -191q-87 -134 -127 -191q-44 -63 -132 -191q-68 -99 -128 -197z" />
    <glyph glyph-name="zero" unicode="0" horiz-adv-x="1355" 
d="M188 487q0 -69 14 -145t50 -135q39 -63 101 -101q63 -38 165 -38q67 0 132 22q71 24 128 59q58 36 114 88q50 47 89 105q93 138 142 298q50 162 50 327q0 57 -9 120q-9 61 -40 119q-38 69 -92 92q-58 25 -98 25t-106 -23q-65 -22 -123 -81q-46 -46 -71 -93
q-21 -40 -40 -79q-17 -35 -32 -58q-15 -22 -44 -22q-34 0 -66 21t-32 56q0 9 13 35q14 28 40 64q25 35 64 80q33 38 84 86q86 76 176 111q87 34 149 34q95 0 160 -34q64 -34 107 -87q42 -52 66 -119q22 -61 35 -128q11 -60 13 -114q2 -70 2 -79q-2 -67 -25 -176
q-25 -114 -79 -230q-57 -123 -133 -220t-136 -148q-45 -36 -76 -59q-44 -33 -105 -64q-59 -30 -127 -51q-69 -21 -144 -21q-148 0 -239 48q-90 47 -141 121q-50 73 -68 157q-17 79 -17 156q0 73 10 143q11 80 25 141q20 91 31 125q23 72 32 96q16 47 58 142q40 90 98 176
q45 63 76 100q44 53 76 82q35 33 70 54q32 20 54 20q42 0 60 -24t18 -56q0 -45 -35 -68q-56 -22 -115 -83q-55 -57 -103 -129q-43 -65 -80 -141q-30 -62 -52 -118q-10 -26 -22 -69q-11 -41 -24 -95q-11 -47 -19 -107q-9 -68 -9 -108z" />
    <glyph glyph-name="one" unicode="1" horiz-adv-x="780" 
d="M127 1135q57 33 112 72q63 45 111 85q71 59 97 83q50 47 69 69q10 0 23 -5q8 -3 32 -22q70 -17 64 -92q-11 -30 -38 -121q-18 -61 -49 -175q-24 -87 -48 -182q-24 -96 -31 -142q-3 -18 -20 -134q-14 -96 -19 -146q-8 -75 -12 -147q-5 -73 0 -133q80 13 149 13
q29 0 45 -19q15 -18 15 -47q0 -53 -49 -57q-98 -7 -217 -33q-108 -24 -214 -57q-16 -7 -29 0q-14 8 -24 22t-16 33q-6 18 -6 31q0 18 9 36q8 16 32 21l141 31q5 50 9 124q4 69 20 158q24 189 69 397q57 265 86 410q-18 -12 -28 -22q-6 -5 -22.5 -19t-25.5 -21q-9 -8 -30 -25
t-32 -27q-32 -27 -57 -48t-34 -26q-18 -8 -41 3q-26 13 -41 32q-17 21 -21 43q-4 21 21 37z" />
    <glyph glyph-name="two" unicode="2" horiz-adv-x="1107" 
d="M145 977q0 91 59 182t147 161q90 72 196 115q108 44 201 44q98 0 162 -36t102 -89q35 -49 51 -115q14 -57 14 -115q0 -215 -106 -417q-39 -79 -104 -163q-70 -90 -134 -158q-72 -76 -148 -145q-73 -66 -149 -126l41 4q59 4 68 4q13 0 43.5 1.5t47.5 2.5q16 0 48 1.5
t49 2.5q66 2 88 2q61 0 84 -10q25 -11 25 -53q0 -37 -17 -73q-16 -34 -41 -34q-19 5 -52 9q-4 1 -31.5 4.5t-43.5 5.5q-40 4 -85 6q-58 2 -85 2q-42 0 -62 -1q-40 -2 -62 -4q-27 -2 -73 -11q-48 -9 -91 -19q-34 -7 -58 -16q-5 -2 -24.5 -9t-29.5 -11q-25 -9 -45 -15t-28 -6
q-29 0 -50 37t-21 77q0 34 28 49l70 43q4 2 36 23t56 36q42 27 130 88q73 51 145 110q71 58 139 126q86 86 151 182q59 88 96 170q35 79 49 151q13 68 13 128q0 44 -9 85q-9 39 -32 70q-22 29 -58 47q-34 17 -87 17q-62 0 -134 -26q-76 -27 -143 -72q-66 -44 -115 -105
t-53 -128q-2 -32 -9 -60q-8 -30 -19 -51q-12 -22 -29 -36q-16 -13 -35 -13q-28 0 -52 34t-24 97z" />
    <glyph glyph-name="three" unicode="3" horiz-adv-x="1110" 
d="M160 1176q28 47 89 96q66 53 145 95q86 45 179 73q94 28 189 28q43 0 82 -10t75 -32q34 -21 55 -54t21 -78q0 -66 -53 -143q-52 -75 -132 -151q-84 -79 -167 -144q-130 -101 -156 -121q8 0 37.5 -1.5t48.5 -2.5q50 -2 104 -6q60 -5 108 -13q54 -9 102 -26q29 -11 61 -28
q40 -21 66 -43q30 -25 51 -63q20 -36 20 -87q0 -68 -35 -135q-36 -69 -97 -136t-141 -125q-83 -60 -171 -104t-183 -70t-179 -26q-93 0 -145 33t-79 76q-25 40 -33 88q-8 46 -8 65q0 32 9 59q8 23 21 35q14 13 29 17q13 4 29 4q37 0 62 -22q24 -21 24 -68q0 -10 -3 -21
t-3 -22q0 -45 22 -70t85 -25q60 0 132 21q77 23 145 55q73 35 142 80q67 44 122 94q55 51 86 99q32 50 32 94q0 39 -46 63q-49 25 -110 38q-71 15 -136 19q-78 5 -121 5q-59 0 -84 -1q-39 -2 -62 -3q-44 -4 -74 5q-29 9 -45 24q-16 14 -22 36q-6 21 -6 39q0 8 -2 18
q-2 9 1 20t16 26q8 9 44 34q15 11 82 57q65 45 116 81q50 36 128 96q61 47 117 100q49 46 86 93q34 43 34 77q0 14 -13 28q-13 15 -71 15q-87 0 -165 -29q-76 -28 -146 -71q-63 -38 -111 -82q-43 -39 -55 -66q-15 -15 -48 -29t-60 -14q-19 0 -38 16q-18 15 -18 50
q0 32 21 70z" />
    <glyph glyph-name="four" unicode="4" horiz-adv-x="1200" 
d="M1098 1274q-5 -46 -12 -130q-9 -101 -19 -186q-12 -96 -30 -188q-7 -33 -15.5 -81t-11.5 -62l-35 -170q23 6 60.5 14.5t48.5 11.5q54 13 71 13q31 0 53 -28q21 -27 21 -67q0 -34 -21 -52q-19 -16 -58 -24q-43 -9 -91 -10q-46 -1 -121 -8v-2q-22 -75 -48 -151
q-25 -71 -53 -131q-26 -54 -56 -93q-27 -34 -52 -34q-35 0 -62 28q-28 30 -28 62q0 8 15 40q5 10 17.5 35.5t19.5 39.5q28 58 47 96q28 56 44 100q-39 -1 -70 -3q-20 -1 -56 -1h-52h-63q-57 0 -126 3q-87 4 -133 7q-12 1 -55 3.5t-63 4.5l-80 6q-26 7 -39 30q-12 21 -12 50
v9q-10 23 -10 40q0 15 16 35q15 19 44 48q16 16 62 64q32 33 72 83q88 117 151 242t115 268q31 86 50 153q18 63 32 109q11 23 29 31q19 8 41 8q40 0 67 -21t27 -53q0 -22 -14 -63q-17 -51 -36 -97q-11 -28 -49 -112q-9 -20 -56 -114l-16.5 -33l-18.5 -37l-15 -30
q-25 -52 -37 -71q-41 -75 -43 -78q-48 -83 -60 -102q-40 -65 -72 -113q-44 -66 -74 -104q103 -18 193 -26q97 -9 198 -9q49 0 99 3q66 4 99 7q24 87 32 122q20 84 22 95q10 51 16 103q2 14 5 40.5t6 49.5t5 44q12 117 14 142q5 80 5 131q0 28 -2 66t-2 47q0 36 30 54t66 18
q27 0 49 -19q20 -17 25 -53z" />
    <glyph glyph-name="five" unicode="5" horiz-adv-x="1110" 
d="M395 1262q-11 23 -15 49q-5 30 -5 55q0 37 19 50t73 13l12 27q11 14 33 14q18 0 38 -9t36 -21q233 19 393 21q139 1 180 3q20 -5 31 -12q12 -8 12 -33q0 -47 -33 -62q-35 -16 -73 -16q-137 0 -268 -20q-142 -22 -267 -55q-34 -63 -62 -129q-18 -41 -41 -107
q-12 -34 -34 -104q-15 -49 -41 -121q56 0 90 -1q59 -2 110 -7q48 -5 122 -19q63 -12 129 -33q45 -16 75 -29q44 -20 76 -46q34 -28 58 -69q24 -40 24 -95q0 -50 -16 -92q-16 -43 -40 -77q-24 -35 -48 -60q-7 -7 -20.5 -21t-18.5 -20q-29 -32 -102 -93q-62 -52 -153 -107
q-86 -52 -188 -90t-200 -38q-100 0 -153 37q-56 39 -80 86q-26 51 -32 97q-6 48 -6 71q0 60 27 75t55 15q38 0 62 -24t24 -75q0 -20 2 -52q1 -22 14 -41q11 -17 33 -27q24 -11 64 -11q79 0 162 30q80 29 155 72q77 44 131 88q63 51 88 79q23 25 33 37q24 28 34 44
q17 27 26 48q10 23 10 49q0 42 -51 68q-53 26 -123 41q-82 17 -150 21q-87 5 -129 5q-99 0 -149 -6q-58 1 -91 34t-49 101q0 8 27 52q21 33 55 102q21 45 36 84q22 58 29 78q2 7 11.5 36.5t15.5 45.5q6 15 17 47.5t16 46.5z" />
    <glyph glyph-name="six" unicode="6" horiz-adv-x="1187" 
d="M1020 1407q-37 -27 -120 -101q-80 -70 -165 -159q-89 -92 -158 -177q-74 -91 -112 -145q-35 -50 -70 -108q-44 -73 -79 -149q-39 -83 -65 -167q-28 -89 -28 -159q0 -111 46 -156q47 -45 163 -45q89 0 178 25q85 24 158 62q69 36 124 83q52 45 79 88q16 27 36 77
q19 47 19 105q0 57 -21 94q-20 35 -57 58q-35 21 -79 29q-46 8 -91 8q-49 0 -85 -6q-20 -3 -62 -15q-5 -1 -46 -14q-19 -6 -34 -6q-30 0 -61 19t-31 54q0 60 77 92q75 31 205 31q67 0 140 -12q72 -12 151 -59q64 -39 98 -113q33 -72 33 -147q0 -90 -27 -158
q-26 -66 -55 -109q-41 -67 -112 -126q-72 -60 -162 -108q-91 -48 -193 -77q-104 -29 -202 -29q-109 0 -179 25q-67 24 -105 68t-51 101q-14 61 -14 128q0 99 34 200q33 97 81 195q43 88 97 171q33 51 83 126q39 55 113 152q66 87 158 190q130 144 210 227q88 91 136 91
q33 0 58 -25q24 -24 24 -57q0 -35 -37 -72z" />
    <glyph glyph-name="seven" unicode="7" horiz-adv-x="1011" 
d="M967 1346q-33 -28 -47 -40q-28 -25 -62 -59q-45 -45 -70 -71t-69 -80q-86 -107 -146 -244q-61 -137 -100 -286t-57 -286q-19 -149 -19 -245v-31q-5 -41 -26 -60q-23 -20 -58 -20q-32 0 -60 14q-29 14 -30 58q5 70 18 170q13 98 39 218q27 125 65 245q42 133 95 250
q55 121 129 235q75 115 168 199q-130 0 -236 -7q-112 -7 -222 -38q-28 -10 -61 -23q-7 -3 -18.5 -7.5t-20 -8t-16.5 -6.5q-9 -4 -24 -10.5t-20 -8.5q-19 -8 -27 -8q-12 0 -26 10q-15 10 -27 27q-15 21 -21 36q-8 21 -8 38q0 34 27 49q107 30 181 44t154 22q72 8 144 12
q128 8 156 10q28 1 66 11q14 4 39.5 11t29.5 8q20 6 57 17q26 8 33 8q31 0 53 -18q23 -18 32 -44t6 -52q-3 -24 -21 -39z" />
    <glyph glyph-name="eight" unicode="8" horiz-adv-x="1185" 
d="M723 1251q-24 11 -41 14q-27 5 -57 5q-49 0 -106 -21t-105 -56q-50 -36 -81 -85q-32 -50 -32 -107q0 -39 28 -78q27 -38 68 -65q39 -26 87 -40q45 -13 81 -7q62 12 140 57q74 43 146 110q69 65 115 140q46 76 46 148q0 34 -10 44q-9 9 -35 9q-47 0 -74 15t-27 79
q0 66 84 66q27 0 40 -1q18 -1 54 -14q55 -22 82 -72q29 -53 29 -106q0 -77 -31 -150q-29 -69 -80 -132q-53 -66 -110 -116q-74 -65 -123 -102l76 -22q11 -3 62 -26q44 -20 95 -60q52 -41 88 -96q37 -56 37 -136q0 -78 -34 -137q-33 -57 -74 -100q-124 -130 -290 -196
q-167 -66 -353 -66q-24 0 -61 3q-39 3 -82 12q-41 9 -90 29q-48 20 -84 53q-37 34 -61 82t-24 118q0 74 25 143q23 63 68 122q43 57 104 107q65 54 135 101q-11 13 -43 36q-30 21 -62 53q-31 31 -56 76q-23 42 -23 105q0 89 45 168q45 80 116 140q73 62 159 97t178 35
q86 0 122 -20q37 -21 37 -59q0 -14 -9 -35t-22 -37q-15 -18 -31 -26q-18 -9 -36 1zM1026 434q6 68 -45 118q-52 51 -125 79q-75 29 -155 35q-78 6 -138 -13q-48 -17 -111 -48q-73 -37 -134 -86q-64 -53 -111 -123q-47 -71 -47 -158q0 -50 25 -79q24 -28 65 -47
q39 -18 86 -24q46 -6 90 -6q75 0 176 21q100 21 193 65q91 43 158 110t73 156z" />
    <glyph glyph-name="nine" unicode="9" horiz-adv-x="1171" 
d="M299 57q54 47 110 94q75 63 152 146q60 63 142 164q80 99 142 201t107 219q43 111 43 217q0 52 -5 100q-4 43 -26 71q-21 27 -65 42q-41 14 -119 14q-112 0 -222 -40q-117 -43 -201 -111q-88 -72 -144 -173q-55 -100 -55 -223q0 -111 61 -154q62 -44 172 -44q50 0 86 10
q41 11 64 23l47 24q20 10 37 10q29 0 58 -25q31 -26 32 -63q0 -21 -20 -46q-18 -22 -57 -44q-35 -20 -92 -34q-52 -13 -124 -13q-85 0 -155 19q-71 19 -128 61q-55 40 -87 105q-32 66 -32 157q0 146 66 277q66 130 175 229q105 95 251 154q141 57 293 57q157 0 254 -86
q96 -85 96 -250q0 -123 -45 -250q-44 -125 -116 -249q-71 -122 -157 -235q-91 -119 -169 -210q-104 -121 -198 -214q-82 -81 -120 -81q-35 0 -59 27q-25 28 -25 59q0 38 33 65z" />
    <glyph glyph-name="colon" unicode=":" horiz-adv-x="374" 
d="M324 489q-15 -51 -49 -82t-68 -24q-35 6 -50 47t-3 92q16 55 49 84q35 31 69 25q36 -8 51 -48q16 -42 1 -94zM270 4q-16 -54 -48 -83q-33 -31 -68 -23q-36 6 -51 47t-3 92q15 54 50 84q34 30 69 24q35 -8 50 -48q16 -42 1 -93z" />
    <glyph glyph-name="semicolon" unicode=";" horiz-adv-x="497" 
d="M408 489q-15 -51 -49 -82t-68 -24q-35 6 -50 47t-3 92q16 55 49 84q35 31 69 25q36 -8 51 -48q16 -42 1 -94zM350 102q-7 -18 -21 -55t-20 -53q-23 -60 -45 -117q-19 -48 -42 -100q-20 -45 -27 -66q-7 -16 -29 -19q-21 -3 -43 3q-23 8 -35 21q-12 14 -2 30q11 17 27 55
q13 30 32 95q16 52 27 110q8 46 14 109q7 32 38 49q28 16 61 14q31 -2 52 -21t13 -55z" />
    <glyph glyph-name="less" unicode="&#x3c;" horiz-adv-x="856" 
d="M117 698q0 30 15 65q14 33 38 44q19 7 64 22q33 11 73 27q25 10 73 30t66 29q50 23 81 42l56 35q24 15 42 27q15 10 39 17q31 -5 45 -32t14 -54q0 -34 -25 -53q-61 -22 -161 -66q-77 -33 -140 -64q-69 -35 -123 -71q50 -29 116 -57q49 -20 125 -49q21 -8 57.5 -21
t51.5 -19q50 -19 66 -28q25 -19 25 -53q0 -23 -9 -61t-40 -46l-36 15q-18 7 -42 21q-21 12 -58 32q-46 25 -81 41q-7 4 -67 31q-41 19 -74 32q-10 4 -35.5 13.5t-38.5 15.5q-29 12 -64 25q-22 7 -38 37q-15 29 -15 73z" />
    <glyph glyph-name="equal" unicode="=" horiz-adv-x="1093" 
d="M186 944q9 -4 29 -4q11 0 41 -2q89 -4 190 -4q91 0 178 3q116 4 173 7q76 4 178 4q20 -6 26 -25q7 -22 3 -46q-6 -36 -26 -69q-20 -32 -42 -32q-21 4 -71 12q-62 10 -103 13q-66 1 -140 0q-76 -2 -152 -6q-78 -5 -155 -12q-24 -2 -147 -13q-24 5 -31 31q-8 28 -2 61
q5 35 17 57q12 21 34 25zM139 645q14 -2 29 -2q11 0 41 -2q84 -4 172 -4q79 0 158 3q127 5 172 7q81 4 217 4q38 -15 28 -71q-6 -40 -25 -69q-20 -31 -42 -32q-32 12 -94 16q-44 3 -136 9q-41 2 -107 0q-39 -1 -141 -7q-22 -1 -47.5 -3t-56.5 -5t-48 -4q-77 -6 -138 -12
q-24 5 -31 31q-8 29 -4 61q6 37 18 57q12 21 35 23z" />
    <glyph glyph-name="greater" unicode="&#x3e;" horiz-adv-x="856" 
d="M723 700q0 -30 -15 -64q-14 -33 -38 -44q-38 -14 -65 -23q-48 -16 -73 -26q-11 -4 -23 -9t-26.5 -11.5t-22.5 -9.5q-42 -17 -67 -30q-49 -23 -81 -42q-7 -4 -26.5 -16t-28.5 -18q-24 -15 -42 -27t-39 -18q-30 4 -45 33q-14 27 -14 54q0 35 24 53q75 27 162 65
q59 25 138 65q79 39 124 70q-58 34 -115 58q-49 20 -125 49q-21 8 -57.5 21t-51.5 19q-50 19 -66 28q-25 19 -25 53q0 24 9 61t40 45q36 -11 78 -37q38 -24 139 -71q7 -3 67 -31q48 -22 73 -32q10 -4 35.5 -13.5t38.5 -15.5q22 -9 65 -25q22 -7 38 -37q15 -28 15 -74z" />
    <glyph glyph-name="question" unicode="?" horiz-adv-x="1165" 
d="M440 946q-1 -36 -29 -73q-26 -35 -71 -35q-14 0 -31 9q-13 7 -30 29q-15 20 -24 52q-9 31 -7 82q4 101 51 178q45 74 117 127q71 53 153 76q84 24 162 24q86 0 152 -30t108 -78q43 -49 64 -115q20 -62 18 -137q-5 -104 -38 -188q-35 -88 -85 -160q-53 -76 -114 -133
q-63 -58 -126 -99q-65 -42 -120 -62q-60 -22 -96 -22q-7 -33 -7 -51q0 -26 -4 -53q-6 -66 -75 -62q-38 1 -50 18q-11 15 -6 46q0 3 2.5 15.5t4.5 23.5t6.5 32t5.5 28q3 14 10 58q4 24 4 35q2 37 -1 74q-3 41 -3 57q2 25 23 40q22 16 53 16q32 0 52 -14q19 -13 19 -42
q0 -23 -10 -77q68 12 139 64q76 55 133 124q61 73 99 157q39 84 43 162q4 117 -52 169q-58 53 -149 53q-46 0 -102 -16q-55 -16 -98 -44q-44 -29 -73 -68q-31 -41 -32 -89q-2 -25 6 -55q8 -32 8 -46zM461 4q-16 -49 -46 -78q-31 -30 -63 -30q-34 0 -52 28q-17 26 -15 70
q4 64 42 108q37 43 79 43q31 0 48 -26q17 -25 15 -68q0 -6 -2 -22q-2 -13 -6 -25z" />
    <glyph glyph-name="at" unicode="@" horiz-adv-x="1902" 
d="M666 426q0 -106 56 -175q57 -71 165 -71q67 0 117 27q48 26 81 68q34 43 52 96t24 108q15 123 -44 200t-165 77q-62 0 -114 -30q-55 -32 -92 -77q-38 -48 -59 -105q-21 -59 -21 -118zM1233 840q5 20 31 33q24 12 52 12t47 -12t15 -33l-94 -486q-7 -28 -11 -55
q-5 -33 -5 -57q0 -26 9 -44t36 -18q35 0 75 34t74 89q38 60 60 125q23 67 28 143q8 138 -32 241q-41 105 -119 179q-80 75 -186 112q-109 38 -232 38q-139 0 -252 -49q-115 -50 -199 -137q-85 -89 -131 -206q-47 -121 -47 -260q0 -147 51 -267q51 -119 142 -206
q90 -86 211 -132q120 -46 260 -46q124 0 227 25q97 24 164 69q41 29 82 24q38 -4 67 -27q28 -21 29 -51t-35 -50q-103 -58 -235 -98q-129 -39 -316 -39q-166 0 -310 60q-143 60 -252 167q-107 105 -170 253q-62 145 -62 318q0 170 60 317q59 144 167 254q106 108 249 168
t306 60q135 0 257 -42q121 -42 224 -134q103 -89 167 -209q63 -117 63 -260q0 -128 -33 -239q-34 -113 -94 -191q-72 -97 -151 -137q-77 -39 -150 -35q-42 1 -79 32q-36 30 -46 89q-52 -52 -120 -89q-66 -36 -159 -36q-66 0 -130 29q-63 28 -109 79q-48 53 -76 120
q-29 70 -29 147q0 92 30 179q30 86 84 154q55 69 131 109q77 41 173 41q77 0 144 -32t128 -111z" />
    <glyph glyph-name="A" unicode="A" horiz-adv-x="1259" 
d="M227 391q-51 11 -72 30q-22 21 -18 68q1 33 23 51q20 17 50 26q34 10 63 14q6 1 29 3.5t34 4.5q78 141 159 279q92 156 162 261l70 103q25 38 67 95q7 9 27 37.5t30 41.5q25 35 42 57q39 33 74 33q19 0 48 -8q26 -7 51 -23q27 -17 39 -34q15 -20 13 -48q-9 -96 -15 -141
q-12 -91 -24 -203q-12 -106 -21 -215q-9 -106 -9 -176q54 -2 72 -2q35 0 54 -4q21 -4 32 -17q12 -14 12 -40q0 -35 -29 -55q-28 -19 -51 -19q-12 3 -36 5l-52 3q7 -137 35 -226q25 -82 58 -139q32 -56 52 -80q23 -28 23 -50q0 -34 -27 -68q-27 -35 -68 -35q-14 0 -29 6
t-32 23q-43 52 -70 117q-30 71 -47 142q-17 72 -28 153q-12 88 -13 149q-122 -10 -247 -27t-246 -55q-98 -244 -133 -326q-49 -117 -64 -165q-17 -34 -40 -47t-50 -13q-41 0 -64 25q-22 23 -22 63q0 17 6 45l21 45t20 42q4 9 20.5 44.5t25.5 54.5q16 33 48 101q16 35 47 94z
M905 666q0 49 5 137q2 31 6.5 91t5.5 75q8 114 12 170q2 33 6 90t4 61q-99 -112 -212 -292q-100 -160 -220 -382q84 12 110 15q60 6 113 9q78 4 102 5q62 2 68 2v19z" />
    <glyph glyph-name="B" unicode="B" horiz-adv-x="1148" 
d="M412 739q89 40 194 104q96 58 178 131q83 73 130 145q51 77 51 145q0 30 -20 44q-19 13 -73 13q-150 0 -276 -35q-118 -33 -219 -76q22 -11 36 -31q15 -20 7 -48q-14 -24 -40 -91q-24 -62 -48 -132q-26 -77 -44 -140q-22 -77 -28 -113q-8 -29 -15 -72q-9 -50 -14 -97
q-6 -53 -9 -107q-3 -56 -3 -107v-74q0 -42 4 -57q-5 -27 -24 -43q-21 -18 -54 -18t-60 12t-32 47q0 19 3 49q3 27 6 70q2 26 8 80t10 80q11 85 25 150q13 61 26 116q3 13 10.5 46t11.5 53q20 92 29 130q18 75 33 131q16 61 29 105q-29 -16 -54 -26q-22 -9 -32 -9
q-35 0 -60 23q-24 23 -24 55q0 23 15 47t50 45q35 20 113 52q81 33 167 58q98 28 201 47q105 19 214 19q50 0 96 -7q48 -7 94 -38q48 -32 60 -76t12 -75q0 -47 -28 -105q-25 -51 -73 -112q-45 -57 -99 -114q-51 -53 -110 -108q47 0 116 -8q60 -7 122 -33q57 -24 97 -70
t40 -122q0 -52 -15 -93q-13 -34 -34 -75q-47 -89 -125 -161q-80 -74 -170 -130q-93 -58 -191 -101q-106 -46 -191 -73q-87 -27 -168 -43q-71 -14 -124 -14q-61 0 -87 13q-27 13 -27 48q0 68 102 86q44 0 102 11q72 14 141 34q81 24 160 54q71 27 161 73q81 41 146 90
q64 48 109 107q21 24 48 69q28 47 28 93q0 41 -28 69q-27 27 -99 27q-96 0 -184 -17q-110 -21 -154 -32q-51 -12 -95 -29q-41 -16 -83 -16q-37 0 -46 16t-9 47q0 46 24 62q16 11 60 32z" />
    <glyph glyph-name="C" unicode="C" horiz-adv-x="1167" 
d="M993 995q4 11 25 48q16 29 16 69q0 62 -48 112t-150 50q-90 0 -169 -49q-81 -51 -147 -131q-71 -86 -121 -187q-56 -112 -91 -217q-38 -112 -57 -222q-20 -112 -20 -202q0 -66 19 -118q18 -49 49 -85q29 -33 70 -52q37 -17 82 -17q113 0 201 42q94 44 159 107
q69 66 119 149q48 80 82 165q24 61 73 61q30 0 47 -23t17 -61q0 -15 -4 -39q-5 -27 -15 -45q-51 -91 -118 -177q-68 -88 -160 -161q-86 -69 -199 -116q-108 -45 -235 -45q-91 0 -152 34q-60 34 -100 89q-39 54 -60 117q-20 60 -28 117q-8 54 -9 93q-1 26 -1 43q0 100 27 218
q26 113 77 239q47 116 119 233q71 115 154 200q85 87 184 139q98 52 205 52q66 0 127 -21q57 -20 110 -61q49 -38 82 -93q33 -54 39 -117q2 -21 3 -39q1 -12 1 -35q0 -62 -11 -98q-12 -40 -28 -63t-35 -34q-17 -10 -32 -10q-46 0 -73 35q-28 36 -28 76q0 11 4 30z" />
    <glyph glyph-name="D" unicode="D" horiz-adv-x="1363" 
d="M12 16q0 50 23 68t92 18q133 0 266 29q131 29 251 87q119 58 226 150q110 95 193 218q36 51 70 109q30 51 59 118q27 61 42 126t15 134q0 68 -37 114q-39 48 -92 74q-56 27 -120 39q-70 13 -119 13q-194 0 -383 -82q10 -10 18 -23t8 -26q0 -8 -4 -19q-102 -230 -150 -476
q-48 -247 -48 -503q0 -28 -22 -44q-21 -15 -54 -15q-36 0 -64 12t-28 43q7 120 27 251q17 113 44 257q21 109 55 247q31 126 58 218q0 -2 -2 -2q-23 -17 -43 -21q-19 -4 -35 -4q-35 0 -63 37q-29 38 -29 78t40 71q43 34 102 56q70 27 141 43q94 22 151 31q73 12 137 18
q63 6 99 6q84 0 181 -18q92 -17 181 -63q82 -43 140 -117q57 -73 57 -185q0 -169 -61 -326t-160 -284t-230 -232q-127 -102 -267 -175q-139 -72 -274 -110q-137 -38 -245 -38q-43 0 -73 5q-25 4 -44 18q-17 12 -23 30t-6 45z" />
    <glyph glyph-name="E" unicode="E" horiz-adv-x="1003" 
d="M160 1247q-13 18 -17 37t-4 35q0 28 33 49t83 36q52 16 113 23q113 13 120 14q80 6 107 7q64 2 71 2q54 0 118 -10q72 -11 128 -28q68 -20 102 -38q41 -21 41 -41q0 -29 -24 -56q-25 -28 -48 -28q-7 0 -29 9q-28 11 -55 21q-30 11 -74 19q-49 9 -84 9q-29 0 -70 -3
q-16 -1 -46.5 -4.5t-37.5 -4.5q-29 -3 -89 -13q-43 -7 -88 -18q34 -4 62 -29t28 -53q0 -1 -19 -50q-36 -93 -45 -116q-26 -66 -54 -152q-32 -96 -46 -159q180 32 301 43q137 12 242 8q24 0 32 -22q9 -25 9 -48q0 -33 -19 -46q-17 -11 -49 -11q-140 0 -273 -21
q-142 -22 -270 -55q-9 -77 -13 -158q-5 -105 -5 -229v-51q65 7 146 23q51 10 177 38q46 11 116 17q72 6 134 6q48 0 78 -6q31 -6 31 -39q0 -40 -21 -64t-37 -24q-16 10 -53 10q-64 0 -140 -18q-79 -19 -158 -42q-74 -22 -159 -53q-18 -7 -48 -18t-53.5 -19.5t-43.5 -15.5
q-15 -4 -30 -1q-13 3 -29 19q-30 5 -55 21t-23 49q0 36 4 87q8 103 10 124q3 31 14 139l13 133q-1 -1 -19 -9q-15 -7 -22 -7q-21 0 -34 9q-12 8 -36 40q-14 21 -17 26q-5 8 -5 23q0 33 46 60q45 26 111 47q9 51 35 159q19 79 47 183q20 75 47 155q23 67 35 80
q-34 -12 -63 -27q-30 -16 -47 -16q-23 0 -40 4q-20 4 -42 39z" />
    <glyph glyph-name="F" unicode="F" horiz-adv-x="937" 
d="M174 1290q-22 32 -22 58q0 39 47 57q117 33 241 48t256 15q54 0 123 -12q70 -12 131 -33q66 -23 105 -44q43 -24 43 -46q0 -25 -26 -46t-46 -21q-11 0 -46 22q-37 23 -101 39q-33 7 -64 8q-44 2 -61 2q-66 0 -129 -5q-59 -5 -111 -15q20 -11 34 -30q13 -17 13 -34
q0 -11 -4 -26l-4 -23q-7 -37 -43 -119q-37 -84 -64 -170q-4 -11 -27 -93q-5 -16 -12.5 -44t-9.5 -35q62 9 110 13q53 4 138 4q26 0 70 -2q23 -1 59 -7q24 -4 42 -15q15 -9 15 -25q0 -15 -10 -26q-10 -12 -22 -19q-21 -13 -23 -14l-12 -5q-10 4 -35 9q-32 6 -59 6
q-62 0 -144 -14q-77 -13 -161 -36q-12 -51 -17 -92q-4 -34 -10 -98q-3 -36 -5 -117q-1 -42 -1 -145q0 -74 1 -106q2 -54 5 -72q-5 -36 -34 -58t-62 -22q-35 0 -63 17q-29 17 -29 58q0 33 5 113q5 74 12 155q10 113 17 166q11 85 21 146q-5 -2 -10.5 -5t-12 -6t-9.5 -5
q-5 -2 -15 -8l-15 -9q-17 -6 -28 -6q-18 0 -32 13q-16 15 -36 40q-27 30 -27 54q0 17 24 32q22 14 57 26q26 9 71 18q15 3 39 8t27 6q5 24 16 74t16 75q14 64 38 162q17 69 38 148q18 68 33 108q-45 -17 -55 -21q-36 -16 -54 -26q-16 -6 -26 -6q-22 0 -37 16q-15 17 -33 45z
" />
    <glyph glyph-name="G" unicode="G" horiz-adv-x="1251" 
d="M1116 1311q-9 9 -40 17q-28 7 -75 7q-116 0 -221 -43q-107 -44 -199 -115t-171 -170q-81 -101 -136 -207q-57 -109 -90 -227q-32 -115 -34 -225q-5 -129 50 -179q55 -51 177 -52q121 0 227 58q108 59 191 150t140 201q56 109 79 213q-114 -30 -170 -45q-85 -23 -144 -73
q-14 -7 -18 -7q-13 0 -27 6q-9 4 -26 35q-18 38 -19 41q-8 19 -4 33q11 29 46 45q36 16 87 33q54 16 121 30q38 8 125 23q70 12 118 17q21 2 54.5 5.5t44.5 4.5q19 2 43 -15q25 -17 31 -47q5 -25 -7 -42q-11 -17 -26 -17h-45q-14 -30 -31 -82q-5 -15 -10 -31.5t-11.5 -37.5
t-10.5 -33q-6 -20 -17 -56.5t-14 -47.5q-15 -49 -21 -83q-11 -51 -18 -113q-9 -80 -14 -134q-8 -94 -10 -134q-3 -69 1 -114q-5 -19 -25 -29t-52 -10q-37 0 -65 11q-30 12 -30 38q0 1 6 55q5 44 12 91q5 33 15 103q3 20 8.5 51t6.5 40q-60 -63 -109 -104q-63 -52 -127 -89
t-142 -62q-75 -24 -157 -24q-130 0 -203 40q-72 40 -110 97q-37 56 -47 118q-11 66 -11 106q2 129 39 267q37 137 102 268q66 134 155 246q92 116 203 203q112 88 242 137q132 50 273 50q70 0 117 -17q49 -18 81 -45q30 -26 46 -65q14 -35 14 -73q-1 -54 -27 -75
q-25 -20 -40 -20q-24 0 -39 12q-16 13 -24 27q-12 22 -17 34q-6 15 -21 30z" />
    <glyph glyph-name="H" unicode="H" horiz-adv-x="1251" 
d="M125 541q-3 6 -14 27q-5 10 -5 24q0 28 38 51q35 21 92 39q5 22 15.5 74t17.5 82q13 59 41 175q15 60 41 162q15 57 32 115q10 22 29 33q17 10 39 10q41 0 75 -28q35 -29 35 -60q0 -10 -2 -24q-18 -32 -38 -85q-27 -73 -43 -127q-30 -102 -43 -148q-22 -79 -36 -142l21 4
q142 21 277 36q123 13 284 25q25 122 34 164q15 70 41 177q21 87 42 162q6 22 17 61.5t15 54.5q11 25 38 38q23 11 48 11q41 0 66 -31t25 -59q0 -10 -4 -29q-15 -28 -39 -94q-34 -94 -48 -140q-26 -82 -47 -160q-20 -72 -39 -153q39 -21 39 -63q0 -24 -14 -39
q-14 -16 -35 -20q-5 0 -8 1t-8 1v-2q-10 -50 -18 -132q-7 -77 -7 -174q0 -51 5 -114q4 -51 18 -105q7 -32 17 -54q7 -14 17 -33q9 -17 12 -23q5 -12 5 -25q0 -14 -4 -30q-5 -18 -14 -33q-11 -17 -26 -29t-36 -12q-32 0 -58 29q-27 30 -48 80q-21 48 -33 120q-12 69 -12 150
q0 115 13 213q19 142 23 169q-94 -6 -140 -11q-100 -10 -152 -18q-84 -13 -154 -28q-78 -17 -143 -37q-7 -46 -11 -86q-2 -18 -4.5 -54t-3.5 -50q-4 -55 -6 -113q-2 -76 -2 -108q0 -49 2 -119t2 -82q0 -34 -32 -57t-62 -23q-36 0 -62 17q-25 17 -30 59q0 42 4 99
q8 113 10 140q3 38 14 157q3 32 9.5 86.5t7.5 62.5q-10 -2 -21 -2q-20 0 -30 11q-14 16 -29 36z" />
    <glyph glyph-name="I" unicode="I" horiz-adv-x="751" 
d="M244 1442q71 30 155 37q94 8 181 8q112 0 196 -23q83 -23 115 -43q20 -17 20 -49q0 -34 -21 -57t-46 -23q-9 0 -27 13q-13 10 -44 25q-27 14 -69 21t-102 -3q16 -7 21 -39q4 -28 -9 -60q-14 -29 -38 -106q-28 -88 -47 -155q-10 -35 -44 -163q-11 -41 -32 -131
q-16 -81 -19 -97q-8 -46 -19 -128q-12 -90 -16 -136q-6 -69 -6 -124v-43q0 -13 2 -33q-6 -23 -8 -27q11 2 63 9t77 10q59 7 94 14q29 0 48 -29t19 -59q0 -24 -15 -35q-15 -10 -47 -15q-51 -7 -81 -10q-32 -3 -115 -18q-31 -7 -74 -18q-12 -3 -96 -26q-18 -5 -93 -23
q-41 -10 -63 -10q-52 0 -76 25t-24 65q0 35 19 56q18 20 49 29q27 8 71 13q15 2 45.5 4.5t42.5 3.5q-14 16 -16 41q2 15 5.5 56.5t5.5 64.5q8 81 24 170q20 107 34 173q25 114 29 130q10 39 33 134q4 17 19 80.5t24 98.5q16 63 44 175q21 81 38 122q-56 -5 -106 -24
q-65 -25 -91 -37q-41 0 -65 27q-25 28 -25 63q0 20 15 41q14 19 45 35z" />
    <glyph glyph-name="J" unicode="J" horiz-adv-x="643" 
d="M516 1253q0 -57 -8 -156q-6 -78 -25 -204q-22 -155 -27 -185q-34 -208 -39 -240q-18 -111 -47 -263q-19 -99 -54 -254q-27 -119 -57 -213t-60 -139q-21 -33 -36 -52q-21 -27 -38 -41q-20 -17 -48 -31q-30 -15 -67 -22q-24 -6 -54 -6q-29 0 -59 3q-38 4 -57 7
q-24 4 -43 11q-23 7 -62 29q-32 19 -69 49q-28 23 -56 58q-24 30 -24 52q0 47 23 72q23 24 51 24q35 0 58 -23q26 -26 59 -75q38 -58 105 -65q66 -7 130 18q40 17 78 105q35 82 71 216q30 111 60 274q29 158 48 276q25 157 34 227q13 104 16 120q14 96 15 165q2 108 2 148
q0 71 4 114q5 50 18 69q-10 -4 -31.5 -14t-31.5 -14q-34 -15 -55 -15q-56 0 -62 57q0 30 21 54q22 25 55 41q56 25 137 30q69 4 135 4q70 0 103 -6t33 -55q0 -27 -8 -49t-23 -23q-11 0 -31 4t-55 4q-15 0 -23 1q-12 1 -16 -3q10 -21 10 -84z" />
    <glyph glyph-name="K" unicode="K" 
d="M1057 1266q-18 -34 -68 -98q-46 -59 -110 -121q-72 -68 -130 -109q-61 -44 -106 -74q-35 -22 -102 -63q-77 -46 -142 -82q35 -20 62 -35q24 -13 65 -41q69 -46 127 -100q51 -47 90 -86q30 -32 79 -88q50 -57 93 -129q25 -42 42 -77q25 -51 35 -76q20 -48 25 -63
q9 -27 9 -42q0 -36 -27 -54t-67 -18q-44 0 -61 16q-16 14 -27 47q-8 23 -22 77q-12 46 -42 108q-34 69 -71 118q-42 57 -68 84q-32 34 -81 73q-52 41 -118 79q-59 33 -113 55q-58 24 -89 31q-12 -84 -15 -110q-8 -81 -11 -116q-6 -80 -8 -115q-3 -57 -3 -101v-48
q0 -16 2 -38q-5 -37 -28 -57q-24 -21 -58 -21q-36 0 -65 19t-29 63q0 32 6 97q7 75 16 142q11 81 24 161q19 118 27 155q-26 29 -26 80q0 17 9 24q16 13 25 19l23 6q4 20 16 70t18 78q21 93 48 192q50 179 53 190q23 86 39 133q12 24 32 36q18 11 42 11q40 0 70 -27t30 -59
l-19 -57q-37 -109 -48 -140q-44 -127 -61 -180q-29 -90 -54 -178q70 33 146 74q70 38 116 68q35 23 97 75q63 53 114 109q54 58 82 108q33 57 43 87q6 16 22 19q17 3 33 3q41 0 77 -21t36 -57v-13q0 -8 -4 -13z" />
    <glyph glyph-name="L" unicode="L" horiz-adv-x="770" 
d="M487 1337q-70 -150 -126 -289q-54 -134 -95 -290q-39 -146 -57 -304q-18 -156 -12 -331q46 0 121 8q65 7 145 20q22 4 70.5 11.5t74.5 11.5q90 15 125 19q23 -2 31 -30q8 -29 8 -57q0 -21 -6 -35t-21 -14q-75 0 -150 -17q-85 -19 -157 -40q-79 -23 -153 -46
q-77 -24 -142 -36q-37 0 -49 29q-31 5 -53 22q-23 19 -25 58q6 61 11 140q6 98 22 198q27 176 44 268q26 141 55 260q31 125 74 257q39 117 100 261q11 23 31 33t42 10q41 0 70 -24t29 -60q0 -12 -7 -33z" />
    <glyph glyph-name="M" unicode="M" horiz-adv-x="1300" 
d="M1343 1343q-36 -65 -65 -163q-27 -89 -49 -198q-21 -104 -33 -208q-12 -107 -18 -192q-4 -66 -9 -167q-3 -66 -7 -198q-2 -59 -4 -181q-1 -55 -1 -122q-6 -40 -30 -54q-25 -14 -58 -14t-63 14t-31 54q12 96 21 210q2 29 9 108.5t10 124.5q12 160 19 239q9 99 23 227
q-92 -159 -160 -270q-84 -137 -144 -219q-72 -98 -133 -148q-65 -53 -126 -53q-64 0 -105 42t-66 108q-26 67 -39 147q-15 92 -19 160q-5 78 -6 144q-2 67 -3 104q-20 -75 -40 -181q-17 -89 -31 -194q-11 -83 -20 -196q-7 -91 -7 -183q-6 -36 -32 -50t-60 -14q-35 0 -62 15
q-25 14 -24 53q1 9 4.5 36.5t6.5 45.5q15 102 17 114q2 10 23 130q2 12 10 59.5t13 71.5q4 19 11 59t11 59q7 36 18 91q23 106 32 150q24 118 42 198q25 115 46 191q19 72 34 132q12 29 36 42q25 14 50 14q40 0 67 -24t23 -58q0 -2 -0.5 -9.5t-1 -22.5t-0.5 -30l-5 -133
q-2 -58 -4 -180q-1 -100 0 -204q2 -134 5 -201q5 -111 14 -176q10 -75 27 -122t41 -47q46 0 106 66q58 64 124 168t129 226q61 118 121 244q37 78 99 219q43 98 68 151q22 48 43 75q23 29 63 29h11q30 0 58 -28q27 -27 26 -60q0 -14 -5 -21z" />
    <glyph glyph-name="N" unicode="N" horiz-adv-x="1175" 
d="M1079 1507q59 0 83 -17q26 -19 22 -63q-1 -17 -3.5 -65t-4.5 -72l-9 -127q-7 -103 -10 -134q-6 -66 -12 -157q-22 -290 -62 -521q-39 -223 -131 -359q-19 -25 -49 -53q-34 -31 -90 -31q-32 0 -62 18q-31 19 -56 45t-45 59q-21 34 -32 56q-37 73 -72 167q-29 79 -51 155
q-25 87 -38 142q-11 46 -35 134q-20 69 -43 173q-19 86 -39 192q-11 -42 -21 -85q-7 -31 -19 -89q-3 -17 -8.5 -45.5t-7.5 -35.5q-3 -14 -7 -34.5t-5 -26.5q-5 -35 -15 -107q-8 -60 -18 -145q-13 -108 -17 -156q-3 -32 -11 -141q-2 -40 -2 -57v-43q-4 -37 -29 -55
q-25 -19 -61 -19q-34 0 -62 20q-27 19 -28 58q8 78 20 155q5 31 15.5 99.5t16.5 106.5q22 135 40 238q30 168 46 253q27 145 49 251q27 133 52 232q11 30 35 44q25 14 53 14q67 0 95 -49q28 -48 34 -140q7 -121 32 -266q24 -143 54 -278q28 -128 67 -264q38 -135 70 -221
q36 -99 64 -152q31 -58 51 -58t40 38q19 36 37 97q18 60 33 135q21 104 28 149q10 64 19 141q7 66 9 112q6 122 9 215q3 82 1 169q-1 54 -7 151q-4 74 -15 159q5 54 30 69q24 14 72 19z" />
    <glyph glyph-name="O" unicode="O" horiz-adv-x="1320" 
d="M1341 868q0 -176 -56 -334q-58 -164 -179 -311q-68 -82 -140 -141q-79 -65 -124 -92q-16 -10 -60 -33q-41 -21 -77 -35q-32 -12 -95 -27q-51 -12 -106 -12q-100 0 -182 33q-84 34 -140 91q-58 59 -89 141q-32 84 -32 184q0 56 12 113q14 66 26 106q14 46 33 89
q18 40 30 69q-19 42 -29 85q-10 44 -10 101q0 97 39 197q45 117 130 196q80 74 173 119q89 43 172 58q88 16 129 16q42 0 108 -8q60 -7 123 -35q106 -45 173 -112q68 -68 105 -143t52 -159q14 -77 14 -156zM209 362q0 -67 20 -126q22 -63 60 -109q40 -48 96 -76t133 -28
q78 0 146 28q69 29 108 51q36 21 101 78q64 57 116 129q91 124 146 281q55 156 55 317q0 127 -43 212t-108 136q-67 53 -139 73q-79 22 -138 22q-63 0 -150 -28q-82 -26 -157 -83q-75 -56 -126 -137q-52 -82 -57 -191q21 31 25 38q13 21 27 38q39 55 103 138q43 56 75 94
q10 10 20 13t21 3q34 0 66 -29t32 -61q0 -21 -16 -41q-29 -24 -80 -80q-61 -66 -105 -123q-26 -33 -62 -84q-31 -45 -52 -80q26 -32 56 -50q29 -17 52 -25q44 -17 76 -44q29 -24 29 -53q0 -30 -19 -46q-18 -15 -45 -21q-25 -6 -55 -4q-25 1 -49 10q-51 16 -119 80
q-16 -45 -30 -106q-13 -56 -13 -116z" />
    <glyph glyph-name="P" unicode="P" horiz-adv-x="1208" 
d="M63 1219q34 24 109 62q80 41 164 73q20 53 31 78q4 10 12 29.5t12 27.5q15 27 37 39t45 12q47 0 74 -34t16 -81q64 18 123 26q63 9 129 9q74 0 144 -22q74 -23 131 -68t90 -113q32 -66 26 -157q-7 -93 -41 -177q-37 -91 -75 -151q-46 -71 -90 -118q-55 -59 -83 -81
q-23 -19 -72 -52q-36 -25 -100 -56q-57 -28 -120 -45q-70 -19 -138 -19q-117 0 -166 33q-51 34 -47 72q1 19 16 40q16 23 29 35q16 14 35 24q18 9 33 9q7 0 20 -7q15 -8 33 -16q24 -10 48 -17q25 -7 61 -7q39 0 86 13q43 12 81 30q35 17 70 39q36 23 54 37q28 22 58 56
q28 32 61 83q32 49 52 104t25 118q12 132 -63 195q-77 65 -203 65q-77 0 -146 -12q-72 -12 -147 -40q-29 -68 -58 -141q-36 -91 -57 -149q-18 -48 -49 -140q-22 -65 -34 -108q-14 -45 -31 -138q-16 -86 -27 -186q0 -5 -5 -74q-4 -58 -5 -87q-2 -57 -1 -81q2 -45 5 -61
q5 -28 14 -53q4 -11 16 -35q5 -10 11 -26q4 -11 4 -25q-2 -13 -9 -32q-6 -17 -20 -37q-12 -17 -29 -29q-21 -14 -40 -15q-37 0 -63 32q-25 31 -42 86q-15 50 -20 126q-4 68 2 154q6 63 18 138q12 73 27 145q26 121 28 131q17 75 23 95q7 27 23 79q5 15 15 50t16 55
q27 86 38 117q23 66 39 115q-49 -31 -63 -41q-7 -5 -17.5 -12t-16 -11t-9.5 -7q-18 -9 -29 -9q-34 0 -70 22q-35 21 -30 60q5 36 32 56z" />
    <glyph glyph-name="Q" unicode="Q" horiz-adv-x="1388" 
d="M1053 -352q0 -44 -14 -77q-14 -32 -56 -28q-68 4 -129 35q-55 28 -105 79q-45 47 -78 109q-31 59 -46 125q-16 -3 -58 -10q-25 -4 -61 -4q-96 0 -180 32q-82 31 -141 90q-58 58 -91 141q-33 82 -33 184q0 59 12 116q15 73 26 108q15 50 33 90q23 53 32 69q-18 43 -30 90
q-11 43 -11 96q0 57 10 104q10 49 29 97q49 123 133 199q85 78 174 119q90 42 173 57q88 16 130 16q165 0 276 -60q114 -61 179 -150q68 -92 96 -199q29 -110 29 -202q0 -182 -61 -345q-60 -160 -179 -308q-100 -124 -193 -186q-90 -60 -149 -92q18 -98 68 -145
q49 -46 135 -46q47 0 63 -23q17 -25 17 -81zM211 358q0 -154 76 -246q77 -94 241 -94q41 0 88 13q4 65 27 131q22 63 50 117q23 44 56 82q27 32 46 32q29 0 51 -29t22 -53q0 -15 -6 -22q-8 -8 -25 -30q-19 -25 -31 -45q-18 -30 -28 -57q-13 -33 -14 -65l12 6q43 24 103 78
q61 55 116 131q47 64 83 132q38 72 65 149q25 73 41 158q14 76 14 161q0 129 -44 215q-44 87 -110 138q-65 50 -141 71t-139 21q-36 0 -111 -13q-69 -12 -155 -65q-94 -59 -160 -156q-66 -96 -66 -209l54 80q49 76 102 139q52 63 74 95q22 16 45 16q35 0 66 -28
q30 -27 30 -60q0 -29 -16 -45q-33 -31 -60 -60q-29 -32 -79 -92q-46 -55 -85 -107q-33 -44 -75 -110q30 -36 58 -50q34 -17 52 -23q49 -23 75 -47q28 -25 28 -56q0 -24 -23 -47q-22 -22 -72 -22q-38 0 -85 19q-44 18 -107 73q-16 -46 -30 -107q-13 -58 -13 -119z" />
    <glyph glyph-name="R" unicode="R" horiz-adv-x="1212" 
d="M78 1212q41 25 103 60q72 41 153 74q33 100 55 143t72 43q40 0 67 -27t27 -61q0 -17 -2 -27q67 21 137 33q72 12 150 12q69 0 140 -20q76 -21 138 -64q65 -45 106 -109q42 -66 42 -159q0 -150 -47 -261q-46 -109 -125 -186q-79 -78 -176 -126q-103 -51 -203 -80
q4 -3 18 -14.5t22 -18.5q7 -6 21.5 -18t21.5 -18q21 -18 39 -33q5 -4 14 -12t13 -11q44 -42 88 -95q70 -84 103 -128q48 -64 85 -121q36 -56 36 -72q0 -14 -13 -34q-10 -15 -30 -30t-40 -22q-22 -8 -42 -8q-30 0 -41 20q-12 28 -39 84q-29 60 -64 113q-36 54 -78 106
q-30 36 -65 76q-19 19 -49 43q-31 25 -68 50q-46 31 -78 49q-35 19 -84 38q-93 11 -130 40q-38 30 -38 61q0 13 11 35q10 20 25 38q16 19 35 31q21 13 38 13q6 0 24 -9l36 -18q23 -11 50 -19q29 -8 62 -8q93 0 179 39q85 39 152 106q65 65 109 153q43 87 54 184
q0 135 -72 204q-73 70 -209 70q-82 0 -149 -11q-75 -12 -175 -57q-5 -15 -23.5 -63.5t-28.5 -77.5q-43 -121 -52 -150q-31 -95 -44 -141q-23 -76 -28 -108q-2 -9 -13 -74q-6 -35 -13 -94q-7 -64 -11 -107q-4 -49 -4 -108q0 -74 11 -127q11 -55 23 -85q12 -31 24 -53
q10 -19 10 -34q0 -11 -5 -31q-5 -18 -17 -37q-15 -22 -27 -32q-17 -13 -39 -15q-36 0 -64 31q-26 29 -43 83q-17 52 -24 120q-8 72 -8 143q0 68 7 128q9 80 17 124q9 53 21 110q12 60 18 86q3 15 19 77q24 93 26 100q5 19 15.5 56.5t15.5 54.5q16 59 33 114q-57 -37 -73 -53
q-21 -21 -44 -21q-16 0 -37 6q-17 5 -38 17q-18 10 -29 26q-11 15 -11 35q0 35 27 59z" />
    <glyph glyph-name="S" unicode="S" horiz-adv-x="1052" 
d="M1014 1155q4 21 -1 50q-4 23 -24 45q-19 20 -51 32q-33 12 -82 12q-60 0 -127 -22q-64 -21 -141 -61q-67 -35 -141 -88q-66 -47 -121 -107q-54 -59 -85 -119q-32 -62 -32 -119q0 -47 32 -85t68 -58q45 -23 141 -35q90 -11 224 -41q36 -9 97 -29q56 -19 104 -52
q47 -33 82 -83q34 -49 34 -116q0 -53 -16 -94q-15 -38 -41 -74q-22 -30 -52 -57q-21 -19 -48 -38q-100 -71 -217 -100q-116 -29 -222 -29q-111 0 -181 27q-74 28 -113 63q-42 37 -58 77q-16 39 -16 65q0 19 10 32q11 15 24 21q17 8 30 11q15 3 26 3q33 0 52 -30
q16 -24 42 -68q17 -25 69 -50q54 -26 121 -26q61 0 145 19q78 18 146 51t114 79t46 101q0 34 -33 59q-32 24 -84 46q-46 19 -115 35q-91 21 -127 28q-21 4 -60 11.5t-58 11.5q-64 12 -90 20q-30 7 -68 32q-39 25 -70 59q-32 35 -55 84q-22 47 -22 110q0 86 37 170
q39 88 97 164q59 77 141 145t169 117q89 50 178 78q88 28 172 28q104 0 167 -30q60 -29 95 -78q33 -46 42 -104q10 -63 10 -105q0 -47 -15 -74q-15 -28 -35 -39q-21 -12 -41 -15q-21 -3 -34 -3q-41 0 -47 32q-6 36 8 111z" />
    <glyph glyph-name="T" unicode="T" horiz-adv-x="1050" 
d="M125 1053q-30 11 -38 20q-9 11 -5 43q2 29 22 54q24 29 51 48t60 37q30 17 51 27q68 32 123 53q60 23 131 45v2q12 36 37 51q24 15 53 15q46 0 68 -27l24 6q51 12 106 16q67 5 122 5q48 0 99 -8q43 -7 87 -22q40 -14 62 -33t20 -42q0 -18 -10 -28q-11 -11 -24 -17
q-12 -6 -27 -7q-10 -1 -23 -1q-8 0 -50 17q-39 16 -124 16q-74 0 -140 -12q-65 -12 -130 -35q-31 -97 -86 -262q-41 -124 -68 -228q-29 -112 -48 -226q-21 -124 -28 -255q-6 -94 1 -148q7 -57 19 -90q15 -42 21 -53q11 -19 11 -37q0 -10 -8 -31q-8 -22 -20 -36
q-14 -17 -32 -29t-41 -12q-37 0 -61 38q-24 37 -39 90q-14 50 -19 107q-4 48 -2 89q7 110 31 247q24 134 52 256q35 149 64 260q27 104 64 261q-49 -21 -86 -40q-33 -17 -57 -36q-11 -8 -34 -29q-24 -22 -33 -31q-10 -10 -28 -24q-13 -10 -20 -10t-14 -1q-14 -2 -25 -2
q-5 0 -14.5 1.5t-12.5 1.5q-16 2 -32 6z" />
    <glyph glyph-name="U" unicode="U" horiz-adv-x="1181" 
d="M1149 1235q10 -72 19 -154q8 -81 11 -138q3 -59 1 -131q-1 -44 -9 -128q-18 -210 -78 -369q-60 -158 -156 -268q-95 -109 -222 -164q-126 -55 -277 -55q-129 0 -210 45q-80 44 -124 122q-43 76 -55 178q-12 104 -2 216q7 90 30 210q15 78 46 209q15 62 49 191
q27 99 41 160q18 75 20 82q11 42 25 68q15 28 34 46q18 17 46 17q44 0 73 -23q30 -24 25 -65q-5 -35 -18 -67t-31 -95q-17 -58 -48 -148q-27 -79 -58 -189q-38 -136 -54 -207q-25 -110 -32 -205q-6 -81 2 -158q7 -71 39 -128q30 -54 86 -86t143 -32q123 0 221 55
q97 54 164 150q68 96 108 225q42 135 54 281q10 119 5 246q-4 112 -34 258q-18 88 -36 138q-23 63 -32 83q-8 18 -21 54q-7 19 -5 50q5 31 33 52q27 20 59 20q33 0 56 -10q24 -11 42 -46q19 -38 35 -105q18 -77 35 -185z" />
    <glyph glyph-name="V" unicode="V" horiz-adv-x="995" 
d="M201 1473q74 -51 108 -166q33 -113 33 -240q0 -101 -8 -219q-4 -65 -21 -227q-12 -117 -27 -243q-14 -120 -30 -263q68 49 135 110q84 76 147 141q78 81 137 154q63 77 105 154q72 130 120 290q48 159 48 326q0 65 -10 104t-10 60q0 35 26 68q27 34 74 34q56 0 77 -55
q21 -56 21 -160q0 -101 -22 -207q-23 -111 -55 -208q-32 -96 -71 -186q-35 -80 -71 -142q-19 -35 -48 -77q-45 -66 -66 -93q-39 -52 -80 -101q-48 -58 -92 -102q-16 -17 -35.5 -36t-43.5 -43l-37 -37q-56 -56 -121 -108q-64 -51 -117 -79q-59 -31 -105 -31q-52 0 -79 36
q-28 37 -28 77q14 40 31 109q17 67 30 142q10 56 25 158q18 122 22 154q10 85 14 133q5 67 5 93v81q0 51 -3 111q-2 37 -8 119q-4 55 -14 106q-9 46 -26 77q-16 30 -39 28q-10 12 -18 35q-8 24 -8 51q0 31 13 60q14 30 58 30q16 0 31 -4q19 -5 33 -14z" />
    <glyph glyph-name="W" unicode="W" horiz-adv-x="1830" 
d="M203 1516q33 -21 63 -69q24 -39 44 -97q19 -54 26 -116q8 -67 8 -124q0 -200 -18 -403t-39 -420q52 97 99 202q47 107 92 222l87 225q55 141 86 217q11 23 28 32q18 9 38 9q66 0 91 -43q26 -44 26 -107q0 -31 -9 -94q-8 -56 -8 -131q0 -111 27 -248q28 -142 86 -274
q28 -64 78 -132q46 -62 102 -109q52 -44 115 -72q60 -27 114 -27q70 0 127 54q58 55 99 144q41 90 62 201q22 118 22 230q0 145 -17 275t-49 239q-22 80 -50 150q-20 49 -45 109q-24 58 -32 80q-12 35 -12 62q0 31 34 49q36 19 64 19q32 0 59 -22t50 -70q24 -49 48 -129
q23 -77 54 -197q31 -125 44 -260q13 -134 13 -270q0 -169 -37 -317q-36 -144 -108 -277q-20 -38 -55 -85q-29 -39 -71 -70q-38 -28 -91 -47q-51 -18 -117 -18q-53 0 -101 15q-52 16 -95 37q-119 58 -203 154q-88 101 -145 214q-58 116 -93 242q-33 120 -49 240
q-38 -78 -56 -116l-15 -32.5t-15.5 -33t-11.5 -23.5q-19 -43 -65 -135q-57 -114 -87 -173q-81 -159 -85 -167q-36 -69 -58 -117q-23 -29 -62 -29q-57 0 -93 36t-36 85q18 49 35 119q20 85 35 186q17 111 27 186q11 75 15 145q6 92 7 152q2 108 2 201q0 105 -8 175
q-8 67 -21 107q-14 41 -28 58q-21 25 -28 33q-14 16 -21 31q-8 18 -8 49q0 29 13 58q13 30 56 30q16 0 32 -4q20 -5 34 -14z" />
    <glyph glyph-name="X" unicode="X" horiz-adv-x="1257" 
d="M1286 1380q-139 -166 -329 -379q-151 -169 -341 -395q4 -5 21.5 -28.5t25.5 -35.5q14 -21 46 -65q17 -24 56 -68q26 -30 77 -79q33 -36 85 -85q44 -41 83 -71q44 -34 71 -51q33 -21 54 -27q28 -16 40 -44q11 -24 9 -62q-1 -27 -25 -52q-23 -24 -63 -24q-37 0 -85 30
q-53 33 -103 79q-54 49 -110 110q-48 52 -109 125q-48 57 -97 123q-70 94 -76 102q-74 -93 -135 -181q-79 -115 -114 -173q-53 -88 -84 -149q-32 -63 -44 -109q-37 -82 -108 -82q-32 0 -56 24t-20 76q2 54 51 142q47 85 121 189q75 107 154 204q115 142 151 186
q-42 65 -78 131q-39 72 -69 156q-27 75 -40 130q-18 77 -26 121q-11 59 -15 102q-4 45 -9 73q4 60 34 85q31 26 72 26q68 0 84 -88q0 -41 1 -69q2 -42 6 -93q4 -49 17 -109q14 -66 29 -114q39 -115 99 -222q23 29 88 107q53 63 111 135q4 5 121 147q55 67 117 146
q34 43 97 126q46 60 66 91q41 47 92 47q35 0 60 -24t24 -62q-5 -34 -27 -72z" />
    <glyph glyph-name="Y" unicode="Y" horiz-adv-x="1193" 
d="M500 1348q0 -31 -23 -72q-23 -42 -45 -100q-80 -202 -133 -397q-49 -181 -88 -378q-11 -59 -18 -111q-9 -68 -9 -110q0 -58 11 -80q10 -20 20 -20q25 0 60 16q39 18 78 43q43 27 85 61q61 48 84 68q47 39 107 101q60 61 120 135t117 159q59 89 101 171q13 57 30 122
q19 71 41 143q26 82 49 143t55 126q25 51 55 88q27 33 54 33q109 -2 109 -105q0 -22 -9 -56q-9 -33 -32 -75q-74 -136 -127 -272q-49 -125 -88 -272q-36 -136 -64 -300q-21 -126 -53 -356q-8 -63 -17 -108q-13 -67 -34 -132q-23 -72 -58 -138q-34 -65 -91 -122
q-55 -55 -130 -89q-73 -33 -178 -33q-75 0 -132 12q-61 13 -91 22q-49 15 -70 42q-20 26 -20 51q0 30 23 60q24 32 55 32q20 0 43 -15q12 -8 52 -30q29 -16 68 -30q36 -13 91 -13q93 1 154 49q61 47 97 121q34 70 53 164q14 72 27 178q2 13 4 29t5 36.5t5 32.5q10 70 16 105
q14 80 17 101q3 18 7 47t6 40q-29 -47 -63 -93q-41 -56 -68 -87q-40 -47 -69 -76q-51 -51 -60 -59q-31 -29 -99 -85q-48 -40 -105 -76q-51 -33 -110 -55q-53 -20 -110 -20q-51 0 -82 20q-33 21 -54 51q-23 32 -32 59q-7 20 -14 48q-9 38 -10 64q-1 20 -1 59q0 61 7 110
q11 75 14 103q15 102 36 201q19 92 48 198q33 122 59 203q40 123 68 215q44 119 82 164q39 47 77 47q61 0 79 -35t18 -73z" />
    <glyph glyph-name="Z" unicode="Z" horiz-adv-x="1193" 
d="M143 1198q-8 18 -8 39q0 30 17 59t47 41q61 13 133 25q34 6 122 19q5 1 126 20q14 2 145 22q25 4 99 17q103 19 115 21q61 13 103 25q50 15 66 25q20 0 34 -11q15 -12 27 -30q13 -20 19 -41q6 -23 6 -43q0 -23 -16 -51q-16 -27 -58 -57q-146 -106 -273 -243
q-133 -142 -243 -293q-116 -158 -216 -328q-93 -157 -189 -346q92 33 218 66q114 30 230 30q71 0 151 -6q69 -5 143 -19q65 -12 107 -33t42 -51q0 -33 -26 -57q-27 -25 -48 -25q-1 0 -4 1t-9.5 3.5t-11.5 4.5q-28 10 -55 17q-38 10 -82 17q-56 9 -104 9q-151 0 -293 -43
q-143 -43 -267 -140q-28 -16 -47 -16q-22 0 -37 14q-22 -26 -53 -26q-27 0 -43 19t-16 54q0 20 11 54q10 32 30 88q18 51 45 111q35 78 57 124q58 121 150 272q83 138 183 277q104 146 199 263q114 141 197 229q-99 -27 -144 -37q-76 -18 -156 -39q-73 -19 -155 -45
q-65 -21 -147 -56q-16 -6 -31 -6q-29 0 -53 21q-26 22 -37 55z" />
    <glyph glyph-name="bracketleft" unicode="[" horiz-adv-x="786" 
d="M485 -524q-29 0 -69 -6q-38 -6 -85 -17q-58 -14 -85 -23q-46 -15 -70 -28q-18 -29 -53 -29q-31 0 -55 27q-25 28 -25 80q45 230 72 478q27 249 39 504t15 509t3 497q0 55 27 85t57 30q20 0 37 -12q48 -18 62 -21q39 -10 62 -13q39 -6 69 -8q38 -3 92 -3q22 0 64 2
q30 1 46 8q22 5 29 -13q8 -20 7 -40q-2 -25 -11 -44q-11 -23 -27 -24q-7 -1 -32 -5.5t-43 -7.5q-53 -10 -89 -11q-61 -5 -101 -6q-42 -1 -87 -3q-1 -24 -5 -133.5t-6 -161.5q-2 -50 -6 -133t-5 -113q-4 -113 -12 -217q-3 -36 -7.5 -105t-6.5 -103q-8 -105 -18 -216
q-4 -46 -20 -245q-13 -141 -16 -209q-4 -78 -11 -164q47 0 75 1q54 2 80 4q40 3 68 6q29 3 41 8q14 0 25 -19q10 -18 12 -41q2 -24 -4 -42q-6 -19 -20 -23h-13z" />
    <glyph glyph-name="backslash" unicode="\" horiz-adv-x="1196" 
d="M514 610q-60 98 -128 197q-88 128 -132 191q-40 57 -127 191q-60 93 -111 191q-10 18 -12 39q-2 24 2 37q6 38 30 60q23 22 58 22q23 0 30 -10q3 -4 23 -37q6 -11 25 -43.5t32 -54.5q11 -19 88 -150q50 -84 105 -177q21 -36 59.5 -99l49.5 -81q19 -31 51.5 -85t45.5 -75
q36 -59 73 -116q46 -77 79 -134q50 -88 88 -160q49 -92 85 -169q38 -79 70 -162q26 -67 44 -138q15 -60 9 -95q-11 -47 -24 -68q-14 -22 -42 -22q-34 0 -52 21q-17 20 -28 61q-1 27 -20 87q-17 54 -50 135q-23 55 -73 165q-38 83 -84 175q-51 102 -86 166q-27 49 -78 138z
" />
    <glyph glyph-name="bracketright" unicode="]" horiz-adv-x="786" 
d="M301 1481q29 0 70 6q48 7 85 16q47 11 85 24q48 16 69 27q18 29 54 29q31 0 55 -27t24 -79q-46 -229 -72 -479q-27 -259 -38 -503q-13 -283 -16 -510q-3 -255 -3 -497q0 -56 -26 -85q-27 -30 -58 -30q-20 0 -36 13q-37 13 -64 20q-37 10 -60 13q-54 8 -71 9q-39 3 -90 3
q-23 0 -65 -2q-27 -1 -46 -9q-20 -4 -28 14q-9 22 -8 40q1 22 12 43q10 20 26 24q64 12 75 14q53 10 89 11q35 3 102 5q42 1 87 3q5 190 10 295q10 229 11 247q4 113 12 217q10 138 15 208q11 157 16 216q3 33 6.5 72t8 90t7.5 82q10 116 15 209q4 78 11 164q-49 0 -76 -1
q-52 -2 -79 -4q-39 -3 -69 -6q-31 -3 -40 -7q-17 0 -26 18q-10 19 -11 41q-2 23 3 42q4 19 22 24h12z" />
    <glyph glyph-name="asciicircum" unicode="^" horiz-adv-x="821" 
d="M408 1481q27 0 64 -16q33 -14 44 -38q31 -85 46 -123q26 -66 54 -126q46 -98 77 -143q30 -44 30 -50q0 -18 -17 -29q-18 -12 -42 -12q-35 0 -54 25l-204 354l-28.5 -47.5t-34.5 -58.5q-44 -78 -59 -105q-10 -19 -27.5 -48.5t-22.5 -38.5q-6 -12 -16.5 -31t-14.5 -25
q-19 -25 -53 -25q-24 0 -42 12t-18 29q0 7 30 50q31 45 77 143q29 60 54 126q15 38 46 123q7 22 37 38t74 16z" />
    <glyph glyph-name="underscore" unicode="_" horiz-adv-x="925" 
d="M57 -172q12 -3 41 -5q39 -2 56 -5q184 -10 366 -9q192 2 373 13q23 -4 33 -24q10 -19 4 -48q-6 -23 -22 -49q-14 -23 -42 -27q-11 3 -40 5q-25 1 -58 6q-178 10 -359 9q-190 -2 -376 -13q-23 5 -32 25t-1 50q5 30 17 48q14 20 40 24z" />
    <glyph glyph-name="grave" unicode="`" 
d="M606 1255q-8 11 -8 25q0 29 32 53q33 25 64 25q19 0 37 -15q38 -52 82 -96q41 -41 74 -68q40 -33 53 -42l21 -15q0 -23 -21 -44t-43 -21q-6 0 -26 13q-8 5 -26.5 17.5t-28.5 18.5q-29 19 -77 52q-32 22 -86 63z" />
    <glyph glyph-name="a" unicode="a" horiz-adv-x="960" 
d="M920 623q-13 -23 -40 -87q-28 -65 -52 -138q-26 -79 -45 -161q-19 -83 -19 -161q0 -39 8 -58q8 -18 35 -18q25 0 42 13q19 14 30 14q20 0 33 -19q12 -18 12 -41q0 -11 -8 -32q-8 -19 -24 -36q-19 -19 -47 -30q-30 -12 -75 -12q-38 0 -65 18t-42 47q-16 31 -22 67
q-6 38 -6 74q0 61 12 124q2 9 11 56.5t14 73.5q-44 -65 -113 -143q-60 -68 -135 -131q-33 -27 -85 -61q-44 -29 -110 -29q-56 0 -93 29q-35 28 -56 68q-20 39 -28 85q-7 42 -7 78q0 79 27 168q28 93 71 174q44 83 106 164q56 73 128 137q66 59 138 94t138 35q57 0 92 -21
q34 -21 55 -50q18 -26 25 -55q6 -27 6 -40q0 -53 -25 -65q-28 -13 -54 -13q-21 0 -37 14q-13 12 -26 28q-2 2 -10 13t-13 16q-12 13 -27 13q-6 -1 -16.5 -2.5t-15.5 -1.5q-15 -1 -36 -12q-46 -22 -111 -79q-69 -61 -128 -139q-62 -82 -105 -178t-43 -198q0 -63 18 -95
t31 -32q54 0 109 37q59 40 108 93q52 56 100 124q52 72 86 129q40 66 65 110q22 40 40 64q22 30 32 45q15 23 46 23q37 0 70 -24t33 -52q0 -8 -2 -14z" />
    <glyph glyph-name="b" unicode="b" horiz-adv-x="991" 
d="M494 1368q-26 -42 -59 -124q-34 -85 -64 -189q-32 -112 -50 -206q-22 -113 -30 -161q0 -2 -4.5 -30t-8.5 -49q-8 -48 -21 -115q-8 -45 -20 -129q-10 -76 -14 -121q19 33 59.5 102.5t60.5 103.5q63 108 140 214q70 95 151 167q77 68 150 68q47 0 86 -28q38 -27 62 -71
q25 -45 37 -98t12 -104q0 -68 -25 -151q-23 -77 -67 -154q-46 -81 -99 -145t-120 -120q-64 -54 -129 -83q-68 -31 -127 -31q-67 0 -98 34t-31 66q0 35 16 45q17 11 37 11q16 0 38 -10q20 -9 32 -9q38 0 87 26q51 27 98 67q49 42 96 99q45 55 83 116q35 56 59 123
q23 64 23 118q0 46 -9 74q-9 29 -21 44q-13 17 -22 20q-13 5 -16 5q-24 0 -53 -19q-31 -20 -61 -50q-76 -75 -143 -172q-71 -103 -126 -202q-54 -97 -100 -187q-23 -44 -63 -131q-18 -41 -46 -61q-26 -19 -57 -19t-57 26q-27 27 -17 72q8 34 14 79q3 20 14 118q8 70 15 139
q3 26 9 74.5t8 68.5q8 77 15 130q6 48 14 102q10 65 11 72q2 12 7.5 43.5t8.5 49.5q9 50 21 105q4 19 11.5 56t11.5 55q25 104 57 207t52 145q12 24 34 35q20 10 42 10q40 0 66 -26t26 -58q0 -19 -6 -37z" />
    <glyph glyph-name="c" unicode="c" horiz-adv-x="851" 
d="M762 598q-39 0 -59 14q-21 15 -21 43q0 17 6 36t6 36q0 46 -34 70t-70 24q-102 0 -180 -63q-77 -62 -130 -155q-54 -94 -80 -193q-28 -106 -28 -181q0 -26 5 -64q4 -33 20 -63q17 -31 36 -47q23 -18 60 -18q74 0 130 25q55 25 98 66q45 43 74 85q28 40 58 85q25 37 52 66
q24 25 53 25q23 0 38 -15t15 -46q0 -17 -17 -52q-15 -32 -50 -83q-38 -57 -77 -99q-47 -51 -105 -93q-61 -44 -128 -70q-69 -27 -147 -27q-87 0 -139 40t-79 94q-28 57 -37 113q-9 59 -9 95q0 74 21 157q21 84 61 162q40 79 95 152q52 70 121 126q67 55 141 86q76 32 154 32
q42 0 86 -15q43 -15 79 -42q37 -28 59 -67q22 -40 22 -92q0 -62 -14 -90q-16 -33 -32 -43q-17 -11 -34 -13q-11 -1 -20 -1z" />
    <glyph glyph-name="d" unicode="d" 
d="M1108 1354q-49 -109 -103 -264q-55 -156 -95 -309q-39 -149 -68 -316q-27 -158 -27 -289q0 -49 5 -94q4 -37 14 -51q20 -10 38 -4q21 7 35 16l33 20q17 11 33 11q28 0 45 -14q16 -13 8 -42q-6 -21 -25 -47q-17 -23 -44 -45q-25 -20 -58 -34q-32 -13 -65 -13q-60 0 -92 30
q-33 32 -47 69q-16 42 -17 82q-2 56 -2 67q0 45 3 89q4 58 7 87q-43 -63 -120 -152q-69 -80 -142 -143q-43 -36 -90 -65q-51 -31 -115 -31q-51 0 -86 26t-55 65q-21 41 -30 88q-9 48 -9 93q0 124 45 233q44 108 113 198q70 92 146 155q80 67 144 100q38 21 79 36
q45 16 108 16q45 -5 76 -23q30 -18 49 -43q4 15 11 43t9 35q14 53 25 88q34 123 63 228q31 116 45 159q11 35 35 50q26 16 49 16q34 0 61 -16q25 -15 25 -52q0 -9 -5 -27q-4 -14 -9 -26zM762 713q-32 -10 -48 -4q-17 7 -26 17q-12 14 -19 23q-8 11 -28 11q-71 0 -154 -62
q-80 -60 -150 -151q-68 -89 -114 -193q-45 -102 -45 -184q0 -19 3 -40q3 -22 9 -41q6 -18 16 -32q9 -12 21 -12q25 0 59 21q35 21 72 54q43 38 80 75q45 45 76 84q35 42 79 96q37 47 66 94q35 58 57 108q25 56 46 136z" />
    <glyph glyph-name="e" unicode="e" horiz-adv-x="817" 
d="M604 961q37 0 69 -17q31 -16 54 -44q23 -27 36 -61q13 -33 13 -71q0 -60 -24 -115q-22 -51 -59 -104q-41 -58 -67 -87q-12 -13 -30 -33.5t-25 -27.5q-24 -27 -49 -49q-31 -29 -77 -60q-43 -29 -95 -51q-53 -22 -106 -22q-31 0 -56 7q-27 7 -47 22q-2 -28 2 -61
q4 -36 21 -74q16 -37 49 -64q32 -26 88 -26q30 0 66 10q103 29 155 72t85 90q10 15 29 41.5t27 37.5q24 35 64 45q30 6 47 -1q19 -8 19 -44q0 -16 -12 -45q-15 -36 -31 -62q-18 -29 -47 -67q-22 -28 -56 -59q-67 -58 -152 -102q-87 -45 -184 -45q-76 0 -125 23
q-53 25 -84 59q-33 36 -51 79q-19 46 -26 82q-9 46 -10 68q-1 19 -1 37q0 139 59 271t146 229q89 99 192 159t193 60zM627 758q0 26 -19 34q-17 7 -43 2q-22 -4 -51 -17q-9 -4 -45 -19q-53 -26 -100 -68q-44 -39 -81 -89q-35 -47 -63 -98q-26 -47 -45 -97q14 6 24 1
q8 -4 15 -15q6 -9 14 -17t23 -8q32 0 65 13q28 11 63 32q26 16 54 40q32 28 41 37q3 3 40 49q23 29 49 69q21 32 41 78q18 40 18 73z" />
    <glyph glyph-name="f" unicode="f" horiz-adv-x="575" 
d="M94 700q72 25 152 41q8 33 22 108q3 13 28 133q13 61 35 144q21 80 46 142q45 110 128 183q84 73 191 73q59 0 99 -20q36 -18 62 -47q24 -26 33 -58q9 -30 9 -51q0 -52 -26 -73q-27 -22 -48 -22q-51 0 -66 20q-16 20 -20 44q-6 30 -11 44q-7 19 -44 19q-69 0 -109 -38
q-39 -38 -66 -115q-28 -82 -53 -195q-19 -87 -67 -272q70 12 141 22q33 5 82 15q26 0 47 -24t21 -48q0 -13 -9 -25t-32 -12q-39 0 -112 -16q-44 -10 -173 -39q-27 -112 -44 -191q-21 -99 -38 -206q-20 -130 -35 -265q-12 -110 -24 -181q-12 -69 -32 -103q-19 -33 -62 -33
q-36 0 -65 23q-30 24 -13 77q15 46 31 133q4 22 18 96.5t23 120.5q9 47 26 136.5t21 112.5q20 106 49 233q-26 -13 -44 -19q-13 -4 -26 -4q-35 0 -66 21q-32 21 -32 49q0 17 12 35q11 16 41 32z" />
    <glyph glyph-name="g" unicode="g" horiz-adv-x="958" 
d="M874 664l-7 -105q-4 -53 -14 -138q-13 -111 -20 -156q-13 -89 -25 -156q-16 -89 -28 -143q-19 -85 -28 -111q-5 -19 -28 -75q-21 -52 -49 -105q-27 -50 -71 -113q-42 -59 -94 -105q-53 -47 -119 -77q-64 -29 -145 -29q-72 0 -117 23q-47 24 -76 55t-41 62t-12 50
q0 41 19 56q18 14 44 14q34 0 59 -14q29 -16 40 -37q7 -14 28 -35t68 -21q72 0 136 44q62 43 110 106q49 64 79 128q29 60 46 112q23 72 36 171q8 56 27 242q-31 -57 -58 -99q-30 -46 -59 -77q-33 -37 -67 -69t-81 -65q-42 -29 -93 -49t-101 -20q-70 0 -111 32
q-40 31 -61 75q-20 42 -25 87q-5 48 -5 68q0 83 30 179q14 42 49 118q37 79 74 138q43 68 97 136q53 66 110 119q56 52 119 84q61 31 121 31q42 0 67 -14q26 -14 41 -34q16 -20 20 -39q5 -22 5 -27q0 -39 -19 -53q-17 -13 -38 -13q-36 0 -49 12q-15 13 -31 13q-7 0 -15 -2
q-70 -23 -151 -101q-85 -82 -147 -172q-67 -98 -110 -198q-44 -103 -44 -181q0 -19 4 -38q6 -26 11 -40q7 -19 20 -33q12 -14 30 -14q52 0 122 49q71 49 122 115q121 150 172 251q51 100 68 153q0 12 -1 17t-1 16q1 46 28 73t62 27q28 0 50 -25q21 -24 27 -73z" />
    <glyph glyph-name="h" unicode="h" horiz-adv-x="1017" 
d="M528 1421q-23 -63 -52 -134q-34 -82 -70 -195q-73 -226 -113 -436q-42 -218 -49 -429q22 40 35 61l40 67q24 39 40 64q28 44 32 50q7 12 17 28t24.5 38.5t24.5 38.5q42 66 93 125q55 63 113 105q61 44 125 44q49 0 77 -17t41 -43q14 -27 18 -61q4 -31 4 -72q0 -39 -6 -88
q-2 -20 -13 -86q-6 -33 -12 -96q-7 -70 -8 -133q-2 -76 5 -132q7 -62 30 -91q8 -10 17 -11t23 -10q10 -7 20 -24q9 -17 9 -52q0 -32 -32 -52q-33 -21 -72 -21q-17 0 -45 19q-30 21 -58 75q-21 41 -29 88q-7 42 -7 86q0 116 12 233t6 238q-5 48 -10 59q-7 14 -25 9
q-26 -7 -68 -52q-39 -42 -80 -95q-42 -54 -73 -101l-45 -68q-97 -160 -108 -178q-54 -90 -89 -172q-8 -21 -25 -27q-18 -6 -38 -6h-44q-19 0 -34 6q-14 6 -24 22t-11 48q7 151 30 361q20 180 53 374q31 183 77 367q46 183 102 340q10 29 33 42q22 13 47 13q41 0 69 -26
q27 -26 27 -64v-12q0 -8 -4 -17z" />
    <glyph glyph-name="i" unicode="i" horiz-adv-x="489" 
d="M348 899q37 -16 49 -41q12 -24 -6 -65q-35 -66 -54 -126q-4 -12 -18 -56t-22 -68q-27 -88 -46 -177q-22 -105 -28 -223q-4 -34 14 -56q19 -23 42 -24q21 0 35 8q15 8 24 16q19 16 20 17q12 8 27 7q23 0 47 -18t23 -46q0 -2 -10 -22t-31 -38t-59 -34q-33 -14 -87 -12
q-81 5 -121 42q-41 38 -56 90q-15 54 -11 108q5 64 10 100q10 68 32 159q21 91 40 157q26 93 41 139q4 12 16.5 51.5t18.5 56.5q16 41 41 57q23 15 69 -2zM526 1153q-5 -29 -19 -55q-14 -25 -35 -46t-43 -32q-24 -12 -46 -12q-29 0 -47 22t-10 68q15 74 59 106q45 33 90 33
q66 0 51 -84z" />
    <glyph glyph-name="j" unicode="j" horiz-adv-x="534" 
d="M66 698q29 13 55 27q34 19 61 43q35 32 49 50q11 15 34 40q15 16 31 26t40 5q28 -4 53 -17q26 -13 27 -65q0 -36 -5 -116q-4 -57 -16 -160q-16 -129 -23 -181q-12 -84 -27 -184t-28 -169q-20 -105 -26 -132q-4 -19 -25 -93q-16 -55 -41 -122q-24 -63 -56 -124
q-31 -59 -71 -99q-60 -60 -115 -97q-61 -41 -139 -41q-70 0 -118 23q-47 23 -76 53q-28 30 -41 63q-12 31 -12 50q0 30 18 48q17 17 41 17q32 0 58 -16q28 -17 42 -37q12 -17 28 -33q18 -18 58 -18q85 0 140 49q54 48 92 120q35 65 57 148q7 26 35 138q13 51 32 160
q10 55 33 216q14 99 28 229q11 108 13 199q-30 -28 -45 -44q-16 -17 -44 -43q-18 -17 -43 -31q-23 -13 -40 -13q-38 0 -53 26q-14 24 -14 52q0 38 33 53zM504 1147q-4 -27 -20 -55q-15 -27 -34 -46q-21 -21 -43 -32q-26 -13 -47 -13q-29 0 -47 23q-18 22 -10 68
q15 73 55 109t86 36q33 0 51 -24q17 -22 9 -66z" />
    <glyph glyph-name="k" unicode="k" horiz-adv-x="768" 
d="M793 821q-24 -33 -78 -92q-45 -49 -116 -110q-67 -58 -135 -104q-74 -50 -132 -73q10 -28 14 -42q6 -21 21 -48q16 -29 40 -57q27 -32 72 -68q72 -57 144 -99q74 -43 106 -50q24 -12 42 -33q17 -20 17 -49q0 -26 -18 -47t-49 -21q-15 0 -54 17q-37 17 -87 45
q-52 30 -104 69q-51 38 -99 91q-56 60 -75 86q-32 45 -44 64q-18 30 -25 49q-10 28 -14 40q-11 -108 -18 -206q-3 -35 -9 -101t-8 -98q-8 -38 -27 -56t-44 -18q-37 0 -61 27q-23 26 -23 67q26 134 44 254q22 148 39 271q21 145 42 277q21 131 53 267q31 125 56 203
q32 102 50 141q11 25 34 38q19 11 40 11q35 0 55 -23q21 -24 21 -54q0 -18 -6 -39q-30 -48 -61 -131q-33 -89 -62 -197q-32 -117 -56 -239q-26 -127 -42 -255q88 50 163 108q85 66 127 108q57 57 88 96q39 50 48 69q24 29 61 29q31 0 57 -19q27 -20 27 -51q0 -20 -14 -47z
" />
    <glyph glyph-name="l" unicode="l" horiz-adv-x="475" 
d="M555 1403q0 -14 -5 -42q-4 -25 -15 -48q-56 -128 -98 -241q-45 -122 -85 -251q-62 -201 -102 -413q-4 -15 -9 -50q-1 -7 -5 -34t-6 -44q-6 -57 -7 -92q-2 -50 4 -86q6 -39 21 -63q16 -25 43 -25t41 9q11 7 19 18q7 11 15 18q9 9 25 9q23 0 45 -17q21 -17 21 -41
q0 -31 -17 -56q-16 -24 -42 -39q-30 -18 -54 -24q-30 -8 -53 -8q-89 0 -135 58q-45 57 -60 146q-14 85 -5 199q9 104 29 214q19 101 42 191q8 32 20 76.5t15 57.5q36 138 88 294q33 102 86 251q41 117 98 111q36 -5 60 -16q26 -12 26 -62z" />
    <glyph glyph-name="m" unicode="m" horiz-adv-x="1449" 
d="M344 780q-27 -48 -46 -116q-20 -72 -39 -155q-15 -66 -29 -161q-9 -56 -17 -137q68 139 132 286q61 141 136 251q20 30 74 104q40 55 113 102q11 7 20 10q13 5 29 5q19 0 41 -6q23 -7 40 -24q14 -14 24 -34q10 -19 14 -37q6 -26 8 -30q6 -28 6 -58v-57q0 -56 -8 -117
q-3 -20 -9 -57t-8 -55l-28 -228q18 37 48 104q25 56 59 122q27 52 66 117q37 61 68 96q12 12 58 52q33 29 88 29q44 0 67 -20q26 -22 38 -50q14 -31 17 -65q3 -35 3 -63q0 -100 -12 -220q-11 -114 -13 -229q0 -92 10 -128q10 -37 26 -56q17 -20 29 -31q13 -11 19 -51
q5 -18 -11 -40q-15 -21 -54 -21q-52 0 -83 28q-33 30 -49 72t-22 92t-6 92q0 12 5 65q4 46 12 109q8 62 15 129q7 59 10 124q3 56 0 93t-14 37q-12 0 -38 -32q-52 -67 -97 -142q-54 -90 -93 -164q-68 -128 -79 -151q-41 -82 -55 -105q-17 -29 -43 -41q-27 -12 -49 -12
q-31 0 -51 14q-21 15 -17 58q6 53 22 150q11 65 25 161q16 110 21 166q8 90 8 170q0 48 -6 66t-17 18q-9 0 -24 -12q-10 -8 -31 -31q-16 -17 -32 -40q-15 -21 -27 -42q-48 -75 -88 -148q-32 -59 -75 -142q-40 -79 -71 -147q-11 -24 -75 -169q-28 -61 -57 -89
q-28 -26 -87 -16q-26 4 -42 13q-12 7 -17 17q-4 8 -4 20q0 6 -2 22q0 37 4 78q7 75 10 99q8 66 13 102q3 19 8 49.5t6 36.5q2 9 7 41t9 54q4 23 23 125q14 77 25 122q14 60 24 88q4 15 18 20q15 6 31 6q37 0 66 -29q30 -30 30 -57z" />
    <glyph glyph-name="n" unicode="n" horiz-adv-x="921" 
d="M367 840q-12 -18 -32 -73q-14 -39 -34 -111q-17 -60 -30 -117q-12 -49 -19 -95q0 -1 -7 -47q-1 -6 -5 -29.5t-6 -37.5l-9 -75q-4 -37 -6 -67q40 70 141 247q68 119 148 218q6 8 19 23.5t17 20.5q19 24 43 43q25 20 52 33t63 13q50 0 76 -25q26 -24 40 -61q15 -37 16 -72
q2 -50 2 -65q0 -72 -8 -155q-7 -73 -7 -156q0 -95 14 -143q14 -50 29 -71q16 -24 30 -39q13 -14 13 -50q0 -26 -24 -50t-52 -24q-35 0 -66 28q-30 27 -49 73q-20 47 -30 103q-10 54 -10 116q0 97 15 196q16 106 16 182v54q0 30 -11 30q-34 -18 -76 -67q-41 -49 -85 -115
q-40 -61 -86 -140q-28 -48 -80 -144q-56 -103 -66 -122q-35 -66 -43 -79q-6 -13 -21 -17q-13 -4 -36 -4q-51 0 -93 20q-40 19 -40 66q0 32 7 75q8 48 15 112q5 55 16 127q7 45 15 97q1 8 17 97q10 55 24 125q10 48 18 95q7 42 20 77t26 51q16 19 38 19q26 0 43 -10
q21 -12 31 -25q11 -13 19 -30q8 -16 8 -25z" />
    <glyph glyph-name="o" unicode="o" horiz-adv-x="894" 
d="M815 389q-26 -74 -75 -161q-47 -84 -112 -158q-63 -72 -145 -126q-79 -52 -172 -63q-77 -10 -135 15q-55 24 -89 67q-33 41 -48 99q-14 53 -14 112q0 76 17 151t48 157q30 78 71 152q42 75 85 132q39 51 80 92q48 48 77 70q36 28 68 45q29 16 49 16q41 0 58 -35
q16 -34 12 -75q6 2 18 4.5t17 3.5q16 4 41 4q62 0 103 -27q40 -27 62 -66q24 -43 31 -84q8 -46 8 -77q0 -83 -20 -144q-28 -85 -35 -104zM256 29q58 -12 99 -1q44 12 89 42q42 29 77 71q37 44 71 97q29 45 59 103q29 57 45 95q13 30 26 79q13 48 13 103q0 68 -16 94
q-17 27 -39 27q-26 0 -47 -14t-43 -14q-16 0 -34 9t-32 23q-14 13 -20 33q-6 18 2 35q-67 -37 -130 -109q-64 -74 -111 -158q-49 -89 -77 -180t-28 -174q0 -49 9 -79q10 -32 24 -48q16 -18 30 -24q19 -9 33 -10z" />
    <glyph glyph-name="p" unicode="p" horiz-adv-x="1052" 
d="M408 825q-14 -35 -37 -100q-21 -60 -42 -123q-5 -14 -13.5 -39.5t-15 -45.5t-12.5 -38q-27 -83 -32 -100q10 18 34.5 58.5t30.5 50.5q39 66 83 128q46 65 98 131q49 63 105 115q55 52 109 82q56 31 107 31q49 0 91 -25q41 -25 68 -63q27 -39 42 -88q14 -46 14 -99
q0 -68 -24 -151q-23 -78 -67 -162q-45 -84 -100 -154q-60 -75 -126 -131t-141 -91q-72 -34 -148 -34q-48 0 -76 15q-29 15 -44 33t-21 37q-6 20 -6 32q0 35 19 48q20 14 36 14q26 0 48 -16q21 -15 38 -15q69 0 151 57q79 55 156 144q73 86 123 186q49 99 49 188q0 49 -10 76
q-11 30 -25 44q-18 18 -27 21q-15 5 -20 5q-61 0 -134 -67q-72 -66 -150 -171q-79 -106 -160 -233q-78 -122 -160 -256q-9 -16 -19 -48q-14 -46 -18 -66q-8 -40 -15 -76q-6 -33 -13 -76q-15 -72 -18 -143q-3 -78 -2 -130q1 -57 3 -101q1 -42 0 -54q-8 -35 -36 -54
q-28 -18 -68 -14q-24 5 -35 17q-11 13 -16 46q-6 47 0 142q6 98 22 200q23 153 50 305q20 115 55 279q30 140 64 262q33 117 83 254q10 28 31 43t43 15q41 0 71 -19t7 -76z" />
    <glyph glyph-name="q" unicode="q" horiz-adv-x="933" 
d="M829 715q27 -12 44 -25q20 -15 20 -41q0 -8 -8 -30q-27 -59 -63 -152q-20 -53 -69 -199q-32 -97 -70 -233q-30 -109 -64 -256q-8 -30 -14 -60q-7 -34 -13 -76q-5 -36 -7 -79q-1 -37 5 -66q24 -2 40 8q14 8 29 23q16 16 21 23q7 10 14 8q10 -4 21 -20q9 -12 14 -34
q4 -17 1 -37t-17 -34q-2 -2 -22 -18q-6 -5 -36 -22q-24 -14 -44 -20q-28 -9 -44 -10q-46 -4 -74 17q-29 23 -40 54q-13 37 -13 75q0 36 5 78q3 23 12 67q8 36 8 39q29 143 72 293q50 175 94 323q-40 -61 -87 -122q-42 -55 -108 -119q-57 -55 -118 -92q-58 -35 -115 -35
q-61 0 -95 30q-33 29 -52 74q-16 39 -21 88q-4 40 -4 74q0 65 24 147q22 75 67 167q42 86 100 166q59 82 127 144t144 100t152 38q41 0 73 -16q28 -14 47 -36q18 -21 26 -45t8 -34q0 -32 -25 -45q-26 -13 -51 -13q-22 0 -41 14q-17 13 -31 13q-55 0 -112 -33
q-58 -34 -112 -86q-52 -50 -102 -121q-48 -67 -84 -138q-36 -70 -57 -137q-20 -63 -20 -118q0 -37 9 -67q9 -31 32 -31q35 0 81 27q42 25 95 74q46 44 98 103q51 59 91 113q43 58 74 110t46 89q23 58 44 89q24 36 65 36h13q8 0 17 -4z" />
    <glyph glyph-name="r" unicode="r" horiz-adv-x="618" 
d="M326 825q-28 -69 -45 -129q-17 -62 -27 -113q-9 -46 -16 -108q-1 -12 -6 -50t-7 -60q19 46 62 141q14 32 48 104q19 41 41 78q22 38 42 64q13 18 38 51q18 23 50 50q26 22 66 38q35 14 87 14q45 0 70 -14q26 -15 40 -33q11 -15 17 -34l5 -17q0 -22 -11 -38
q-12 -17 -25 -25q-14 -8 -33 -13q-16 -4 -32 -4q-17 0 -31 11q-15 12 -26 12q-46 0 -97 -51q-54 -54 -98 -128q-49 -83 -89 -172q-48 -107 -73 -182q-34 -101 -49 -160q-18 -72 -18 -102q0 -47 -62 -47q-41 0 -70 13t-34 44q7 103 26 224q6 38 17.5 115.5t17.5 116.5
q18 115 33 228t15 217q0 23 31 36q30 13 50 13q54 0 73 -29q20 -31 20 -61z" />
    <glyph glyph-name="s" unicode="s" horiz-adv-x="780" 
d="M651 752q-5 26 -20 51q-16 26 -76 26q-52 0 -116 -26q-70 -29 -127 -70q-60 -43 -103 -94q-44 -51 -45 -100q-2 -42 30 -63q33 -22 76 -32q45 -10 93 -12q14 0 28 -1t27.5 -2t19.5 -1q61 -6 92 -11q51 -8 91 -27t67 -55t27 -97q0 -80 -55 -141q-53 -59 -131 -100
q-74 -39 -160 -59t-146 -20q-63 0 -101 14q-42 15 -64 35q-23 20 -32 43q-10 25 -10 39q0 28 20 50q20 21 60 14q14 -4 40 -20q6 -4 14.5 -9t14.5 -9t11 -7q10 -4 27 -12q15 -7 45 -7q33 0 92 8q50 7 105 30q49 21 87 59q37 37 37 96q0 18 -48 25t-114 12q-97 7 -139 11
q-73 8 -118 25q-60 23 -99 78q-39 56 -35 127q4 62 52 145q46 81 123 150q79 71 178 117q100 46 211 45q71 0 116 -27q48 -29 71 -63q26 -39 35 -75t7 -62q-4 -63 -32 -81q-27 -18 -56 -18q-41 0 -53 28q-13 28 -17 73z" />
    <glyph glyph-name="t" unicode="t" horiz-adv-x="575" 
d="M92 803q26 9 55 14q9 2 62 10q8 27 17 57.5t20 68t17 57.5q23 79 69 194q22 49 43 67q22 19 49 19q90 0 84 -73q0 -34 -16 -66q-38 -73 -66 -156q-33 -95 -47 -147q9 0 30.5 1.5t33.5 2.5q13 1 34.5 2.5t30.5 1.5q30 2 54 3q16 1 34 1q23 0 39 -22t16 -45q-1 -20 -26 -28
q-21 -7 -66 -10q-42 -3 -97 -6q-53 -3 -120 -14q-3 -11 -13 -40.5t-15 -47.5q-5 -15 -29 -103q-12 -42 -28 -111q-14 -59 -21 -107q-1 -5 -4.5 -25.5t-5.5 -32.5q-6 -40 -7 -63q-2 -33 0 -65q1 -30 8 -56q6 -24 19 -40q12 -15 35 -15q38 0 63 11q31 14 45 23q18 12 33 24
q14 11 29 11q27 0 47 -17t18 -44q0 -33 -37 -60q-12 -7 -33 -21q-24 -15 -48 -26q-26 -12 -59 -21q-32 -9 -67 -9q-79 0 -120 44q-42 45 -58 102q-15 55 -17 117q-1 46 1 85q2 60 13 120q14 71 25 122q25 110 26 115q14 54 24 93q-15 -4 -27 -4q-33 0 -65 13q-31 12 -29 41
q0 37 47 55z" />
    <glyph glyph-name="u" unicode="u" horiz-adv-x="907" 
d="M743 -104q-5 0 -21 2q-11 1 -22 6q-46 18 -70 64t-33 105q-9 56 -7 122q1 62 6 112q-22 -42 -66 -92q-48 -55 -100 -98q-59 -49 -114 -79q-59 -32 -107 -32q-76 0 -127 52q-51 53 -51 151q0 87 12 172q11 79 23 135q8 42 20 89q17 63 30 118q15 61 30 120q21 83 24 97
q15 21 45 21q16 0 39 -10q20 -9 38 -22q16 -12 27 -28t11 -24v-9q-15 -29 -32 -71q-21 -53 -39 -106q-24 -70 -35 -111q-15 -54 -21 -91q-2 -15 -8 -48t-8 -48q-9 -56 -12 -106q-3 -51 6 -87t40 -36q58 0 103 22q43 21 83 54q36 30 60 63q8 11 21 28.5t18 24.5q13 18 34 57
q22 42 38 79q14 35 34 90q16 45 27 94l12 65q8 51 37 62q27 10 57 10t52 -16q23 -17 12 -62q-16 -65 -46 -201q-25 -116 -36 -243q-4 -36 -4 -87q0 -46 3 -85q3 -37 11 -65q7 -25 23 -25q20 0 34 9q13 9 19 9q22 0 48 -25q29 -27 24 -57q-4 -22 -37 -46q-32 -23 -105 -23z
" />
    <glyph glyph-name="v" unicode="v" horiz-adv-x="768" 
d="M256 784q-1 -9 -4.5 -37.5t-6.5 -46.5q-9 -61 -14 -122q-7 -82 -11 -153q-5 -92 -5 -173q0 -90 6 -178q31 12 74 45q44 34 91 89q50 59 96 137q47 79 87 190q44 127 55 159q23 70 23 140q0 48 -10 79t-10 54q0 37 24 67q25 31 74 31q34 0 57 -38t23 -134q0 -111 -36 -237
q-37 -129 -92 -242q-57 -116 -124 -215q-66 -97 -131 -154q-15 -12 -39 -33q-18 -15 -56 -41q-23 -15 -70 -34q-37 -15 -79 -15q-39 0 -64 31q-23 29 -28 59q-7 66 -12 155q-4 79 -4 185q0 90 1 134q2 84 4 125q4 69 7 105q6 63 8 75q10 59 39 77q30 19 64 19q25 0 46 -19
q19 -18 19 -61q0 -6 -1 -10t-1 -13z" />
    <glyph glyph-name="w" unicode="w" horiz-adv-x="1177" 
d="M319 776q-5 -10 -32 -69q-16 -35 -40 -102q-21 -59 -35 -107q-18 -61 -22 -86q-10 -45 -15 -98q-5 -55 -5 -99q0 -60 12 -117q25 1 59 24q30 20 61 51q25 25 53 60q18 22 34 50q17 29 29 55q18 37 32 80q13 39 28 99q14 57 20 114q5 50 32 70q30 22 58 22t48 -13
q21 -13 21 -49v-14q-5 -32 -14 -101.5t-12 -92.5q-15 -111 -15 -234q0 -26 4 -78q3 -39 9 -69q7 -33 16 -49q11 -19 25 -19q22 0 64 22q43 22 63 37q29 21 68 76q38 54 67 119q31 70 50 147t19 160q0 77 -18 121q-17 41 -40 69q-11 13 -39 46q-17 20 -17 53q0 25 16 45
q17 21 51 21q30 0 65 -24q32 -23 60 -67q26 -42 44 -105t18 -140q0 -109 -35 -228q-33 -112 -88 -211q-34 -62 -73 -104q-38 -41 -73 -70q-10 -8 -32 -26q-20 -16 -46 -31q-23 -14 -59 -25q-31 -10 -69 -10q-60 0 -96 38q-36 37 -54 93t-24 117q-7 72 -7 109
q-23 -56 -60 -108q-33 -47 -82 -92q-44 -41 -94 -65q-49 -24 -97 -24q-75 0 -97 49q-22 48 -22 145q0 89 14 166q17 94 25 129q7 38 19 89q5 22 15.5 63.5t13.5 54.5q9 36 31 116q18 66 25 85q11 20 43 20q19 0 37 -9q19 -10 33 -22t22 -29q8 -16 8 -28z" />
    <glyph glyph-name="x" unicode="x" horiz-adv-x="768" 
d="M852 840q-66 -63 -86 -82q-17 -16 -58 -55.5t-64 -62.5q-64 -63 -124 -124q-56 -57 -92 -100q16 -42 46 -93t68 -110q42 -65 69 -100q35 -45 57 -66q8 -18 6 -35q-1 -26 -29 -52t-59 -26q-24 0 -39 15q-15 21 -43 64q-32 50 -57 91q-24 40 -58 104q-23 44 -49 101
q-22 -26 -50 -67q-27 -40 -65 -102q-30 -50 -60 -104q-29 -54 -36 -75q-24 -37 -66 -37q-27 0 -54 19q-26 18 -21 53q0 16 30 66q31 51 77 115q47 65 99 132q59 76 97 119q-22 61 -42 113q-18 48 -43 124q-20 63 -33 109q-13 47 -11 68q4 33 33 51q28 18 59 18q41 0 57 -37
q1 -16 8 -61q2 -11 16 -85q10 -53 22 -96q17 -61 28 -95q14 15 44.5 46.5t46.5 48.5l99 105q37 39 93 103q40 45 71 88q21 22 52 22q24 0 42 -12q16 -10 26 -31q9 -19 8 -37q-2 -19 -15 -30z" />
    <glyph glyph-name="y" unicode="y" horiz-adv-x="960" 
d="M911 778q-11 -73 -18 -188q-4 -65 -21 -246q-7 -77 -16 -137q-12 -80 -22 -129q-12 -62 -24 -114q-14 -61 -22 -91q-7 -29 -26 -82q-17 -48 -49 -112q-27 -54 -74 -122t-99 -113q-59 -52 -126 -82q-70 -32 -154 -32q-70 0 -116 24t-73 55q-28 33 -40 64q-13 34 -13 48
q0 36 20 54q18 17 44 17q40 0 57 -17q24 -24 34 -38q12 -16 37 -38q20 -17 66 -17q80 0 145 50q64 49 114 119q49 69 79 140q33 80 43 115q12 47 23 108q19 105 25 147q10 66 22 164q9 77 16 162q-90 -247 -227 -379q-136 -131 -289 -131q-91 0 -136 54q-44 53 -56 137
q-12 86 1 187q14 105 36 203q22 97 48 184q28 94 38 135q12 48 25 65q14 19 28 22q13 3 28 -6q2 -1 11 -6.5t14 -7.5q43 -22 58 -45q14 -21 -9 -63q-9 -17 -27 -71q-23 -66 -42 -132q-24 -80 -42 -161q-21 -93 -28 -158q-8 -75 1 -123q9 -50 46 -56q81 -15 146 16
q62 30 112 87q49 56 87 134q40 82 68 157q22 61 53 158q27 85 46 134q18 47 52 51q35 4 69 -12q29 -13 45 -25q18 -13 12 -57z" />
    <glyph glyph-name="z" unicode="z" horiz-adv-x="866" 
d="M166 879q75 22 174 37q114 17 190 26q21 2 72 7.5t79 8.5q92 9 153 9q21 0 43 -16q20 -14 20 -40q0 -3 -4 -12q-5 -12 -9 -25q-1 -5 -12 -26q-8 -17 -10 -19q-20 -25 -62 -72q-26 -30 -80 -87q-14 -15 -41.5 -44t-41.5 -44q-12 -13 -36.5 -38.5t-35.5 -37.5
q-48 -49 -197 -206q-91 -96 -141 -177q91 19 193 36q99 17 180 17q98 0 132 -14q36 -15 36 -66q0 -22 -11 -34q-12 -13 -32 -13q-11 0 -36 6t-71 6q-100 0 -215 -34q-113 -33 -223 -86q-14 -7 -23 -8q-8 -1 -22 -1q-34 0 -56 14t-36 31t-19 39q-6 28 -6 33q0 9 5 26t14 31
q103 153 211 271q109 119 248 252q13 13 47 45.5t54 51.5q67 65 108 112q-49 -4 -108 -15q-78 -14 -118 -23q-49 -11 -119 -32q-55 -16 -108 -39q-8 -3 -25 -5q-8 -1 -22 -1q-47 0 -79 26t-32 56q0 20 16 42q15 21 56 32z" />
    <glyph glyph-name="braceleft" unicode="{" horiz-adv-x="827" 
d="M461 1200q0 -58 7 -111l14 -113l15 -114q7 -53 7 -119q0 -49 -15 -88q-16 -42 -36 -70q-23 -32 -52 -58t-59 -44q26 -7 55 -20q36 -16 65 -36q30 -21 45 -50t-3 -62q-8 -15 -19 -33t-25.5 -42t-23.5 -40q-40 -68 -74 -143q-36 -79 -60 -155q-26 -81 -26 -156
q0 -64 17 -107q16 -42 41 -68q22 -23 52 -40l52 -26q30 -15 41 -24q17 -14 17 -38q0 -17 -14 -36t-33 -31q-21 -14 -43 -18q-24 -5 -44 1q-110 53 -178 147q-69 95 -69 226q0 83 17 155q19 82 47 150q31 76 67 145q50 96 76 144q-41 35 -100 53t-116 6q-20 -4 -39 24
q-17 26 -22 61t7 62q12 29 48 29q38 0 82 12q41 11 79 35q36 22 58 52q23 31 23 67q0 58 -7 107q-2 16 -7.5 52t-8.5 55q-7 54 -15 111q-7 53 -7 117q0 63 14 98q16 39 31 60q22 37 69 81q51 48 94 84q43 37 89 67q39 26 55 26q15 0 36 -9q22 -9 41 -24q20 -15 31 -32
q12 -17 5 -37q-6 -19 -54 -46q-40 -23 -104 -64q-57 -37 -99 -79q-44 -44 -44 -94z" />
    <glyph glyph-name="bar" unicode="|" horiz-adv-x="557" 
d="M426 1395q-50 -247 -75 -463q-30 -259 -46 -471q-4 -76 -9 -193q-6 -150 -7 -246q-2 -132 0 -274q1 -141 12 -270q5 -54 -13 -73t-61 -19q-36 0 -65 16q-30 17 -35 74q-5 30 -3 75q1 30 1 101q0 112 4 217q6 154 10 235q5 98 14 220q3 40 6.5 98.5t4.5 69.5q1 16 10 140
q2 25 4 54.5t5 67.5t5 60q3 38 9.5 110.5t8.5 89.5q8 95 18 196q3 34 9.5 91.5t8.5 79.5q6 63 16 122q6 34 28 51t44 17q65 0 89 -47q24 -46 7 -129z" />
    <glyph glyph-name="braceright" unicode="}" horiz-adv-x="827" 
d="M367 -260q0 51 -8 112l-14 112q-3 19 -7.5 57t-6.5 57q-7 53 -7 119q0 52 14 88q15 39 37 70q24 34 51 58q29 26 59 44q-26 7 -55 20q-33 14 -64 36q-29 20 -45 49q-15 28 3 63q37 67 66 115q40 65 75 143q36 79 60 155q26 81 26 156q0 66 -16 107q-16 42 -41 68
q-21 22 -53 40l-17 8.5t-19.5 9.5t-15.5 8q-30 15 -41 24q-16 13 -16 38q0 19 13 36t33 31t43 18q24 5 44 -1q110 -53 178 -147q70 -96 70 -226q0 -74 -19 -155q-17 -73 -47 -150q-31 -79 -65 -145q-50 -96 -76 -144q41 -35 99 -53q59 -18 116 -6q21 4 40 -24q16 -24 21 -61
q5 -35 -7 -62q-12 -29 -48 -29q-41 0 -83 -12q-41 -12 -78 -35q-36 -22 -58 -52q-23 -31 -23 -67q0 -51 8 -107q5 -35 15 -107q8 -54 15 -111q7 -53 7 -117q0 -63 -14 -98q-16 -39 -31 -60q-24 -40 -68 -81q-51 -48 -94 -84q-34 -29 -90 -66q-41 -27 -55 -27q-15 0 -36 9
q-22 9 -41 24q-18 14 -30 32q-12 17 -5 37q6 19 54 46q17 10 103 63q55 35 100 79q44 44 44 95z" />
    <glyph glyph-name="asciitilde" unicode="~" 
d="M86 487q23 35 70 80q20 17 29 25q16 13 42 28q21 12 55 22q30 9 64 9q46 0 87 -22q43 -23 79 -49q60 -43 70 -50q32 -22 61 -22q61 0 90 18q27 17 45 40q15 20 29 40q13 19 39 19q14 0 36 -8q25 -9 40 -19t31 -28q14 -16 14 -31q0 -14 -4 -19q-56 -71 -128 -112
q-71 -41 -167 -41q-37 0 -69 8q-27 7 -52 20q-20 11 -38 25q-14 11 -28 20q-28 19 -62 41q-39 25 -71 25q-27 0 -45 -18q-20 -21 -33 -38q-4 -6 -13 -19t-14 -20q-13 -18 -32 -18q-22 0 -37 1q-25 2 -43 8q-21 8 -36 21t-15 38q0 14 6 26z" />
    <glyph glyph-name="exclamdown" unicode="&#xa1;" horiz-adv-x="649" 
d="M39 -260q13 26 32 80q22 64 38 121q15 60 28 130q14 73 17 99q17 113 19 129q12 76 17 113q12 89 14 115q6 78 7 137q4 27 29 39q24 12 59 12t41 -8t8 -37q-10 -73 -26 -213q-13 -115 -24 -209q-4 -36 -11.5 -99t-10.5 -90q-12 -104 -20 -149q-12 -79 -22 -134
q-13 -68 -19 -91q-8 -17 -24 -25t-33 -8q-46 0 -83 25q-38 26 -38 51q0 5 1 6t1 6zM221 973q0 22 7 47q8 28 22 51q17 27 35 41q20 16 47 16q35 0 53 -28t18 -70q0 -66 -36 -108q-37 -43 -78 -43q-32 0 -49 26q-19 28 -19 68z" />
    <glyph glyph-name="cent" unicode="&#xa2;" horiz-adv-x="1075" 
d="M905 946q-48 0 -65 26q-17 27 -13 79q0 9 3 26q1 3 3 14t3 17q2 35 -27 59q-29 25 -78 13q-41 -118 -63 -246q-18 -104 -50 -264q-12 -63 -30 -174q-18 -109 -33 -230q54 22 89 55q40 38 62 72q26 40 45 79q28 57 36 72q19 33 38 51q20 19 52 19q22 0 34 -16
q13 -18 9 -51q-1 -19 -23 -78q-21 -58 -66 -125q-46 -68 -116 -130q-71 -62 -176 -95q-1 -21 -4 -56.5t-4 -50.5q-1 -10 -2 -25.5t-2 -26.5t-1 -20q-2 -40 -2 -50v-31q-12 -95 -84 -95q-35 0 -59 24q-25 25 -25 73q1 10 5.5 40.5t7.5 51.5q6 43 20 129q-79 5 -128 42
q-50 38 -80 98t-39 134t-3 152q7 104 43 230q34 119 97 236q62 114 148 208q87 94 198 147q8 26 20 67t15 50q14 46 31 80q15 31 35 46t50 15q36 0 57 -22t19 -62q0 -5 -7 -20q-11 -25 -17 -40q-12 -32 -19 -49q-9 -21 -18 -51q45 -5 80 -14q42 -11 75 -33t52 -61
q20 -41 16 -100q-6 -65 -20 -104q-14 -40 -29 -56q-18 -20 -33 -24q-18 -5 -27 -5zM487 682q1 8 7 36.5t9 47.5q19 110 20 113q20 104 25 127q9 44 25 124q-56 -50 -105 -118q-50 -70 -88 -153q-40 -88 -64 -174q-25 -89 -31 -185q-2 -36 -2 -75q0 -50 10 -94q11 -47 36 -81
q26 -35 79 -35q1 6 8.5 56t12.5 77q22 125 23 129q2 12 20 115q9 52 15 90z" />
    <glyph glyph-name="sterling" unicode="&#xa3;" horiz-adv-x="1067" 
d="M874 1190q-5 25 -9 47q-5 28 -19 51q-16 25 -42 41q-28 17 -77 17q-46 0 -89 -20q-42 -20 -75 -51q-31 -30 -52 -76q-19 -42 -19 -93q0 -39 4 -74q6 -52 10 -77q4 -28 10 -74q4 -33 4 -64q1 0 51 5q14 1 49 5.5t55 6.5q73 8 115 13q14 2 33 4.5t31 4l20 2.5q22 -5 33 -21
q13 -19 13 -44q0 -26 -9 -51q-7 -20 -30 -25q-116 0 -175 -1q-91 -2 -176 -9q-2 -16 -10 -90q-6 -60 -22 -119q-47 -186 -146 -361q72 8 89 10q41 6 64 7q31 2 78 3q31 1 136 1q91 0 138 -12q46 -12 46 -60q0 -18 -6 -38q-6 -18 -15 -37q-7 -14 -21 -28q-12 -12 -23 -12
q-30 8 -64 13q-48 7 -88 11q-46 5 -96 9q-44 4 -88 4q-3 0 -53 -2q-37 -2 -87 -9t-102 -21q-63 -16 -100 -33q-27 -23 -45 -36q-17 -13 -35 -13q-17 0 -31 11t-24 27t-18 35q-7 17 -7 33q0 29 24 41q33 16 66 29q33 25 58 54q36 42 52 65q18 26 41 66q11 19 27 56
q37 89 60 188q22 97 12 195l-199 -24q-20 4 -33 24q-14 22 -14 47q0 29 9 47t32 23q19 -4 39 -4h37q39 0 59 1t64 3l-2 23q0 2 -1.5 22t-2.5 34q0 9 -1.5 34.5t-2.5 41.5q-2 56 -2 83q0 85 27 162q27 76 79 136q51 58 125 93q75 35 168 35q81 0 143 -27q64 -28 103 -67
q40 -40 61 -86q21 -47 21 -87t-25 -57q-23 -16 -53 -16q-32 0 -61 16q-30 17 -36 39z" />
    <glyph glyph-name="currency" unicode="&#xa4;" horiz-adv-x="1081" 
d="M162 1120l110 -108q65 46 127 70t140 24t139 -24q62 -24 127 -70l115 106l59 -57l-113 -105q45 -68 66 -128q20 -56 20 -128t-20 -128q-21 -60 -66 -128l113 -108l-59 -57l-115 110q-68 -48 -127 -71t-139 -23q-81 0 -140 23t-127 71l-110 -110l-60 57l109 108
q-45 68 -66 128q-20 56 -20 128t20 128q21 60 66 128l-109 107zM539 973q-59 0 -112 -21t-89 -57q-37 -37 -58 -86q-21 -51 -20 -109q0 -53 23 -104q22 -48 60 -86q35 -35 88 -59q51 -23 108 -23q56 0 107 23q53 24 88 59q40 40 61 86q22 48 22 104q2 61 -19 109
q-19 45 -60 86q-35 35 -89 57q-51 21 -110 21z" />
    <glyph glyph-name="yen" unicode="&#xa5;" horiz-adv-x="1193" 
d="M158 659q42 -8 84 -5q59 4 86 5q-28 84 -52 174q-18 66 -50 196q-21 85 -38 179q-14 77 -14 121q0 50 27 68t71 18q35 0 58 -20q24 -21 26 -68q0 -30 11 -102q13 -82 28 -161q13 -69 43 -194q18 -76 56 -198q34 12 81 48q55 42 99 88q53 54 99 115q50 65 83 126
q37 66 72 137q33 68 33 125q0 39 -14 67q-13 26 -13 43q0 33 28 58q27 24 80 24q42 0 66 -32q25 -33 25 -111q0 -86 -40 -179q-42 -98 -101 -188q-58 -89 -133 -173q-70 -79 -138 -136q6 0 52 5q30 3 57 6q36 4 51 6q9 1 19.5 3.5t12.5 2.5q20 -1 34 -20q13 -17 13 -46
q0 -27 -8 -51q-8 -22 -30 -27q-16 0 -27 1t-39 1q-47 0 -74 -1q-14 -1 -41.5 -1.5t-41.5 -0.5q-28 -1 -78 -3t-64 -2q-6 -30 -12 -64q-4 -26 -10 -77q39 5 85 9q15 1 47.5 4.5t49.5 5.5q15 1 30.5 3t33 4t26.5 3q30 3 61 10q19 -1 35 -21q14 -17 14 -45q0 -29 -9 -51
q-9 -23 -31 -27q-16 0 -26 1t-34 1q-46 0 -73 -1q-13 0 -39 -1t-40 -2q-41 -1 -78 -3q-39 -2 -65 -3q-9 -84 -14 -201q-4 -89 -4 -165q-5 -11 -24 -17q-20 -6 -46 -6q-45 0 -75 10q-31 10 -31 31l16 59q14 48 22 125q11 111 17 154l-262 -29q-22 1 -35 24q-12 21 -12 48
q0 28 8 47q8 18 31 23h135q75 0 143 4q3 24 5 68q2 38 3 65q-23 -3 -69 -7q-28 -2 -67 -8q-12 -2 -57 -7q-8 -1 -21.5 -2.5t-18.5 -2.5q-22 1 -36 23q-13 20 -13 49q0 28 9 48q8 18 32 23z" />
    <glyph glyph-name="brokenbar" unicode="&#xa6;" horiz-adv-x="557" 
d="M125 -348q0 164 6 344q6 195 16 332q1 39 26 57q24 18 51 18q28 0 48 -19t19 -56q-4 -84 -6 -185q-2 -134 -2 -210q0 -122 4 -225q5 -135 14 -230q5 -54 -13 -73t-61 -19q-36 0 -65 16q-30 17 -35 74q-5 30 -3 75q1 30 1 101zM360 1395q-13 -84 -20 -166q-8 -90 -15 -183
q-10 -124 -14 -185q-2 -32 -10 -169q-2 -35 -26 -50q-23 -15 -51 -13t-50 18t-22 45q3 76 7 220q4 159 7 237q5 120 9 211t11 143q5 35 25 51q22 17 43 17q65 0 92 -47q26 -45 14 -129z" />
    <glyph glyph-name="section" unicode="&#xa7;" horiz-adv-x="1177" 
d="M268 270q34 0 45 -21q11 -22 11 -52q0 -28 -12 -52q-4 -7 -12 -25t-13 -29q-12 -25 -26 -64q-11 -32 -11 -82q0 -58 29 -96q28 -37 75 -37q66 0 140 45q72 44 136 111q60 63 103 144q41 77 41 142q0 45 -20 74q-21 30 -64 30q-3 0 -26 -5l-50 -12q-28 -7 -60 -12
q-35 -5 -62 -5q-42 0 -78 11q-41 13 -70 33q-31 22 -50 55q-20 35 -20 81q0 58 28 112t81 107q-24 6 -45 30q-20 23 -34 52q-11 23 -20 59q-8 32 -8 49q0 64 18 118q20 60 40 104q39 82 91 143q55 64 117 110q61 45 128 71q66 26 127 30q69 0 124 -29q53 -28 91 -75
q37 -46 55 -105q18 -60 18 -119q0 -47 -9 -98q-9 -50 -32 -98q-27 -60 -58 -79q-32 -20 -52 -20q-16 0 -29 11q-13 12 -20 25q-9 19 -13 33q-4 16 -4 30q0 15 11 34q7 11 22 44q13 27 23 62q10 34 10 85q0 44 -12 74t-33 51q-22 22 -44 30q-24 9 -44 9q-68 0 -142 -44
q-72 -42 -134 -111q-60 -66 -99 -144t-39 -148q0 -54 29 -74t69 -20q52 0 109 15q61 16 96 16q86 0 152 -45q65 -44 65 -137q0 -67 -35 -122q-37 -58 -81 -102q40 -24 68 -76q28 -53 28 -110q0 -92 -48 -193q-47 -98 -125 -184q-76 -83 -173 -138q-96 -54 -193 -54
q-74 0 -120 29q-48 30 -75 75t-39 97t-12 96q0 51 12 102q13 54 40 104q29 52 60 68t54 16zM406 502q0 -35 28 -41t60 -6q44 0 94 18q45 16 91 46q42 27 70 63q27 34 27 69q0 41 -24 51q-25 11 -64 11q-45 0 -97 -19q-50 -18 -91 -47q-42 -30 -68 -67q-26 -38 -26 -78z" />
    <glyph glyph-name="dieresis" unicode="&#xa8;" horiz-adv-x="960" 
d="M625 1169q-4 -27 -20 -55q-14 -25 -35 -46t-43 -32q-24 -12 -46 -12q-29 0 -47 23q-18 22 -10 67q15 75 59 107t90 32q67 0 52 -84zM911 1169q-5 -29 -19 -55q-14 -25 -35 -46t-43 -32q-24 -12 -46 -12q-29 0 -47 23q-18 22 -10 67q15 75 59 107t90 32q66 0 51 -84z" />
    <glyph glyph-name="copyright" unicode="&#xa9;" horiz-adv-x="2015" 
d="M1290 766q-18 86 -85 133t-169 47q-83 0 -143 -30q-59 -29 -99 -77q-41 -49 -59 -108q-18 -60 -18 -119q0 -72 21 -133q20 -58 64 -107q42 -46 101 -73q60 -27 137 -27q101 0 165 50q63 49 85 137h125q-11 -74 -44 -129q-35 -58 -84 -98q-48 -39 -113 -61
q-63 -21 -134 -21q-104 0 -184 35q-81 35 -140 99q-59 63 -90 145q-32 84 -32 179q0 96 31 184q29 82 88 146q57 62 139 96q84 35 186 35q73 0 133 -20q64 -21 113 -60q49 -38 83 -95q33 -54 48 -128h-125zM1008 -197q-168 0 -315 63q-149 64 -255 170q-109 109 -171 254
t-62 312t62 312t171 254q106 106 255 170q147 63 315 63q167 0 314 -63q149 -64 255 -170q109 -109 171 -254t62 -312t-62 -312t-171 -254q-106 -106 -255 -170q-147 -63 -314 -63zM1008 -47q129 0 249 50t208 138q90 90 142 207t52 254t-52 254t-142 207q-88 88 -208 138
t-249 50q-131 0 -251 -50q-118 -49 -208 -138q-89 -88 -142 -207q-53 -120 -53 -254t53 -254q53 -119 142 -207q90 -89 208 -138q120 -50 251 -50z" />
    <glyph glyph-name="ordfeminine" unicode="&#xaa;" horiz-adv-x="647" 
d="M567 1180q-7 -14 -19 -41q-10 -22 -22 -62q-8 -26 -17 -75q-7 -38 -7 -82q0 -43 22 -43q14 0 25 8t16 8q13 0 18 -21q5 -23 5 -34q0 -14 -29 -40t-80 -26q-43 0 -59 37q-17 39 -17 80q0 32 8 69q7 34 15 72q-22 -29 -49 -61q-32 -39 -63 -67q-39 -35 -69 -53
q-38 -22 -69 -22t-52 16q-19 14 -31 39q-10 19 -15 48q-4 21 -4 43q0 69 32 143q33 76 82 140q50 65 110 107t116 42q32 0 52 -12q18 -11 30 -28q8 -12 14 -31q4 -13 4 -21q0 -16 -9 -31q-7 -12 -22 -25q-10 -9 -25 -17q-13 -7 -20 -7q-18 0 -26 18q-8 19 -21 19
q-16 0 -31 -6q-15 -7 -49 -29q-25 -16 -55 -49q-26 -29 -46 -77t-20 -108q0 -26 9 -40q8 -13 14 -13q36 0 71 34q38 36 66 77q34 50 54 83q18 31 32 50q4 7 20 23q14 14 27 14q34 2 59 -11q27 -14 27 -30q0 -6 -2 -8z" />
    <glyph glyph-name="guillemotleft" unicode="&#xab;" horiz-adv-x="1134" 
d="M489 549q14 12 51 43.5t60 51.5l132 114q53 46 126 106q60 50 90 72q7 4 13 4q13 0 24 -10q13 -12 24 -25q11 -14 17 -27q6 -14 6 -20q0 -10 -1 -15q-2 -8 -7 -12q-39 -20 -81 -50q-54 -39 -105 -82q-65 -54 -111 -98q-59 -56 -96 -101q35 -44 90 -90q60 -50 114 -89
q69 -49 112 -77q65 -41 91 -54q9 -13 9 -24q0 -9 -9 -27q-5 -10 -20 -25q-9 -9 -25 -19q-11 -7 -20 -7q-2 0 -3 1t-3 1q-28 15 -95 66q-62 46 -129 99t-132 99q-71 51 -103 66q-19 13 -25 39q-6 27 -6 45q0 16 12 45zM113 549q50 43 103 95q78 76 118 114l112 106
q47 44 84 72q7 4 13 4q13 0 24 -10q13 -12 24 -25q11 -14 17 -27q6 -14 6 -20q0 -10 -1 -15q-2 -8 -7 -12q-37 -18 -75 -50q-50 -42 -92 -82q-56 -54 -96 -98q-61 -66 -89 -101q33 -41 83 -90q51 -50 99 -89q49 -40 100 -77q55 -40 85 -54q8 -11 8 -24q0 -11 -8 -27
q-4 -8 -21 -25q-9 -9 -25 -19q-11 -7 -20 -7q-2 0 -3 1t-3 1q-26 14 -88 66q-44 37 -115 99q-65 57 -118 99q-64 51 -97 66q-19 13 -25 39q-6 27 -6 45q0 14 13 45z" />
    <glyph glyph-name="logicalnot" unicode="&#xac;" horiz-adv-x="1148" 
d="M838 436q1 4 21 78q13 50 20 94q8 55 11 101q3 45 1 100q-185 0 -365 -12q-173 -12 -370 -41q-22 2 -36 27q-14 26 -9 61q1 34 12 57t37 27q22 -2 40 -2h54q184 0 366 12q175 12 367 41q21 -1 36 -24q13 -20 11 -56q0 -4 -1 -5t-1 -5q1 -33 0 -76q-11 -130 -25 -209
t-40 -172q-4 -18 -29 -36q-23 -17 -55 -11q-26 5 -37 22q-12 18 -8 29z" />
    <glyph glyph-name="registered" unicode="&#xae;" horiz-adv-x="2015" 
d="M1008 -197q-168 0 -315 63q-149 64 -255 170q-109 109 -171 254t-62 312t62 312t171 254q106 106 255 170q147 63 315 63q167 0 314 -63q149 -64 255 -170q109 -109 171 -254t62 -312t-62 -312t-171 -254q-106 -106 -255 -170q-147 -63 -314 -63zM1008 -47q129 0 249 50
t208 138q90 90 142 207t52 254t-52 254t-142 207q-88 88 -208 138t-249 50q-131 0 -251 -50q-118 -49 -208 -138q-89 -88 -142 -207q-53 -120 -53 -254t53 -254q53 -119 142 -207q90 -89 208 -138q120 -50 251 -50zM1389 170h-148l-262 403h-148v-403h-122v874h381
q58 0 115 -9q56 -9 100 -36q42 -26 69 -71t27 -115q0 -64 -22 -110q-21 -44 -58 -72q-38 -29 -88 -42q-55 -15 -109 -16zM979 696q58 0 92 -1q48 -1 97 8q45 9 78 34q32 24 32 78q0 33 -21 54t-51 33q-28 11 -68 16q-33 4 -73 4h-234v-226h148z" />
    <glyph glyph-name="macron" unicode="&#xaf;" 
d="M465 1257q23 -5 57 -6q32 -3 92 -5q37 -1 70 0q46 2 70 4q11 1 25.5 2.5t34.5 4t34 3.5q13 -1 21 -20q7 -18 3 -46q-4 -21 -12 -43q-7 -20 -24 -25q-6 1 -27 3.5t-33 3.5q-29 3 -89 5q-36 1 -67 0q-49 -2 -70 -4l-95 -10q-15 1 -21 24q-6 22 -2 46q4 57 33 63z" />
    <glyph glyph-name="degree" unicode="&#xb0;" horiz-adv-x="647" 
d="M197 1108q-12 -64 15 -108t79 -44q51 0 95 44t56 108q10 63 -17 107q-28 45 -79 45q-50 0 -95 -45q-43 -43 -54 -107zM80 1108q12 62 41 115q30 55 68 93q37 37 87 63q47 24 97 24q49 0 89 -24t65 -63q26 -42 35 -93q9 -53 -3 -115q-12 -61 -41 -116t-68 -94
q-37 -37 -89 -63q-48 -24 -97 -24t-88 24q-40 24 -64 63q-26 42 -35 94q-9 54 3 116z" />
    <glyph glyph-name="plusminus" unicode="&#xb1;" horiz-adv-x="1116" 
d="M160 901q22 -2 40 -2h54q138 0 266 6q19 113 29 193q11 89 16 200q4 26 32 43t62 17q37 0 57 -13q21 -14 23 -47q-6 -28 -22 -122q-17 -98 -55 -263q10 1 161 18q82 9 164 21q22 -1 36 -23q13 -20 11 -57q-5 -37 -14 -60q-11 -28 -37 -32q-22 2 -41 2h-57q-133 0 -252 -6
q-3 -15 -7 -40t-6 -34q-2 -10 -5.5 -29t-4.5 -28q-1 -5 -8 -65q-2 -16 -8 -97q-2 -23 -1 -33q1 -11 -1 -26q-4 -28 -29 -43q-22 -14 -59 -14q-34 0 -59 16t-27 47l76 338q-68 -6 -171 -17q-55 -6 -167 -22q-22 1 -36 28q-14 25 -9 60q1 35 12 57q11 23 37 27zM92 219
q22 -2 40 -2h54q184 0 366 12q177 12 368 41q21 -1 35 -23q14 -21 12 -57q-5 -33 -15 -60q-11 -28 -37 -32q-22 2 -41 2h-57q-181 0 -359 -12q-174 -12 -370 -41q-22 1 -36 28q-14 25 -9 60q2 36 12 58t37 26z" />
    <glyph glyph-name="twosuperior" unicode="&#xb2;" horiz-adv-x="647" 
d="M170 1225q0 55 24 94q24 38 59 62q34 23 79 35q40 11 80 11t65 -14t41 -36q15 -21 21 -47q6 -25 6 -46q0 -64 -21 -117q-22 -56 -53 -99q-32 -45 -75 -85q-45 -42 -87 -74q63 6 127 6q43 0 63 -16q21 -17 21 -57q0 -19 -12 -19q-20 0 -30 1t-32 1q-59 0 -136 -8t-126 -22
q-8 -2 -16 -2q-19 0 -30 10t-17 24q-7 17 -8 28q0 4 -0.5 7.5t-1 6t-0.5 3.5q0 9 20 20q23 13 54 32q26 16 77 51q38 26 86 76q51 52 69 98q17 43 17 78q0 7 -2 27q-1 10 -7 30q-4 14 -15 25q-10 10 -27 10q-53 0 -89 -24t-36 -64q0 -39 -20 -49q-22 -11 -37 -11
q-13 0 -22 15t-9 39z" />
    <glyph glyph-name="threesuperior" unicode="&#xb3;" horiz-adv-x="647" 
d="M180 1321q11 19 36 38q27 21 59 36q25 12 72 27q37 12 75 12q28 0 66 -25q36 -24 36 -59q0 -32 -18 -63q-17 -30 -47 -60q-28 -28 -65 -51q-38 -24 -70 -35q10 -1 68 -7q32 -4 79 -18q23 -8 50 -27q28 -20 28 -59t-21 -81t-61 -76q-39 -33 -100 -56q-59 -22 -136 -22
q-37 0 -57 17q-21 18 -31 40q-10 21 -13 44q-3 21 -3 30q0 30 12 37q13 8 23 8q15 0 36 -6t21 -25q0 -5 -1 -8t-1 -8q0 -17 8 -36q7 -18 35 -18q23 0 56 11q34 11 62 28q29 17 49 42q19 23 19 50q0 15 -11 26q-12 12 -29 19q-16 7 -40 10q-21 3 -42 3q-41 0 -78 8
q-35 8 -35 37q0 2 -2 24q-2 17 22 33q17 12 51 33t66 44q40 29 58 47q24 24 24 42q0 3 -5 10q-5 6 -28 6q-34 0 -58 -10q-26 -11 -43 -25q-13 -10 -29 -31q-2 -3 -15 -24q-4 -6 -18 -6t-27 4q-12 4 -25 13q-10 7 -10 18q0 2 2 20q1 13 6 19z" />
    <glyph glyph-name="acute" unicode="&#xb4;" 
d="M860 1221q-54 -41 -86 -63q-48 -33 -77 -52q-46 -30 -56 -36q-22 -13 -25 -13q-22 0 -43 21q-20 20 -20 44l20 15q21 15 54 42q28 23 73 68q44 44 82 96q18 15 37 15q32 0 65 -25q31 -24 31 -53q0 -14 -8 -25z" />
    <glyph glyph-name="mu" unicode="&#xb5;" horiz-adv-x="940" 
d="M776 -104q-48 0 -77 26q-28 26 -47 69q-17 39 -23 93q-6 51 -6 100q0 68 6 123q-22 -42 -66 -92q-48 -55 -100 -98q-59 -49 -114 -79q-59 -32 -107 -32q-40 0 -70 12q0 -29 2 -109q2 -61 6 -119q4 -54 14 -108q9 -52 25 -79q2 -14 2 -21q-5 -16 -23 -33q-20 -18 -89 -18
q-27 0 -40 34q-14 37 -20 86q-5 47 -7 112q-1 40 -1 114q0 171 14 326q15 170 43 313q5 30 21 89q3 11 29 118q6 24 17.5 67.5t13.5 52.5q21 83 24 97q15 21 45 21q16 0 39 -10q20 -9 38 -22q16 -12 27 -28q10 -14 10 -24v-9q-12 -22 -31 -71q-21 -53 -39 -106
q-24 -70 -35 -111q-15 -54 -21 -91q-2 -13 -8.5 -49t-10.5 -59q-10 -60 -10 -117q0 -44 10 -71q11 -29 37 -29q56 0 101 22q43 21 82 55t62 64q32 41 40 51q30 56 31 58q20 34 39 78t36 90q16 45 27 94l12 65q8 51 37 62q27 10 57 10q24 0 45 -12t21 -43q0 -13 -2 -23
q-4 -19 -13.5 -58t-13.5 -55q-12 -50 -28 -134q-12 -64 -22 -145q-9 -75 -9 -148q0 -63 8 -116q8 -50 29 -50q19 0 33 9t20 9q19 0 45 -23q27 -24 27 -53q0 -22 -32 -49q-30 -26 -110 -26z" />
    <glyph glyph-name="paragraph" unicode="&#xb6;" horiz-adv-x="1282" 
d="M1208 1278q-22 0 -61 6t-88 6q-15 -47 -33 -120q-20 -81 -32 -135q-7 -30 -28 -135q-16 -79 -22 -120q32 -12 51 -27q23 -18 23 -46q0 -30 -26 -51q-30 -25 -70 -50q-1 -8 -12 -127q-7 -71 -10 -165q-3 -76 -1 -163q1 -79 18 -124q12 -38 22 -59q3 -6 7 -14.5t7 -14.5
t6 -11q14 -25 15 -29q5 -15 5 -26t-5 -29q-4 -13 -16 -31q-13 -18 -24 -26q-14 -10 -35 -10q-59 0 -103 87q-44 88 -44 240q0 25 2 101q1 38 5 116q2 39 8 113q4 54 9 94l-28 -10q-56 -20 -101 -32q-44 -12 -96 -17q-5 -41 -9 -95q-1 -16 -4.5 -55.5t-5.5 -62.5
q-4 -51 -2 -122q1 -54 15 -105q12 -43 21 -60q15 -28 22 -38t17 -28q7 -13 7 -30q0 -14 -4 -30t-13 -31q-8 -13 -23 -25q-13 -10 -33 -10q-82 0 -114 86q-32 87 -32 241q0 27 2 93q1 17 2.5 49t1.5 48q1 36 5 92q3 37 8 79q-74 6 -140 33t-115 73q-50 47 -79 112
q-29 66 -29 146q0 96 48 176q45 74 121 141q70 61 161 109q99 52 168 78q9 42 16 88q6 36 17 60q10 22 27 33q18 12 48 12q35 0 58 -21q22 -21 22 -61q0 -4 -2 -16q0 -3 -1.5 -8t-3 -14t-3.5 -17q21 6 92 23q57 14 98 20h7l4 26q12 34 36 51q25 17 52 17q32 0 55 -20
q24 -20 25 -58h47q83 0 115 -14q34 -15 34 -62q0 -46 -25 -70t-57 -24zM643 1065q-31 -120 -50 -224q-22 -119 -32 -233q57 11 124 41q62 27 116 64q1 32 9 79q0 2 6.5 44t11.5 69q3 17 12.5 71.5t15.5 88.5q23 127 39 215q-68 -7 -114 -17q-56 -12 -95 -24zM516 1171
q-51 -28 -103 -64q-54 -38 -100 -85q-42 -44 -74 -104q-30 -57 -30 -123q0 -53 20 -87q21 -35 53 -60q32 -24 70 -36q41 -13 74 -14q1 20 8 86q6 59 18 134q1 8 10.5 69.5t15.5 97.5q14 83 38 186z" />
    <glyph glyph-name="periodcentered" unicode="&#xb7;" horiz-adv-x="360" 
d="M270 502q-16 -54 -48 -82q-35 -31 -68 -25q-36 8 -51 48q-15 41 -3 92q15 53 50 83q35 31 69 25q35 -8 50 -48q16 -42 1 -93z" />
    <glyph glyph-name="cedilla" unicode="&#xb8;" horiz-adv-x="851" 
d="M426 -82q-5 -12 -19 -27q-6 -6 -18 -17.5t-16 -15.5q-18 -18 -36 -33q-12 -10 -26 -24q36 -5 68 -25q33 -21 33 -69q0 -42 -31 -82q-11 -16 -37 -39q-18 -16 -49 -39q-21 -16 -46 -30q-23 -13 -28 -13q-19 0 -32 24q-13 23 -13 46q0 17 10 23q17 5 39 16q25 13 49 29
q29 20 42 33q18 18 18 34q-2 8 -23 23q-20 14 -43 8q-20 -16 -40 -28q-18 -11 -42 -11q-18 0 -26 27q-8 29 -8 45q0 8 34 29q33 20 74 61q15 14 31 34q17 19 31 34q3 3 24 27q10 11 14 11q26 0 46 -17t20 -30v-4z" />
    <glyph glyph-name="onesuperior" unicode="&#xb9;" horiz-adv-x="647" 
d="M203 1286q17 9 48 31q11 8 50 37q27 20 44 36q24 22 30 29h11q6 0 20 -2l20 -4q9 -1 14 -6q33 -6 29 -39q-2 -5 -7.5 -22t-9.5 -29q-5 -15 -23 -75q-7 -23 -20 -78q-12 -50 -14 -60q-10 -48 -18 -105q-8 -55 -4 -102l33 3q11 1 32 1q14 0 29 -21q14 -20 14 -34
q0 -12 -14 -19q-16 -8 -25 -8q-23 -2 -53 -6q-11 -2 -32.5 -4.5t-30.5 -3.5q-41 -6 -63 -10q-18 -3 -52 -15q-11 -5 -20 3q-11 9 -17 19q-9 15 -12 22q-4 11 -4 18q0 8 13 18t24 12l63 15q6 98 30 194q20 79 46 205q-31 -16 -53 -37q-9 -9 -27 -24t-23 -19q-6 -4 -15 5
t-15 24q-5 13 -7 30q-2 15 9 21z" />
    <glyph glyph-name="ordmasculine" unicode="&#xba;" horiz-adv-x="647" 
d="M535 1081q-16 -47 -41 -91q-28 -51 -64 -89q-40 -43 -83 -71q-45 -29 -97 -35q-47 -6 -76 7q-30 14 -50 38q-21 26 -28 56q-8 34 -8 62q0 82 38 176q36 91 89 160q44 58 89 91q46 34 67 34q23 0 30 -19q8 -22 7 -42l20 4q14 2 23 2q37 0 59 -15t35 -37t17 -47
q5 -28 5 -44q0 -47 -12 -82q-16 -46 -20 -58zM240 917q26 -6 46 -1q18 4 40 20q35 23 68 77q32 53 48 93q8 16 13 35q6 23 6 47q0 32 -7 43q-8 12 -18 12q-12 0 -22 -6t-21 -6q-15 0 -31 15t-8 32q-31 -19 -59 -51q-29 -34 -51 -73q-23 -42 -36 -83q-13 -42 -13 -80
q0 -47 14 -58t31 -16z" />
    <glyph glyph-name="guillemotright" unicode="&#xbb;" horiz-adv-x="1134" 
d="M657 479l-110 -95l-132 -114q-53 -46 -126 -106q-60 -50 -90 -72q-7 -4 -13 -4q-13 0 -24 10q-13 12 -24 25q-10 13 -17 28q-6 14 -6 19q0 10 1 15q2 8 7 12q39 20 81 50q54 39 105 82q65 54 111 98q59 56 96 101q-34 44 -90 90q-68 57 -114 90q-56 40 -112 76
q-65 41 -91 54q-9 13 -9 24q0 9 9 27q5 10 20 25q9 9 25 19q11 7 20 7q2 0 3 -1t3 -1q24 -13 94 -66q62 -46 129 -99q55 -43 133 -99q71 -51 103 -66q19 -13 25 -39q6 -27 6 -45q0 -16 -13 -45zM1034 479q-50 -43 -103 -95q-78 -76 -118 -114q-23 -21 -61.5 -57.5
t-51.5 -48.5q-47 -44 -84 -72q-7 -4 -12 -4q-13 0 -24 10q-13 12 -24 25q-10 13 -17 28q-7 16 -7 19q0 5 2 15q2 8 7 12q34 17 74 50q57 47 93 82q56 54 96 98q61 66 89 101q-33 41 -83 90q-58 57 -99 90q-39 32 -100 76q-55 40 -85 54q-8 11 -8 24q0 11 8 27q4 8 21 25
q11 11 24 19q11 7 21 7q2 0 3 -1t3 -1q26 -14 88 -66q44 -37 115 -99q65 -57 118 -99q64 -51 97 -66q18 -12 24 -39q7 -32 7 -45q0 -16 -13 -45z" />
    <glyph glyph-name="onequarter" unicode="&#xbc;" horiz-adv-x="1339" 
d="M743 698q-64 -108 -117 -204q-64 -117 -120 -231t-93 -207q-39 -96 -40 -134q-11 -41 -25 -61q-15 -21 -49 -21q-25 0 -47 28q-21 27 -21 87q0 58 37 151q37 92 90 199q47 94 116 209q58 97 114 184q9 15 31.5 52t35.5 58q8 14 87 143l96 159q50 82 93 156q54 91 78 133
q35 62 52 92q15 28 22 37q7 10 31 10q35 0 62 -27q26 -26 26 -69q0 -34 -16 -62q-50 -96 -102 -177q-61 -94 -107 -160q-10 -15 -114 -161q-54 -76 -120 -184zM211 1384q27 15 57 36q38 26 60 44q29 23 52 43q27 23 36 35q5 0 13 -1q4 -1 12 -1t12 -1q14 -2 23 -4
q13 -3 18 -7q39 -6 34 -47q-10 -27 -20 -62q-15 -50 -27 -89q-6 -19 -15 -53t-10 -39q-11 -38 -16 -71q-3 -19 -9.5 -61t-10.5 -64q-10 -61 -6 -120q12 1 38 3q13 1 40 1q14 0 33 -25q18 -24 18 -41q0 -12 -17 -21q-18 -10 -30 -10q-7 -1 -64 -8l-75 -9q-25 -3 -73 -13
q-7 -2 -63 -17q-10 -4 -23 4q-11 7 -21 22t-14 28q-5 17 -5 20q0 10 16 22q16 11 27 13l75 18q0 2 6 43l9 62q13 76 35 181q10 50 41 189q-13 -7 -15 -10q-17 -13 -24 -20q-11 -10 -33 -28q-11 -9 -31 -25q-15 -12 -18 -13q-8 -4 -20 8q-9 9 -18 29q-6 14 -8 34q-1 17 11 25
zM1169 608q0 -2 -7 -66l-11 -88q-7 -54 -13 -89l-12 -68l-8 -51q38 10 46 12q16 4 28 4q16 0 21 -29q6 -38 6 -47q0 -15 -9 -24q-8 -8 -23 -11q-19 -4 -39 -5q-27 -2 -56 -3q-5 -19 -23 -72q-12 -36 -26 -64q-15 -31 -25 -44q-12 -16 -25 -16q-9 0 -22 4q-16 5 -29 10
t-24 13t-11 16q0 4 7 18l18 36q3 7 10 22.5t11 23.5q5 9 22 49l-28 -3q-3 0 -8 -0.5t-8 -1.5q-5 -1 -16 -1h-26q-18 0 -62 2q-12 1 -33 2.5t-30 1.5q-11 1 -30 2.5t-26 1.5q-34 2 -38 2q-14 5 -19 16q-6 12 -6 23v4q-4 11 -4 21q0 16 29 40q29 25 63 70q43 56 72 115
q30 62 57 129q14 34 19 58q6 27 12 45q5 16 15 29q9 12 26 12q18 0 49 -14t31 -29q0 -17 -15 -53q-28 -68 -33 -78q-21 -44 -40 -79q-7 -13 -17.5 -32t-13.5 -25q-9 -16 -44 -70q-25 -39 -67 -89q38 -6 58 -7q38 -2 57 -2q42 0 107 7q8 32 26 133q15 85 15 184q0 21 -1 31
q-2 20 -2 24q0 9 11 15q10 6 24 10q15 5 30 6q20 2 24 2q35 0 36 -33z" />
    <glyph glyph-name="onehalf" unicode="&#xbd;" horiz-adv-x="1339" 
d="M748 698q-78 -132 -118 -204q-64 -117 -120 -231t-93 -207q-39 -96 -40 -134q-11 -41 -25 -61q-15 -21 -49 -21q-25 0 -47 28q-20 26 -20 87q0 60 36 151q37 92 90 199q47 94 116 209q58 97 114 184q9 15 31.5 52t35.5 58q8 14 87 143l96 159q50 82 93 156q54 91 78 133
q35 62 52 92q15 28 22 37q7 10 31 10q35 0 62 -27q26 -26 26 -69q0 -34 -16 -62q-53 -104 -101 -177q-48 -74 -108 -160q-10 -15 -114 -161q-47 -66 -119 -184zM211 1384q27 15 57 36q38 26 60 44q29 23 52 43q27 23 36 35q7 0 35 -2q17 -1 36 -8q16 -6 29 -19
q12 -12 12 -32q-28 -74 -46 -135q-24 -84 -37 -144q-16 -77 -23 -138q-8 -70 -8 -118v-24q12 1 38 3q13 1 40 1q14 0 33 -25q18 -24 18 -41q0 -16 -36 -25q-41 -10 -87 -17q-45 -7 -107 -15q-46 -6 -92 -21q-2 -2 -8 -2q-12 0 -22 10q-11 11 -17 22q-7 12 -12 26
q-4 11 -4 18q0 10 16 22q16 11 27 13l75 18q6 101 35 228q43 189 56 247q-13 -7 -15 -10q-11 -8 -28 -22q-6 -5 -18 -14.5t-18 -14.5q-16 -13 -31 -25q-13 -10 -15 -10q-12 0 -28 25q-15 24 -15 47q0 14 12 24zM823 467q0 63 27 106q27 44 68 71q43 28 89 40q48 12 91 12
q45 0 73 -16q31 -18 46 -40t23 -52q7 -27 7 -53q0 -74 -22 -134q-21 -57 -61 -113q-39 -54 -86 -97q-44 -40 -97 -80q73 6 143 6q46 0 71 -19q24 -18 24 -65q0 -21 -13 -21q-21 0 -32 1t-37 1q-71 0 -154 -9q-84 -9 -143 -25q-12 -3 -19 -3q-20 0 -33 13q-11 11 -19 27
q-7 13 -10 30q-3 15 -3 21q0 10 24 23q43 24 63 37q59 38 85 57q48 36 96 85q57 60 78 110q20 47 20 89q0 7 -2 31q-1 17 -8 35q-6 16 -17 27t-30 11q-62 0 -101 -26q-40 -27 -40 -74q0 -41 -25 -54q-22 -11 -41 -11q-13 0 -24 15q-11 16 -11 44z" />
    <glyph glyph-name="threequarters" unicode="&#xbe;" horiz-adv-x="1339" 
d="M1169 608q-1 -18 -8 -66q-7 -47 -12 -88q-4 -31 -12 -89q-5 -35 -11 -68l-8 -51q38 10 46 12q16 4 28 4q16 0 21 -29q6 -38 6 -47q0 -15 -9 -24q-8 -8 -23 -11q-19 -4 -39 -5q-27 -2 -56 -3q-5 -19 -23 -72q-12 -36 -26 -64q-15 -31 -25 -44q-12 -16 -25 -16q-9 0 -22 4
q-16 5 -29 10t-24 13t-11 16q0 4 7 18l18 36q3 7 10 22.5t11 23.5q5 9 22 49l-28 -3q-3 0 -8 -0.5t-8 -1.5q-5 -1 -16 -1h-26q-18 0 -62 2q-12 1 -33 2.5t-30 1.5q-11 1 -30 2.5t-26 1.5q-34 2 -38 2q-14 5 -19 16q-6 12 -6 23v4q-4 11 -4 21q0 16 29 40q29 25 63 70
q43 56 72 115q30 62 57 129q14 34 19 58q6 27 12 45q5 16 15 29q9 12 26 12q18 0 49 -14t31 -29q0 -17 -15 -53q-23 -54 -34 -77l-40 -80q-27 -51 -30 -57q-9 -16 -44 -70q-25 -39 -67 -89q38 -6 58 -7q38 -2 57 -2q42 0 107 7q8 32 26 133q15 85 15 184q0 21 -1 31
q-2 20 -2 24q0 9 11 15q10 6 24 10q15 5 30 6q20 2 24 2q35 0 36 -33zM735 698q-78 -132 -118 -204q-56 -101 -119 -231q-61 -126 -94 -207q-37 -93 -39 -134q-11 -41 -25 -61q-15 -21 -49 -21q-25 0 -47 28q-21 27 -21 87q0 58 37 151q37 92 90 199q47 94 116 209
q58 97 114 184q9 15 31.5 52t35.5 58q8 14 87 143l95 159q12 20 45 74t49 82q18 31 77 133q9 15 20.5 35t19.5 33.5t13 23.5q15 28 22 37q7 10 31 10q34 0 61 -27t27 -69q0 -34 -16 -62q-50 -96 -102 -177q-61 -94 -107 -160q-10 -15 -114 -161q-54 -76 -120 -184zM188 1405
q11 19 42 44q27 22 68 43q39 20 83 32q45 12 88 12q19 0 39 -7q19 -7 38 -21t30 -31q12 -18 12 -39q0 -37 -21 -73q-23 -39 -54 -69q-32 -31 -76 -59q-38 -24 -83 -41q28 -2 69 -6t87 -17q44 -12 75 -37t31 -69q0 -45 -24 -93q-23 -46 -71 -88q-47 -41 -115 -66t-158 -25
q-43 0 -66 19q-26 21 -37 46q-12 27 -15 51t-3 35q0 36 14 44q15 9 27 9q19 0 41 -7q24 -8 24 -29q0 -6 -1 -9t-1 -10q0 -22 11 -42q10 -19 39 -19t66 12q34 11 72 34q32 20 56 48q23 28 23 57q0 19 -14 31q-15 13 -34 20q-25 9 -47 13q-21 4 -49 4q-65 0 -98 12t-33 64
q0 10 4 21t21 22q31 18 58 35q25 16 77 52q37 26 68 55q28 27 28 50q0 3 -5 11t-34 8q-52 0 -82 -18t-51 -39t-33 -39q-11 -17 -24 -17q-22 0 -46 12t-24 29q0 3 2 23q2 16 6 22z" />
    <glyph glyph-name="questiondown" unicode="&#xbf;" horiz-adv-x="1165" 
d="M725 86q1 35 30 73q27 36 70 36q13 0 31 -10q16 -9 31 -28q13 -17 23 -53q9 -31 7 -81q-5 -103 -51 -179q-46 -75 -116 -127q-68 -51 -154 -75q-88 -25 -162 -25q-85 0 -151 30t-109 79t-64 114q-22 70 -18 137q5 101 38 187q35 90 85 162q49 71 115 132q63 58 126 99
q70 45 119 63q57 21 97 21q6 29 6 51q0 26 4 53q6 67 76 62q38 -1 49 -17q11 -15 6 -47q0 -3 -2.5 -15t-4.5 -23q-3 -19 -11 -61q-11 -56 -11 -58q-4 -24 -4 -35q-2 -37 1 -74q3 -41 3 -57q-2 -25 -23 -40t-52 -15q-34 0 -53 13t-19 42q0 24 10 78q-66 -12 -139 -65
t-132 -124q-63 -75 -101 -156q-41 -86 -42 -163q-4 -116 53 -169q56 -52 148 -52q50 0 103 15t97 44t74 69t31 89q1 24 -6 54q-8 32 -8 46zM705 1028q16 49 46 78q33 31 62 31q34 0 52 -29q18 -28 16 -70q-4 -64 -42 -108q-37 -43 -79 -43q-31 0 -48 26q-18 26 -16 68
q0 7 2 23q1 8 7 24z" />
    <glyph glyph-name="Agrave" unicode="&#xc0;" horiz-adv-x="1271" 
d="M227 391q-51 11 -72 30q-22 21 -18 68q1 33 23 51q20 17 50 26q34 10 63 14q6 1 29 3.5t34 4.5q78 141 159 279q92 156 162 261l70 103q25 38 67 95q7 9 27 37.5t30 41.5q25 35 42 57q39 33 74 33q19 0 48 -8q26 -7 51 -23q27 -17 39 -34q15 -20 13 -48q-9 -96 -15 -141
q-12 -91 -24 -203q-12 -106 -21 -215q-9 -106 -9 -176q54 -2 72 -2q35 0 54 -4q21 -4 32 -17q12 -14 12 -40q0 -35 -29 -55q-28 -19 -51 -19q-12 3 -36 5l-52 3q7 -137 35 -226q25 -82 58 -139q32 -56 52 -80q23 -28 23 -50q0 -34 -27 -68q-27 -35 -68 -35q-14 0 -29 6
t-32 23q-43 52 -70 117q-30 71 -47 142q-17 72 -28 153q-12 88 -13 149q-122 -10 -247 -27t-246 -55q-98 -244 -133 -326q-49 -117 -64 -165q-17 -34 -40 -47t-50 -13q-41 0 -64 25q-22 23 -22 63q0 17 6 45l21 45t20 42q4 9 20.5 44.5t25.5 54.5q16 33 48 101q16 35 47 94z
M905 666q0 49 5 137q2 31 6.5 91t5.5 75q8 114 12 170q2 33 6 90t4 61q-99 -112 -212 -292q-100 -160 -220 -382q84 12 110 15q60 6 113 9q78 4 102 5q62 2 68 2v19zM877 1745q-9 13 -9 24q0 30 32 54t65 24q19 0 36 -14q38 -52 82 -96q46 -47 74 -69q40 -33 53 -42l21 -14
q0 -23 -21 -44q-22 -22 -43 -22q-3 0 -25 14q-5 3 -24 14.5t-32 20.5t-39.5 27.5t-36.5 25.5q-47 32 -86 62z" />
    <glyph glyph-name="Aacute" unicode="&#xc1;" horiz-adv-x="1267" 
d="M227 391q-51 11 -72 30q-22 21 -18 68q1 33 23 51q20 17 50 26q34 10 63 14q6 1 29 3.5t34 4.5q78 141 159 279q92 156 162 261l70 103q25 38 67 95q7 9 27 37.5t30 41.5q25 35 42 57q39 33 74 33q19 0 48 -8q26 -7 51 -23q27 -17 39 -34q15 -20 13 -48q-9 -96 -15 -141
q-12 -91 -24 -203q-12 -106 -21 -215q-9 -106 -9 -176q54 -2 72 -2q35 0 54 -4q21 -4 32 -17q12 -14 12 -40q0 -35 -29 -55q-28 -19 -51 -19q-12 3 -36 5l-52 3q7 -137 35 -226q25 -82 58 -139q32 -56 52 -80q23 -28 23 -50q0 -34 -27 -68q-27 -35 -68 -35q-14 0 -29 6
t-32 23q-43 52 -70 117q-30 71 -47 142q-17 72 -28 153q-12 88 -13 149q-122 -10 -247 -27t-246 -55q-98 -244 -133 -326q-49 -117 -64 -165q-17 -34 -40 -47t-50 -13q-41 0 -64 25q-22 23 -22 63q0 17 6 45l21 45t20 42q4 9 20.5 44.5t25.5 54.5q16 33 48 101q16 35 47 94z
M905 666q0 49 5 137q2 31 6.5 91t5.5 75q8 114 12 170q2 33 6 90t4 61q-99 -112 -212 -292q-100 -160 -220 -382q84 12 110 15q60 6 113 9q78 4 102 5q62 2 68 2v19zM1171 1720q-39 -30 -86 -62q-65 -45 -76 -52q-35 -22 -57 -36q-23 -14 -24 -14q-21 0 -43 22
q-21 21 -21 44l21 14q13 9 53 42q28 23 74 69q44 44 82 96q18 15 36 15q32 0 65 -25q32 -24 32 -53q0 -14 -8 -25z" />
    <glyph glyph-name="Acircumflex" unicode="&#xc2;" horiz-adv-x="1325" 
d="M227 391q-51 11 -72 30q-22 21 -18 68q1 33 23 51q20 17 50 26q34 10 63 14q6 1 29 3.5t34 4.5q78 141 159 279q92 156 162 261l70 103q25 38 67 95q7 9 27 37.5t30 41.5q25 35 42 57q39 33 74 33q19 0 48 -8q26 -7 51 -23q27 -17 39 -34q15 -20 13 -48q-9 -96 -15 -141
q-12 -91 -24 -203q-12 -106 -21 -215q-9 -106 -9 -176q54 -2 72 -2q35 0 54 -4q21 -4 32 -17q12 -14 12 -40q0 -35 -29 -55q-28 -19 -51 -19q-12 3 -36 5l-52 3q7 -137 35 -226q25 -82 58 -139q32 -56 52 -80q23 -28 23 -50q0 -34 -27 -68q-27 -35 -68 -35q-14 0 -29 6
t-32 23q-43 52 -70 117q-30 71 -47 142q-17 72 -28 153q-12 88 -13 149q-122 -10 -247 -27t-246 -55q-98 -244 -133 -326q-49 -117 -64 -165q-17 -34 -40 -47t-50 -13q-41 0 -64 25q-22 23 -22 63q0 17 6 45l21 45t20 42q4 9 20.5 44.5t25.5 54.5q16 33 48 101q16 35 47 94z
M905 666q0 49 5 137q2 31 6.5 91t5.5 75q8 114 12 170q2 33 6 90t4 61q-99 -112 -212 -292q-100 -160 -220 -382q84 12 110 15q60 6 113 9q78 4 102 5q62 2 68 2v19zM1104 1851q58 -40 104 -90q48 -53 70 -92q5 -10 4 -20q-2 -12 -11 -31q-10 -21 -21 -34q-14 -17 -23 -23
q-13 -8 -19 -2q-13 13 -27 38q-18 31 -33 55q-20 31 -49 57q-30 27 -75 48q-41 -16 -72 -37q-35 -24 -57 -46q-26 -26 -41 -45q-24 -30 -25 -32q-4 -4 -8 -3q-3 1 -8 1q-11 0 -28 7q-15 6 -27 15q-15 11 -21 21q-8 12 -6 25q4 22 79 82q73 58 200 121q2 1 20 8q11 4 21 4
q12 0 27 -9q5 -3 26 -18z" />
    <glyph glyph-name="Atilde" unicode="&#xc3;" horiz-adv-x="1325" 
d="M227 391q-51 11 -72 30q-22 21 -18 68q1 33 23 51q20 17 50 26q34 10 63 14q6 1 29 3.5t34 4.5q78 141 159 279q92 156 162 261l70 103q25 38 67 95q7 9 27 37.5t30 41.5q25 35 42 57q39 33 74 33q19 0 48 -8q26 -7 51 -23q27 -17 39 -34q15 -20 13 -48q-9 -96 -15 -141
q-12 -91 -24 -203q-12 -106 -21 -215q-9 -106 -9 -176q54 -2 72 -2q35 0 54 -4q21 -4 32 -17q12 -14 12 -40q0 -35 -29 -55q-28 -19 -51 -19q-12 3 -36 5l-52 3q7 -137 35 -226q25 -82 58 -139q32 -56 52 -80q23 -28 23 -50q0 -34 -27 -68q-27 -35 -68 -35q-14 0 -29 6
t-32 23q-43 52 -70 117q-30 71 -47 142q-17 72 -28 153q-12 88 -13 149q-122 -10 -247 -27t-246 -55q-98 -244 -133 -326q-49 -117 -64 -165q-17 -34 -40 -47t-50 -13q-41 0 -64 25q-22 23 -22 63q0 17 6 45l21 45t20 42q4 9 20.5 44.5t25.5 54.5q16 33 48 101q16 35 47 94z
M905 666q0 49 5 137q2 31 6.5 91t5.5 75q8 114 12 170q2 33 6 90t4 61q-99 -112 -212 -292q-100 -160 -220 -382q84 12 110 15q60 6 113 9q78 4 102 5q62 2 68 2v19zM782 1700q0 18 16 37q4 4 13 15t14 17q17 19 41 36q28 20 66 20q26 0 50 -15q25 -15 44 -32q21 -18 39 -33
q17 -14 35 -14q32 0 49 12q18 13 26 26q2 4 7.5 13t8.5 14q7 12 23 12q8 0 21 -5q5 -2 23 -13q11 -7 19 -18q7 -9 5 -21q-4 -23 -24 -42t-45 -36q-24 -16 -52 -25q-30 -10 -47 -10q-43 0 -68 19q-20 15 -36 29q-15 12 -36 27q-22 16 -40 16q-16 0 -27 -12q-13 -15 -18 -25
q-1 -2 -16 -26q-7 -11 -17 -11q-12 0 -20 1q-18 2 -25 5q-13 5 -20 13q-9 11 -9 26z" />
    <glyph glyph-name="Adieresis" unicode="&#xc4;" horiz-adv-x="1310" 
d="M979 1731q-4 -28 -20 -56q-15 -27 -34 -46q-21 -21 -43 -32q-24 -12 -46 -12q-30 0 -48 23q-18 22 -10 67q15 74 60 107t90 33q66 0 51 -84zM1266 1731q-4 -28 -20 -56q-14 -25 -35 -46t-43 -32q-24 -12 -46 -12q-29 0 -47 23q-18 22 -10 67q15 75 59 107q45 33 90 33
q67 0 52 -84zM227 391q-51 11 -72 30q-22 21 -18 68q1 33 23 51q20 17 50 26q34 10 63 14q6 1 29 3.5t34 4.5q78 141 159 279q92 156 162 261l70 103q25 38 67 95q7 9 27 37.5t30 41.5q25 35 42 57q39 33 74 33q19 0 48 -8q26 -7 51 -23q27 -17 39 -34q15 -20 13 -48
q-9 -96 -15 -141q-12 -91 -24 -203q-12 -106 -21 -215q-9 -106 -9 -176q54 -2 72 -2q35 0 54 -4q21 -4 32 -17q12 -14 12 -40q0 -35 -29 -55q-28 -19 -51 -19q-12 3 -36 5l-52 3q7 -137 35 -226q25 -82 58 -139q32 -56 52 -80q23 -28 23 -50q0 -34 -27 -68q-27 -35 -68 -35
q-14 0 -29 6t-32 23q-43 52 -70 117q-30 71 -47 142q-17 72 -28 153q-12 88 -13 149q-122 -10 -247 -27t-246 -55q-98 -244 -133 -326q-49 -117 -64 -165q-17 -34 -40 -47t-50 -13q-41 0 -64 25q-22 23 -22 63q0 17 6 45l21 45t20 42q4 9 20.5 44.5t25.5 54.5q16 33 48 101
q16 35 47 94zM905 666q0 49 5 137q2 31 6.5 91t5.5 75q8 114 12 170q2 33 6 90t4 61q-99 -112 -212 -292q-100 -160 -220 -382q84 12 110 15q60 6 113 9q78 4 102 5q62 2 68 2v19z" />
    <glyph glyph-name="Aring" unicode="&#xc5;" horiz-adv-x="1271" 
d="M227 391q-51 11 -72 30q-22 21 -18 68q1 33 23 51q20 17 50 26q34 10 63 14q6 1 29 3.5t34 4.5q78 141 159 279q92 156 162 261l70 103q25 38 67 95q7 9 27 37.5t30 41.5q25 35 42 57q39 33 74 33q19 0 48 -8q26 -7 51 -23q27 -17 39 -34q15 -20 13 -48q-9 -96 -15 -141
q-12 -91 -24 -203q-12 -106 -21 -215q-9 -106 -9 -176q54 -2 72 -2q35 0 54 -4q21 -4 32 -17q12 -14 12 -40q0 -35 -29 -55q-28 -19 -51 -19q-12 3 -36 5l-52 3q7 -137 35 -226q25 -82 58 -139q32 -56 52 -80q23 -28 23 -50q0 -34 -27 -68q-27 -35 -68 -35q-14 0 -29 6
t-32 23q-43 52 -70 117q-30 71 -47 142q-17 72 -28 153q-12 88 -13 149q-122 -10 -247 -27t-246 -55q-98 -244 -133 -326q-49 -117 -64 -165q-17 -34 -40 -47t-50 -13q-41 0 -64 25q-22 23 -22 63q0 17 6 45l21 45t20 42q4 9 20.5 44.5t25.5 54.5q16 33 48 101q16 35 47 94z
M905 666q0 49 5 137q2 31 6.5 91t5.5 75q8 114 12 170q2 33 6 90t4 61q-99 -112 -212 -292q-100 -160 -220 -382q84 12 110 15q60 6 113 9q78 4 102 5q62 2 68 2v19zM887 1714q0 36 15 67q15 32 42 56t61 39q32 14 68 14q25 0 52 -6q29 -6 52 -21q21 -13 38 -40
q16 -26 16 -64q0 -41 -14 -73q-15 -35 -39 -62t-59 -42t-70 -15q-59 0 -91 16q-33 17 -48 39q-14 21 -19 48q-4 23 -4 44zM1047 1647q38 0 62 28q24 29 24 70q0 21 -12 43t-52 22q-49 0 -69 -35q-21 -36 -21 -75q0 -30 16 -42q15 -11 52 -11z" />
    <glyph glyph-name="AE" unicode="&#xc6;" horiz-adv-x="1773" 
d="M227 391q-51 11 -72 30q-22 21 -18 68q1 33 23 51q20 17 50 26q34 10 63 14q6 1 29 3.5t34 4.5q68 124 115 206q71 122 121 195q68 99 125 168q63 76 124 121q106 81 240 121q130 39 317 39q55 0 114 -7q69 -8 123 -19q71 -14 111 -26q57 -17 80 -30q20 -26 19 -53
q-1 -26 -18 -49q-14 -20 -38 -34q-23 -14 -45 -12q-6 0 -28 12q-9 5 -56 24q-39 16 -73 26q-38 11 -84 16q-86 10 -163 4q-74 -6 -157 -30q27 -7 51 -31q23 -23 23 -47q0 -5 -16 -50q-2 -5 -17 -46.5t-24 -68.5q-39 -112 -51 -151q-29 -93 -44 -159q169 30 295 42
q124 12 236 7q25 0 33 -22t8 -48q0 -33 -19 -46q-16 -11 -49 -11q-70 0 -136 -7q-69 -7 -139 -18q-84 -13 -134 -23q-14 -3 -121 -26q-14 -116 -19 -168q-11 -105 -12 -272q67 7 147 23q51 10 177 38q47 11 115 17q72 6 135 6q47 0 77 -6q31 -6 31 -39q0 -41 -20 -64
q-21 -24 -37 -24q-16 10 -54 10q-63 0 -140 -18q-79 -19 -158 -42q-68 -20 -158 -53q-111 -40 -146 -53q-15 -4 -29 -1t-30 19q-28 4 -54 21q-25 16 -24 49q0 23 5 95q2 23 6 70.5t6 70.5q4 51 14 157q3 30 8 79t6 62h-4q-129 -23 -236 -45q-113 -23 -239 -57
q-89 -221 -140 -327q-56 -116 -71 -166q-17 -34 -40 -47t-50 -13q-41 0 -64 25q-22 23 -22 63q0 17 6 45l21 45t20 42q4 9 20.5 44.5t25.5 54.5q16 33 48 101q16 35 47 94zM928 684q11 62 35 161q26 108 46 180q26 95 46 153q22 64 35 77q-51 -11 -111 -48
q-59 -37 -135 -113q-85 -85 -164 -212q-81 -130 -154 -264z" />
    <glyph glyph-name="Ccedilla" unicode="&#xc7;" horiz-adv-x="1167" 
d="M627 -186q-4 -9 -20 -27l-34 -34q-23 -23 -35 -33q-18 -15 -26 -23q34 -4 68 -26q32 -20 32 -68q0 -43 -30 -82q-11 -16 -37 -39q-18 -16 -49 -39q-26 -20 -46 -31q-21 -12 -28 -12q-19 0 -32 23t-13 47q0 16 10 22q17 5 39 16q25 13 49 29q26 18 42 34q18 18 18 34
q-1 7 -23 22q-20 14 -43 8q-14 -11 -40 -27q-18 -11 -42 -11q-20 0 -27 26q-8 29 -8 45q0 9 35 30q36 22 74 60q15 14 31 34q28 32 30 35q11 11 25 27q10 11 14 11q24 0 45 -18t21 -29v-4zM993 995q4 11 25 48q16 29 16 69q0 62 -48 112t-150 50q-90 0 -169 -49
q-81 -51 -147 -131q-71 -86 -121 -187q-56 -112 -91 -217q-38 -112 -57 -222q-20 -112 -20 -202q0 -66 19 -118q18 -49 49 -85q29 -33 70 -52q37 -17 82 -17q113 0 201 42q94 44 159 107q69 66 119 149q48 80 82 165q24 61 73 61q30 0 47 -23t17 -61q0 -15 -4 -39
q-5 -27 -15 -45q-51 -91 -118 -177q-68 -88 -160 -161q-86 -69 -199 -116q-110 -46 -235 -46q-90 0 -152 35q-60 34 -100 89q-39 54 -60 117q-20 60 -28 117q-8 54 -9 93q-1 26 -1 43q0 100 27 218q26 113 77 239q47 116 119 233q71 115 154 200q85 87 184 139q98 52 205 52
q66 0 127 -21q57 -20 110 -61q49 -38 82 -93q33 -54 39 -117q2 -21 3 -39q1 -12 1 -35q0 -62 -11 -98q-12 -40 -28 -63t-35 -34q-17 -10 -32 -10q-46 0 -73 35q-28 36 -28 76q0 11 4 30z" />
    <glyph glyph-name="Egrave" unicode="&#xc8;" horiz-adv-x="1003" 
d="M160 1247q-13 18 -17 37t-4 35q0 28 33 49t83 36q52 16 113 23q113 13 120 14q80 6 107 7q64 2 71 2q54 0 118 -10q72 -11 128 -28q68 -20 102 -38q41 -21 41 -41q0 -29 -24 -56q-25 -28 -48 -28q-7 0 -29 9q-28 11 -55 21q-30 11 -74 19q-49 9 -84 9q-29 0 -70 -3
q-16 -1 -46.5 -4.5t-37.5 -4.5q-29 -3 -89 -13q-43 -7 -88 -18q34 -4 62 -29t28 -53q0 -1 -19 -50q-36 -93 -45 -116q-26 -66 -54 -152q-32 -96 -46 -159q180 32 301 43q137 12 242 8q24 0 32 -22q9 -25 9 -48q0 -33 -19 -46q-17 -11 -49 -11q-140 0 -273 -21
q-142 -22 -270 -55q-9 -77 -13 -158q-5 -105 -5 -229v-51q65 7 146 23q51 10 177 38q46 11 116 17q72 6 134 6q48 0 78 -6q31 -6 31 -39q0 -40 -21 -64t-37 -24q-16 10 -53 10q-64 0 -140 -18q-79 -19 -158 -42q-74 -22 -159 -53q-18 -7 -48 -18t-53.5 -19.5t-43.5 -15.5
q-15 -4 -30 -1q-13 3 -29 19q-30 5 -55 21t-23 49q0 36 4 87q8 103 10 124q3 31 14 139l13 133q-1 -1 -19 -9q-15 -7 -22 -7q-21 0 -34 9q-12 8 -36 40q-14 21 -17 26q-5 8 -5 23q0 33 46 60q45 26 111 47q9 51 35 159q19 79 47 183q20 75 47 155q23 67 35 80
q-34 -12 -63 -27q-30 -16 -47 -16q-23 0 -40 4q-20 4 -42 39zM500 1767q-8 11 -8 25q0 29 31 53q33 25 65 25q19 0 37 -15q38 -52 82 -96q45 -46 73 -68q33 -27 54 -42l20 -15q0 -24 -20 -44q-21 -21 -43 -21q-6 0 -26 13q-8 5 -26.5 17.5t-28.5 18.5q-29 19 -77 52
q-33 22 -86 63z" />
    <glyph glyph-name="Eacute" unicode="&#xc9;" horiz-adv-x="1003" 
d="M160 1247q-13 18 -17 37t-4 35q0 28 33 49t83 36q52 16 113 23q113 13 120 14q80 6 107 7q64 2 71 2q54 0 118 -10q72 -11 128 -28q68 -20 102 -38q41 -21 41 -41q0 -29 -24 -56q-25 -28 -48 -28q-7 0 -29 9q-28 11 -55 21q-30 11 -74 19q-49 9 -84 9q-29 0 -70 -3
q-16 -1 -46.5 -4.5t-37.5 -4.5q-29 -3 -89 -13q-43 -7 -88 -18q34 -4 62 -29t28 -53q0 -1 -19 -50q-36 -93 -45 -116q-26 -66 -54 -152q-32 -96 -46 -159q180 32 301 43q137 12 242 8q24 0 32 -22q9 -25 9 -48q0 -33 -19 -46q-17 -11 -49 -11q-140 0 -273 -21
q-142 -22 -270 -55q-9 -77 -13 -158q-5 -105 -5 -229v-51q65 7 146 23q51 10 177 38q46 11 116 17q72 6 134 6q48 0 78 -6q31 -6 31 -39q0 -40 -21 -64t-37 -24q-16 10 -53 10q-64 0 -140 -18q-79 -19 -158 -42q-74 -22 -159 -53q-18 -7 -48 -18t-53.5 -19.5t-43.5 -15.5
q-15 -4 -30 -1q-13 3 -29 19q-30 5 -55 21t-23 49q0 36 4 87q8 103 10 124q3 31 14 139l13 133q-1 -1 -19 -9q-15 -7 -22 -7q-21 0 -34 9q-12 8 -36 40q-14 21 -17 26q-5 8 -5 23q0 33 46 60q45 26 111 47q9 51 35 159q19 79 47 183q20 75 47 155q23 67 35 80
q-34 -12 -63 -27q-30 -16 -47 -16q-23 0 -40 4q-20 4 -42 39zM854 1716q-39 -30 -86 -62q-48 -33 -77 -52q-46 -30 -56 -36q-23 -14 -25 -14q-21 0 -43 22q-20 20 -20 44l20 14q21 15 54 42q22 18 73 69q44 44 82 96q17 14 37 14q34 0 65 -24t31 -53q0 -14 -8 -25z" />
    <glyph glyph-name="Ecircumflex" unicode="&#xca;" horiz-adv-x="1003" 
d="M160 1247q-13 18 -17 37t-4 35q0 28 33 49t83 36q52 16 113 23q113 13 120 14q80 6 107 7q64 2 71 2q54 0 118 -10q72 -11 128 -28q68 -20 102 -38q41 -21 41 -41q0 -29 -24 -56q-25 -28 -48 -28q-7 0 -29 9q-28 11 -55 21q-30 11 -74 19q-49 9 -84 9q-29 0 -70 -3
q-16 -1 -46.5 -4.5t-37.5 -4.5q-29 -3 -89 -13q-43 -7 -88 -18q34 -4 62 -29t28 -53q0 -1 -19 -50q-36 -93 -45 -116q-26 -66 -54 -152q-32 -96 -46 -159q180 32 301 43q137 12 242 8q24 0 32 -22q9 -25 9 -48q0 -33 -19 -46q-17 -11 -49 -11q-140 0 -273 -21
q-142 -22 -270 -55q-9 -77 -13 -158q-5 -105 -5 -229v-51q65 7 146 23q51 10 177 38q46 11 116 17q72 6 134 6q48 0 78 -6q31 -6 31 -39q0 -40 -21 -64t-37 -24q-16 10 -53 10q-64 0 -140 -18q-79 -19 -158 -42q-74 -22 -159 -53q-18 -7 -48 -18t-53.5 -19.5t-43.5 -15.5
q-15 -4 -30 -1q-13 3 -29 19q-30 5 -55 21t-23 49q0 36 4 87q8 103 10 124q3 31 14 139l13 133q-1 -1 -19 -9q-15 -7 -22 -7q-21 0 -34 9q-12 8 -36 40q-14 21 -17 26q-5 8 -5 23q0 33 46 60q45 26 111 47q9 51 35 159q19 79 47 183q20 75 47 155q23 67 35 80
q-34 -12 -63 -27q-30 -16 -47 -16q-23 0 -40 4q-20 4 -42 39zM793 1855q58 -40 104 -90q48 -53 70 -92q5 -10 4 -20q-1 -9 -12 -31q-12 -24 -20 -34q-13 -16 -24 -23q-12 -8 -18 -2q-14 14 -28 39q-20 35 -32 54q-19 29 -50 57t-74 48q-41 -16 -72 -37q-35 -24 -57 -46
q-26 -26 -41 -45q-5 -6 -13.5 -16.5t-11.5 -14.5q-5 -5 -8 -4t-8 1q-10 0 -28 7q-17 7 -28 15q-12 9 -20 22q-8 12 -6 24q4 22 79 82q74 59 199 121q1 0 21 8q11 4 20 4q13 0 28 -9q5 -3 26 -18z" />
    <glyph glyph-name="Edieresis" unicode="&#xcb;" horiz-adv-x="1003" 
d="M160 1247q-13 18 -17 37t-4 35q0 28 33 49t83 36q52 16 113 23q113 13 120 14q80 6 107 7q64 2 71 2q54 0 118 -10q72 -11 128 -28q68 -20 102 -38q41 -21 41 -41q0 -29 -24 -56q-25 -28 -48 -28q-7 0 -29 9q-28 11 -55 21q-30 11 -74 19q-49 9 -84 9q-29 0 -70 -3
q-16 -1 -46.5 -4.5t-37.5 -4.5q-29 -3 -89 -13q-43 -7 -88 -18q34 -4 62 -29t28 -53q0 -1 -19 -50q-36 -93 -45 -116q-26 -66 -54 -152q-32 -96 -46 -159q180 32 301 43q137 12 242 8q24 0 32 -22q9 -25 9 -48q0 -33 -19 -46q-17 -11 -49 -11q-140 0 -273 -21
q-142 -22 -270 -55q-9 -77 -13 -158q-5 -105 -5 -229v-51q65 7 146 23q51 10 177 38q46 11 116 17q72 6 134 6q48 0 78 -6q31 -6 31 -39q0 -40 -21 -64t-37 -24q-16 10 -53 10q-64 0 -140 -18q-79 -19 -158 -42q-74 -22 -159 -53q-18 -7 -48 -18t-53.5 -19.5t-43.5 -15.5
q-15 -4 -30 -1q-13 3 -29 19q-30 5 -55 21t-23 49q0 36 4 87q8 103 10 124q3 31 14 139l13 133q-1 -1 -19 -9q-15 -7 -22 -7q-21 0 -34 9q-12 8 -36 40q-14 21 -17 26q-5 8 -5 23q0 33 46 60q45 26 111 47q9 51 35 159q19 79 47 183q20 75 47 155q23 67 35 80
q-34 -12 -63 -27q-30 -16 -47 -16q-23 0 -40 4q-20 4 -42 39zM657 1755q-5 -29 -19 -55q-14 -25 -35 -46t-43 -32q-24 -12 -46 -12q-29 0 -47 22t-10 68q15 74 59 106q45 33 90 33q66 0 51 -84zM944 1755q-5 -29 -19 -55q-14 -25 -35 -46t-43 -32q-24 -12 -46 -12
q-29 0 -47 22q-18 23 -11 68q15 73 60 106t90 33q66 0 51 -84z" />
    <glyph glyph-name="Igrave" unicode="&#xcc;" horiz-adv-x="751" 
d="M244 1442q71 30 155 37q94 8 181 8q112 0 196 -23q83 -23 115 -43q20 -17 20 -49q0 -34 -21 -57t-46 -23q-9 0 -27 13q-13 10 -44 25q-27 14 -69 21t-102 -3q16 -7 21 -39q4 -28 -9 -60q-14 -29 -38 -106q-28 -88 -47 -155q-10 -35 -44 -163q-11 -41 -32 -131
q-16 -81 -19 -97q-8 -46 -19 -128q-12 -90 -16 -136q-6 -69 -6 -124v-43q0 -13 2 -33q-6 -23 -8 -27q11 2 63 9t77 10q59 7 94 14q29 0 48 -29t19 -59q0 -24 -15 -35q-15 -10 -47 -15q-51 -7 -81 -10q-32 -3 -115 -18q-31 -7 -74 -18q-12 -3 -96 -26q-18 -5 -93 -23
q-41 -10 -63 -10q-52 0 -76 25t-24 65q0 35 19 56q18 20 49 29q27 8 71 13q15 2 45.5 4.5t42.5 3.5q-14 16 -16 41q2 15 5.5 56.5t5.5 64.5q8 81 24 170q20 107 34 173q25 114 29 130q10 39 33 134q4 17 19 80.5t24 98.5q16 63 44 175q21 81 38 122q-56 -5 -106 -24
q-65 -25 -91 -37q-41 0 -65 27q-25 28 -25 63q0 20 15 41q14 19 45 35zM424 1769q-8 11 -8 25q0 29 31 53q33 25 65 25q20 0 37 -14q41 -55 82 -97q41 -41 74 -68q40 -33 53 -42l20 -15q0 -24 -20 -44q-21 -21 -43 -21q-6 0 -26 13q-8 5 -26.5 17.5t-28.5 18.5
q-29 19 -77 52q-33 22 -86 63z" />
    <glyph glyph-name="Iacute" unicode="&#xcd;" horiz-adv-x="751" 
d="M244 1442q71 30 155 37q94 8 181 8q112 0 196 -23q83 -23 115 -43q20 -17 20 -49q0 -34 -21 -57t-46 -23q-9 0 -27 13q-13 10 -44 25q-27 14 -69 21t-102 -3q16 -7 21 -39q4 -28 -9 -60q-14 -29 -38 -106q-28 -88 -47 -155q-10 -35 -44 -163q-11 -41 -32 -131
q-16 -81 -19 -97q-8 -46 -19 -128q-12 -90 -16 -136q-6 -69 -6 -124v-43q0 -13 2 -33q-6 -23 -8 -27q11 2 63 9t77 10q59 7 94 14q29 0 48 -29t19 -59q0 -24 -15 -35q-15 -10 -47 -15q-51 -7 -81 -10q-32 -3 -115 -18q-31 -7 -74 -18q-12 -3 -96 -26q-18 -5 -93 -23
q-41 -10 -63 -10q-52 0 -76 25t-24 65q0 35 19 56q18 20 49 29q27 8 71 13q15 2 45.5 4.5t42.5 3.5q-14 16 -16 41q2 15 5.5 56.5t5.5 64.5q8 81 24 170q20 107 34 173q25 114 29 130q10 39 33 134q4 17 19 80.5t24 98.5q16 63 44 175q21 81 38 122q-56 -5 -106 -24
q-65 -25 -91 -37q-41 0 -65 27q-25 28 -25 63q0 20 15 41q14 19 45 35zM737 1720q-39 -30 -86 -62q-48 -33 -77 -52q-46 -30 -56 -36q-23 -14 -24 -14q-21 0 -43 22q-21 21 -21 44l21 14q13 9 53 42q27 23 74 69q40 41 81 96q18 15 37 15q32 0 65 -25q32 -24 32 -53
q0 -12 -9 -25z" />
    <glyph glyph-name="Icircumflex" unicode="&#xce;" horiz-adv-x="751" 
d="M244 1442q71 30 155 37q94 8 181 8q112 0 196 -23q83 -23 115 -43q20 -17 20 -49q0 -34 -21 -57t-46 -23q-9 0 -27 13q-13 10 -44 25q-27 14 -69 21t-102 -3q16 -7 21 -39q4 -28 -9 -60q-14 -29 -38 -106q-28 -88 -47 -155q-10 -35 -44 -163q-11 -41 -32 -131
q-16 -81 -19 -97q-8 -46 -19 -128q-12 -90 -16 -136q-6 -69 -6 -124v-43q0 -13 2 -33q-6 -23 -8 -27q11 2 63 9t77 10q59 7 94 14q29 0 48 -29t19 -59q0 -24 -15 -35q-15 -10 -47 -15q-51 -7 -81 -10q-32 -3 -115 -18q-31 -7 -74 -18q-12 -3 -96 -26q-18 -5 -93 -23
q-41 -10 -63 -10q-52 0 -76 25t-24 65q0 35 19 56q18 20 49 29q27 8 71 13q15 2 45.5 4.5t42.5 3.5q-14 16 -16 41q2 15 5.5 56.5t5.5 64.5q8 81 24 170q20 107 34 173q25 114 29 130q10 39 33 134q4 17 19 80.5t24 98.5q16 63 44 175q21 81 38 122q-56 -5 -106 -24
q-65 -25 -91 -37q-41 0 -65 27q-25 28 -25 63q0 20 15 41q14 19 45 35zM696 1845q61 -42 105 -90q46 -50 69 -92q6 -11 5 -21q-1 -8 -12 -30q-12 -24 -20 -34q-14 -18 -24 -24q-12 -8 -18 -2q-14 14 -28 39q-18 31 -33 55q-20 31 -49 57q-30 27 -75 48q-38 -15 -71 -37
q-38 -26 -58 -46q-26 -26 -41 -45q-13 -16 -24 -32q-4 -4 -8 -3q-3 1 -8 1q-13 0 -28 6q-14 6 -28 16q-13 10 -20 21q-8 12 -6 25q5 23 78 82q73 58 200 121q1 0 21 8q11 4 20 4q13 0 28 -9q4 -3 8.5 -6t9.5 -6.5t7 -5.5z" />
    <glyph glyph-name="Idieresis" unicode="&#xcf;" horiz-adv-x="751" 
d="M244 1442q71 30 155 37q94 8 181 8q112 0 196 -23q83 -23 115 -43q20 -17 20 -49q0 -34 -21 -57t-46 -23q-9 0 -27 13q-13 10 -44 25q-27 14 -69 21t-102 -3q16 -7 21 -39q4 -28 -9 -60q-14 -29 -38 -106q-28 -88 -47 -155q-10 -35 -44 -163q-11 -41 -32 -131
q-16 -81 -19 -97q-8 -46 -19 -128q-12 -90 -16 -136q-6 -69 -6 -124v-43q0 -13 2 -33q-6 -23 -8 -27q11 2 63 9t77 10q59 7 94 14q29 0 48 -29t19 -59q0 -24 -15 -35q-15 -10 -47 -15q-51 -7 -81 -10q-32 -3 -115 -18q-31 -7 -74 -18q-12 -3 -96 -26q-18 -5 -93 -23
q-41 -10 -63 -10q-52 0 -76 25t-24 65q0 35 19 56q18 20 49 29q27 8 71 13q15 2 45.5 4.5t42.5 3.5q-14 16 -16 41q2 15 5.5 56.5t5.5 64.5q8 81 24 170q20 107 34 173q25 114 29 130q10 39 33 134q4 17 19 80.5t24 98.5q16 63 44 175q21 81 38 122q-56 -5 -106 -24
q-65 -25 -91 -37q-41 0 -65 27q-25 28 -25 63q0 20 15 41q14 19 45 35zM580 1751q-4 -27 -20 -55q-14 -25 -35 -46t-43 -32q-24 -12 -46 -12q-29 0 -47 22t-10 68q15 74 59 106q45 33 90 33q67 0 52 -84zM866 1751q-5 -29 -19 -55q-14 -25 -35 -46t-43 -32q-24 -12 -46 -12
q-29 0 -47 22t-10 68q15 74 59 106q45 33 90 33q66 0 51 -84z" />
    <glyph glyph-name="Eth" unicode="&#xd0;" horiz-adv-x="1363" 
d="M715 627q-32 7 -98 15q-57 7 -132 5l-125 -4q-19 -105 -29 -228q-9 -114 -9 -231q0 -28 -22 -44q-21 -15 -54 -15q-36 0 -64 12t-28 43q8 111 22 215q18 132 35 224q-17 -5 -30 -12q-9 -5 -25 -13q-22 -4 -39 5q-18 10 -25 42q-6 30 -10 44q-6 21 2 34q17 25 54 35
q32 9 91 14h13q25 117 46 202q23 94 48 181q-21 -15 -43 -20q-23 -5 -35 -5q-35 0 -63 37q-29 38 -29 78t40 71q43 34 102 56q70 27 141 43q94 22 151 31q73 12 137 18q63 6 99 6q84 0 181 -18q92 -17 181 -63q82 -43 140 -117q57 -73 57 -185q0 -169 -61 -326t-160 -284
t-230 -232q-127 -102 -267 -175q-139 -72 -274 -110q-137 -38 -245 -38q-43 0 -73 5q-25 4 -44 18q-17 12 -23 30t-6 45q0 50 23 68t92 18q133 0 266 29q131 29 251 87q119 58 226 150q110 95 193 218q36 51 70 109q30 51 59 118q27 61 42 126t15 134q0 68 -37 114
q-39 48 -92 74q-56 27 -120 39q-70 13 -119 13q-194 0 -383 -82q10 -10 18 -23t8 -26q0 -8 -4 -19q-43 -99 -75 -191q-32 -90 -56 -198q60 -1 170 -7q66 -4 141 -13q17 -1 39 -23q21 -21 21 -53q0 -24 -16 -40q-15 -15 -29 -11z" />
    <glyph glyph-name="Ntilde" unicode="&#xd1;" horiz-adv-x="1175" 
d="M1079 1507q59 0 83 -17q26 -19 22 -63q-1 -17 -3.5 -65t-4.5 -72l-9 -127q-7 -103 -10 -134q-6 -66 -12 -157q-22 -290 -62 -521q-39 -223 -131 -359q-19 -25 -49 -53q-34 -31 -90 -31q-32 0 -62 18q-31 19 -56 45t-45 59q-21 34 -32 56q-37 73 -72 167q-29 79 -51 155
q-25 87 -38 142q-11 46 -35 134q-20 69 -43 173q-19 86 -39 192q-11 -42 -21 -85q-7 -31 -19 -89q-3 -17 -8.5 -45.5t-7.5 -35.5q-3 -14 -7 -34.5t-5 -26.5q-5 -35 -15 -107q-8 -60 -18 -145q-13 -108 -17 -156q-3 -32 -11 -141q-2 -40 -2 -57v-43q-4 -37 -29 -55
q-25 -19 -61 -19q-34 0 -62 20q-27 19 -28 58q8 78 20 155q5 31 15.5 99.5t16.5 106.5q22 135 40 238q30 168 46 253q27 145 49 251q27 133 52 232q11 30 35 44q25 14 53 14q67 0 95 -49q28 -48 34 -140q7 -121 32 -266q24 -143 54 -278q28 -128 67 -264q38 -135 70 -221
q36 -99 64 -152q31 -58 51 -58t40 38q19 36 37 97q18 60 33 135q21 104 28 149q10 64 19 141q7 66 9 112q6 122 9 215q3 82 1 169q-1 54 -7 151q-4 74 -15 159q5 54 30 69q24 14 72 19zM514 1692q0 19 15 37q5 6 14.5 16.5t13.5 15.5q17 19 41 36q28 20 66 20q26 0 50 -15
q20 -13 44 -33q8 -7 21.5 -18t17.5 -14q18 -15 34 -15q32 0 50 13q17 12 25 26q4 6 10 16t7 11q8 12 23 12q8 0 21 -5q5 -2 23 -13q10 -6 19 -19q7 -9 5 -20q-4 -23 -24 -42t-45 -36q-28 -18 -52 -26q-27 -9 -47 -9q-44 0 -69 19q-28 21 -36 28l-35 28q-21 15 -40 15
q-17 0 -27 -11q-12 -13 -18 -26q-3 -6 -9 -15t-7 -10q-7 -11 -17 -11q-13 0 -21 1q-16 2 -24 5q-15 6 -21 13q-8 10 -8 26z" />
    <glyph glyph-name="Ograve" unicode="&#xd2;" horiz-adv-x="1320" 
d="M1341 868q0 -176 -56 -334q-58 -164 -179 -311q-68 -82 -140 -141q-79 -65 -124 -92q-16 -10 -60 -33q-41 -21 -77 -35q-32 -12 -95 -27q-51 -12 -106 -12q-100 0 -182 33q-84 34 -140 91q-58 59 -89 141q-32 84 -32 184q0 56 12 113q14 66 26 106q14 46 33 89
q18 40 30 69q-19 42 -29 85q-10 44 -10 101q0 97 39 197q45 117 130 196q80 74 173 119q89 43 172 58q88 16 129 16q42 0 108 -8q60 -7 123 -35q106 -45 173 -112q68 -68 105 -143t52 -159q14 -77 14 -156zM209 362q0 -67 20 -126q22 -63 60 -109q40 -48 96 -76t133 -28
q78 0 146 28q69 29 108 51q36 21 101 78q64 57 116 129q91 124 146 281q55 156 55 317q0 127 -43 212t-108 136q-67 53 -139 73q-79 22 -138 22q-63 0 -150 -28q-82 -26 -157 -83q-75 -56 -126 -137q-52 -82 -57 -191q21 31 25 38q13 21 27 38q39 55 103 138q43 56 75 94
q10 10 20 13t21 3q34 0 66 -29t32 -61q0 -21 -16 -41q-29 -24 -80 -80q-61 -66 -105 -123q-26 -33 -62 -84q-31 -45 -52 -80q26 -32 56 -50q29 -17 52 -25q44 -17 76 -44q29 -24 29 -53q0 -30 -19 -46q-18 -15 -45 -21q-25 -6 -55 -4q-25 1 -49 10q-51 16 -119 80
q-16 -45 -30 -106q-13 -56 -13 -116zM657 1767q-8 11 -8 25q0 29 32 53q33 25 64 25q19 0 37 -15q38 -52 82 -96q41 -41 74 -68q40 -33 53 -42l21 -15q0 -23 -21 -44t-43 -21q-5 0 -25 13q-4 3 -14.5 9.5l-21 13t-20.5 13.5q-11 7 -76 52q-32 22 -86 63z" />
    <glyph glyph-name="Oacute" unicode="&#xd3;" horiz-adv-x="1320" 
d="M1341 868q0 -176 -56 -334q-58 -164 -179 -311q-68 -82 -140 -141q-79 -65 -124 -92q-16 -10 -60 -33q-41 -21 -77 -35q-32 -12 -95 -27q-51 -12 -106 -12q-100 0 -182 33q-84 34 -140 91q-58 59 -89 141q-32 84 -32 184q0 56 12 113q14 66 26 106q14 46 33 89
q18 40 30 69q-19 42 -29 85q-10 44 -10 101q0 97 39 197q45 117 130 196q80 74 173 119q89 43 172 58q88 16 129 16q42 0 108 -8q60 -7 123 -35q106 -45 173 -112q68 -68 105 -143t52 -159q14 -77 14 -156zM209 362q0 -67 20 -126q22 -63 60 -109q40 -48 96 -76t133 -28
q78 0 146 28q69 29 108 51q36 21 101 78q64 57 116 129q91 124 146 281q55 156 55 317q0 127 -43 212t-108 136q-67 53 -139 73q-79 22 -138 22q-63 0 -150 -28q-82 -26 -157 -83q-75 -56 -126 -137q-52 -82 -57 -191q21 31 25 38q13 21 27 38q39 55 103 138q43 56 75 94
q10 10 20 13t21 3q34 0 66 -29t32 -61q0 -21 -16 -41q-29 -24 -80 -80q-61 -66 -105 -123q-26 -33 -62 -84q-31 -45 -52 -80q26 -32 56 -50q29 -17 52 -25q44 -17 76 -44q29 -24 29 -53q0 -30 -19 -46q-18 -15 -45 -21q-25 -6 -55 -4q-25 1 -49 10q-51 16 -119 80
q-16 -45 -30 -106q-13 -56 -13 -116zM961 1716q-29 -22 -87 -62q-65 -45 -76 -52q-34 -22 -57 -36t-24 -14q-21 0 -43 22q-21 21 -21 44l21 14q13 9 53 42q27 22 74 69q44 44 82 96q17 14 37 14q32 0 64 -24t32 -53q0 -14 -8 -25z" />
    <glyph glyph-name="Ocircumflex" unicode="&#xd4;" horiz-adv-x="1320" 
d="M1341 868q0 -176 -56 -334q-58 -164 -179 -311q-68 -82 -140 -141q-79 -65 -124 -92q-16 -10 -60 -33q-41 -21 -77 -35q-32 -12 -95 -27q-51 -12 -106 -12q-100 0 -182 33q-84 34 -140 91q-58 59 -89 141q-32 84 -32 184q0 56 12 113q14 66 26 106q14 46 33 89
q18 40 30 69q-19 42 -29 85q-10 44 -10 101q0 97 39 197q45 117 130 196q80 74 173 119q89 43 172 58q88 16 129 16q42 0 108 -8q60 -7 123 -35q106 -45 173 -112q68 -68 105 -143t52 -159q14 -77 14 -156zM209 362q0 -67 20 -126q22 -63 60 -109q40 -48 96 -76t133 -28
q78 0 146 28q69 29 108 51q36 21 101 78q64 57 116 129q91 124 146 281q55 156 55 317q0 127 -43 212t-108 136q-67 53 -139 73q-79 22 -138 22q-63 0 -150 -28q-82 -26 -157 -83q-75 -56 -126 -137q-52 -82 -57 -191q21 31 25 38q13 21 27 38q39 55 103 138q43 56 75 94
q10 10 20 13t21 3q34 0 66 -29t32 -61q0 -21 -16 -41q-29 -24 -80 -80q-61 -66 -105 -123q-26 -33 -62 -84q-31 -45 -52 -80q26 -32 56 -50q29 -17 52 -25q44 -17 76 -44q29 -24 29 -53q0 -30 -19 -46q-18 -15 -45 -21q-25 -6 -55 -4q-25 1 -49 10q-51 16 -119 80
q-16 -45 -30 -106q-13 -56 -13 -116zM901 1845q61 -42 105 -90q46 -50 69 -92q5 -10 4 -20q-1 -12 -11 -31q-12 -24 -20 -34q-14 -18 -24 -24q-12 -8 -18 -2q-14 14 -28 39q-18 31 -33 55q-20 31 -49 57q-30 27 -75 48q-38 -15 -71 -37q-38 -26 -58 -46q-26 -26 -41 -45
q-13 -16 -24 -32q-5 -5 -9 -3q-3 1 -8 1q-12 0 -27 6q-14 6 -28 16q-13 10 -20 21q-8 14 -7 25q4 22 79 82q73 58 200 121q2 1 20 8q11 4 21 4q13 0 28 -9q4 -3 8.5 -6t9.5 -6.5t7 -5.5z" />
    <glyph glyph-name="Otilde" unicode="&#xd5;" horiz-adv-x="1320" 
d="M1341 868q0 -176 -56 -334q-58 -164 -179 -311q-68 -82 -140 -141q-79 -65 -124 -92q-16 -10 -60 -33q-41 -21 -77 -35q-32 -12 -95 -27q-51 -12 -106 -12q-100 0 -182 33q-84 34 -140 91q-58 59 -89 141q-32 84 -32 184q0 56 12 113q14 66 26 106q14 46 33 89
q18 40 30 69q-19 42 -29 85q-10 44 -10 101q0 97 39 197q45 117 130 196q80 74 173 119q89 43 172 58q88 16 129 16q42 0 108 -8q60 -7 123 -35q106 -45 173 -112q68 -68 105 -143t52 -159q14 -77 14 -156zM209 362q0 -67 20 -126q22 -63 60 -109q40 -48 96 -76t133 -28
q78 0 146 28q69 29 108 51q36 21 101 78q64 57 116 129q91 124 146 281q55 156 55 317q0 127 -43 212t-108 136q-67 53 -139 73q-79 22 -138 22q-63 0 -150 -28q-82 -26 -157 -83q-75 -56 -126 -137q-52 -82 -57 -191q21 31 25 38q13 21 27 38q39 55 103 138q43 56 75 94
q10 10 20 13t21 3q34 0 66 -29t32 -61q0 -21 -16 -41q-29 -24 -80 -80q-61 -66 -105 -123q-26 -33 -62 -84q-31 -45 -52 -80q26 -32 56 -50q29 -17 52 -25q44 -17 76 -44q29 -24 29 -53q0 -30 -19 -46q-18 -15 -45 -21q-25 -6 -55 -4q-25 1 -49 10q-51 16 -119 80
q-16 -45 -30 -106q-13 -56 -13 -116zM590 1692q0 19 15 37q5 6 14.5 16.5t13.5 15.5q17 19 41 36q28 20 65 20q27 0 51 -15q20 -13 44 -33q14 -12 38 -32q18 -15 35 -15q31 0 49 13t26 26q2 4 7.5 13.5t8.5 13.5q8 12 24 12q7 0 20 -5q8 -3 24 -13q8 -5 18 -19q7 -10 6 -20
q-4 -23 -24 -42t-45 -36q-28 -18 -52 -26q-27 -9 -47 -9q-44 0 -69 19q-28 21 -36 28l-36 28q-21 15 -40 15q-16 0 -26 -11q-14 -16 -19 -26l-15 -25q-7 -11 -17 -11q-13 0 -21 1q-17 2 -25 5q-13 5 -20 13q-8 10 -8 26z" />
    <glyph glyph-name="Odieresis" unicode="&#xd6;" horiz-adv-x="1320" 
d="M1341 868q0 -176 -56 -334q-58 -164 -179 -311q-68 -82 -140 -141q-79 -65 -124 -92q-16 -10 -60 -33q-41 -21 -77 -35q-32 -12 -95 -27q-51 -12 -106 -12q-100 0 -182 33q-84 34 -140 91q-58 59 -89 141q-32 84 -32 184q0 56 12 113q14 66 26 106q14 46 33 89
q18 40 30 69q-19 42 -29 85q-10 44 -10 101q0 97 39 197q45 117 130 196q80 74 173 119q89 43 172 58q88 16 129 16q42 0 108 -8q60 -7 123 -35q106 -45 173 -112q68 -68 105 -143t52 -159q14 -77 14 -156zM209 362q0 -67 20 -126q22 -63 60 -109q40 -48 96 -76t133 -28
q78 0 146 28q69 29 108 51q36 21 101 78q64 57 116 129q91 124 146 281q55 156 55 317q0 127 -43 212t-108 136q-67 53 -139 73q-79 22 -138 22q-63 0 -150 -28q-82 -26 -157 -83q-75 -56 -126 -137q-52 -82 -57 -191q21 31 25 38q13 21 27 38q39 55 103 138q43 56 75 94
q10 10 20 13t21 3q34 0 66 -29t32 -61q0 -21 -16 -41q-29 -24 -80 -80q-61 -66 -105 -123q-26 -33 -62 -84q-31 -45 -52 -80q26 -32 56 -50q29 -17 52 -25q44 -17 76 -44q29 -24 29 -53q0 -30 -19 -46q-18 -15 -45 -21q-25 -6 -55 -4q-25 1 -49 10q-51 16 -119 80
q-16 -45 -30 -106q-13 -56 -13 -116zM788 1755q-5 -29 -19 -55q-14 -25 -35 -46t-43 -32q-24 -12 -46 -12q-29 0 -47 22t-10 68q15 74 59 106q45 33 90 33q66 0 51 -84zM1075 1755q-5 -29 -19 -55q-14 -25 -35 -46t-43 -32q-24 -12 -46 -12q-29 0 -47 22q-18 23 -11 68
q15 73 60 106t90 33q66 0 51 -84z" />
    <glyph glyph-name="multiply" unicode="&#xd7;" 
d="M311 1057q15 -29 42 -63q13 -17 61 -69q45 -49 65 -70q7 -7 28 -28.5t30 -31.5q34 27 74 65q42 40 63 61q52 51 62 63q32 34 75 75q11 8 31 8q16 0 34 -9q12 -6 31 -23q16 -15 24 -30q9 -18 9 -36q0 -23 -16 -38q-20 -18 -54 -40q-29 -19 -95 -71q-59 -47 -142 -130
q78 -78 120 -119q56 -54 124 -116q8 -18 8 -27q0 -15 -11 -34t-25 -33q-13 -13 -35 -25q-19 -10 -36 -10q-12 0 -26 10q-6 8 -46 60q-9 12 -59 69q-2 2 -62 68q-10 11 -29.5 31t-27.5 30q-92 -78 -156 -147t-124 -121q-13 -11 -33 -11q-30 0 -61 31t-31 72q0 27 18 45
l289 239q-69 70 -122 121q-61 58 -122 113q-6 8 -6 22q0 18 10 35q10 18 26 35q12 14 34 28q16 11 33 11q14 0 28 -10z" />
    <glyph glyph-name="Oslash" unicode="&#xd8;" horiz-adv-x="1320" 
d="M1341 868q0 -177 -56 -335q-57 -162 -179 -310q-68 -82 -140 -141q-79 -65 -124 -92q-16 -10 -60 -33q-41 -21 -77 -35q-32 -12 -95 -27q-51 -12 -106 -12h-10q-5 -12 -5 -20v-19q-7 -39 -19 -59q-12 -21 -36 -21q-18 0 -33 27q-14 25 -14 82q0 13 2 23q-155 35 -241 148
q-87 114 -87 288q0 56 12 113q14 66 26 106q14 46 33 89q18 40 30 69q-19 42 -29 85q-10 44 -10 101q0 97 39 197q45 117 130 196q80 74 173 119q89 43 172 58q88 16 129 16q40 0 93 -6q48 -5 108 -25q5 13 14 37.5t13 35.5q3 8 9.5 24.5t9.5 23.5q8 19 15 26q9 9 19 9
q25 0 44 -31q17 -28 17 -78q0 -5 -2 -23q-2 -14 -6 -24l-21 -55q81 -51 131 -112q52 -65 80 -133q28 -69 40 -142q11 -66 11 -140zM758 694q-32 -72 -59 -145q-29 -78 -63 -176q-39 -113 -61 -184q-29 -93 -49 -166q71 1 140 29q63 25 106 50q36 21 101 78q64 57 116 129
q91 124 146 281q55 156 55 317q0 135 -48 221q-49 87 -118 138q-58 -129 -133 -283q-74 -150 -133 -289zM209 362q0 -109 52 -198q53 -91 153 -125q17 71 47 165q34 106 61 178q33 88 66 171q36 89 59 141q13 32 50 116q33 76 68 160q43 104 75 179q13 29 73 174
q-36 13 -78 20q-44 7 -73 7q-63 0 -150 -28q-82 -26 -157 -83q-75 -56 -126 -137q-52 -82 -57 -191q35 53 65 93q5 7 29 39.5t36 48.5q6 8 27 34.5t31 39.5q27 37 42 53q10 10 20 13t21 3q34 0 66 -29t32 -61q0 -21 -16 -41q-29 -26 -63 -62q-38 -41 -80 -92
q-47 -57 -84 -106q-41 -54 -72 -107q26 -32 56 -50q29 -17 52 -25q44 -17 76 -44q29 -24 29 -53q0 -41 -32 -56q-31 -15 -71 -15q-47 0 -89 18q-40 17 -95 72q-16 -45 -30 -106q-13 -56 -13 -116z" />
    <glyph glyph-name="Ugrave" unicode="&#xd9;" horiz-adv-x="1181" 
d="M1149 1235q10 -72 19 -154q8 -81 11 -138q3 -59 1 -131q-1 -44 -9 -128q-18 -210 -78 -369q-60 -158 -156 -268q-95 -109 -222 -164q-126 -55 -277 -55q-129 0 -210 45q-80 44 -124 122q-43 76 -55 178q-12 104 -2 216q7 90 30 210q15 78 46 209q15 62 49 191
q27 99 41 160q18 75 20 82q11 42 25 68q15 28 34 46q18 17 46 17q44 0 73 -23q30 -24 25 -65q-5 -35 -18 -67t-31 -95q-17 -58 -48 -148q-27 -79 -58 -189q-38 -136 -54 -207q-25 -110 -32 -205q-6 -81 2 -158q7 -71 39 -128q30 -54 86 -86t143 -32q123 0 221 55
q97 54 164 150q68 96 108 225q42 135 54 281q10 119 5 246q-4 112 -34 258q-18 88 -36 138q-23 63 -32 83q-8 18 -21 54q-7 19 -5 50q5 31 33 52q27 20 59 20q33 0 56 -10q24 -11 42 -46q19 -38 35 -105q18 -77 35 -185zM383 1661q-8 11 -8 25q0 29 32 53q31 24 64 24
q20 0 37 -14q38 -52 82 -96q47 -46 74 -69q40 -33 53 -42l20 -14q0 -24 -20 -44q-22 -22 -43 -22q-4 0 -26 14q-4 2 -23 14t-32 21q-3 2 -77 53q-47 32 -86 62z" />
    <glyph glyph-name="Uacute" unicode="&#xda;" horiz-adv-x="1181" 
d="M1149 1235q10 -72 19 -154q8 -81 11 -138q3 -59 1 -131q-1 -44 -9 -128q-18 -210 -78 -369q-60 -158 -156 -268q-95 -109 -222 -164q-126 -55 -277 -55q-129 0 -210 45q-80 44 -124 122q-43 76 -55 178q-12 104 -2 216q7 90 30 210q15 78 46 209q15 62 49 191
q27 99 41 160q18 75 20 82q11 42 25 68q15 28 34 46q18 17 46 17q44 0 73 -23q30 -24 25 -65q-5 -35 -18 -67t-31 -95q-17 -58 -48 -148q-27 -79 -58 -189q-38 -136 -54 -207q-25 -110 -32 -205q-6 -81 2 -158q7 -71 39 -128q30 -54 86 -86t143 -32q123 0 221 55
q97 54 164 150q68 96 108 225q42 135 54 281q10 119 5 246q-4 112 -34 258q-18 88 -36 138q-23 63 -32 83q-8 18 -21 54q-7 19 -5 50q5 31 33 52q27 20 59 20q33 0 56 -10q24 -11 42 -46q19 -38 35 -105q18 -77 35 -185zM752 1716q-39 -30 -86 -62q-48 -33 -77 -52
q-35 -22 -57 -36q-23 -14 -24 -14q-21 0 -43 22q-21 21 -21 44l21 14q13 9 53 42q27 22 74 69q44 44 82 96q17 14 37 14q33 0 64 -24q32 -24 32 -53q0 -14 -8 -25z" />
    <glyph glyph-name="Ucircumflex" unicode="&#xdb;" horiz-adv-x="1181" 
d="M1149 1235q10 -72 19 -154q8 -81 11 -138q3 -59 1 -131q-1 -44 -9 -128q-18 -210 -78 -369q-60 -158 -156 -268q-95 -109 -222 -164q-126 -55 -277 -55q-129 0 -210 45q-80 44 -124 122q-43 76 -55 178q-12 104 -2 216q7 90 30 210q15 78 46 209q15 62 49 191
q27 99 41 160q18 75 20 82q11 42 25 68q15 28 34 46q18 17 46 17q44 0 73 -23q30 -24 25 -65q-5 -35 -18 -67t-31 -95q-17 -58 -48 -148q-27 -79 -58 -189q-38 -136 -54 -207q-25 -110 -32 -205q-6 -81 2 -158q7 -71 39 -128q30 -54 86 -86t143 -32q123 0 221 55
q97 54 164 150q68 96 108 225q42 135 54 281q10 119 5 246q-4 112 -34 258q-18 88 -36 138q-23 63 -32 83q-8 18 -21 54q-7 19 -5 50q5 31 33 52q27 20 59 20q33 0 56 -10q24 -11 42 -46q19 -38 35 -105q18 -77 35 -185zM645 1753q61 -42 105 -90q46 -50 69 -92q6 -10 4 -21
q-1 -11 -11 -30q-12 -24 -20 -34q-14 -18 -24 -24q-12 -8 -18 -2q-14 14 -28 39q-14 24 -33 54q-22 33 -49 58q-30 27 -75 48q-38 -15 -71 -37q-38 -26 -58 -46q-26 -26 -41 -45q-13 -16 -24 -32q-5 -5 -9 -3q-3 1 -8 1q-12 0 -27 6q-14 6 -28 16q-13 10 -20 21q-8 14 -7 25
q4 22 79 82q69 55 200 120q7 4 20 9q11 4 21 4q11 0 28 -10q7 -5 25 -17z" />
    <glyph glyph-name="Udieresis" unicode="&#xdc;" horiz-adv-x="1181" 
d="M1149 1235q10 -72 19 -154q8 -81 11 -138q3 -59 1 -131q-1 -44 -9 -128q-18 -210 -78 -369q-60 -158 -156 -268q-95 -109 -222 -164q-126 -55 -277 -55q-129 0 -210 45q-80 44 -124 122q-43 76 -55 178q-12 104 -2 216q7 90 30 210q15 78 46 209q15 62 49 191
q27 99 41 160q18 75 20 82q11 42 25 68q15 28 34 46q18 17 46 17q44 0 73 -23q30 -24 25 -65q-5 -35 -18 -67t-31 -95q-17 -58 -48 -148q-27 -79 -58 -189q-38 -136 -54 -207q-25 -110 -32 -205q-6 -81 2 -158q7 -71 39 -128q30 -54 86 -86t143 -32q123 0 221 55
q97 54 164 150q68 96 108 225q42 135 54 281q10 119 5 246q-4 112 -34 258q-18 88 -36 138q-23 63 -32 83q-8 18 -21 54q-7 19 -5 50q5 31 33 52q27 20 59 20q33 0 56 -10q24 -11 42 -46q19 -38 35 -105q18 -77 35 -185zM608 1757q-5 -29 -19 -55q-14 -25 -35 -46t-43 -32
q-24 -12 -46 -12q-29 0 -47 22t-10 68q15 74 59 106q45 33 90 33q66 0 51 -84zM895 1757q-5 -29 -19 -55q-14 -25 -35 -46t-43 -32q-24 -12 -46 -12q-29 0 -47 22q-18 23 -11 68q15 73 60 106t90 33q66 0 51 -84z" />
    <glyph glyph-name="Yacute" unicode="&#xdd;" horiz-adv-x="1193" 
d="M500 1348q0 -31 -23 -72q-23 -42 -45 -100q-80 -202 -133 -397q-49 -181 -88 -378q-11 -59 -18 -111q-9 -68 -9 -110q0 -58 11 -80q10 -20 20 -20q25 0 60 16q39 18 78 43q43 27 85 61q61 48 84 68q47 39 107 101q60 61 120 135t117 159q59 89 101 171q13 57 30 122
q19 71 41 143q26 82 49 143t55 126q25 51 55 88q27 33 54 33q109 -2 109 -105q0 -22 -9 -56q-9 -33 -32 -75q-74 -136 -127 -272q-49 -125 -88 -272q-36 -136 -64 -300q-21 -126 -53 -356q-8 -63 -17 -108q-13 -67 -34 -132q-23 -72 -58 -138q-34 -65 -91 -122
q-55 -55 -130 -89q-73 -33 -178 -33q-75 0 -132 12q-61 13 -91 22q-49 15 -70 42q-20 26 -20 51q0 30 23 60q24 32 55 32q20 0 43 -15q12 -8 52 -30q29 -16 68 -30q36 -13 91 -13q93 1 154 49q61 47 97 121q34 70 53 164q14 72 27 178q2 13 4 29t5 36.5t5 32.5q10 70 16 105
q14 80 17 101q3 18 7 47t6 40q-29 -47 -63 -93q-41 -56 -68 -87q-40 -47 -69 -76q-51 -51 -60 -59q-31 -29 -99 -85q-48 -40 -105 -76q-51 -33 -110 -55q-53 -20 -110 -20q-51 0 -82 20q-33 21 -54 51q-23 32 -32 59q-7 20 -14 48q-9 38 -10 64q-1 20 -1 59q0 61 7 110
q11 75 14 103q15 102 36 201q19 92 48 198q33 122 59 203q40 123 68 215q44 119 82 164q39 47 77 47q61 0 79 -35t18 -73zM993 1716q-39 -30 -86 -62q-48 -33 -77 -52q-46 -30 -56 -36q-23 -14 -24 -14q-21 0 -43 22q-21 21 -21 44l21 14q13 9 53 42q27 22 74 69
q40 41 81 96q17 14 37 14q34 0 65 -24q32 -24 32 -53q0 -12 -9 -25z" />
    <glyph glyph-name="Thorn" unicode="&#xde;" horiz-adv-x="1208" 
d="M63 1126q40 28 109 63q80 41 164 73q1 3 7.5 20t12.5 31q17 42 34 83q39 93 41 98q17 42 41 96q20 45 32 76q14 37 16 40q15 27 37 39q23 12 45 12q41 0 64 -22t28 -58q0 -1 -9 -27q-19 -55 -23 -64q-15 -38 -33 -81q-5 -11 -16.5 -39t-17.5 -42q-6 -15 -16 -39l-10 -24
q-11 -25 -12 -30q60 17 126 27q63 10 132 10q74 0 144 -22q74 -23 131 -68t90 -113q32 -66 26 -157q-7 -94 -41 -178q-35 -89 -75 -150q-46 -71 -90 -118q-58 -62 -82 -81q-17 -13 -73 -52q-36 -25 -100 -56q-57 -28 -120 -45q-70 -19 -138 -19q-117 0 -166 33
q-51 34 -47 72q1 19 16 40q14 21 29 34q18 17 35 25q18 9 33 9q7 0 20 -7q15 -8 33 -16q24 -10 48 -17q25 -7 61 -7q43 0 86 12q39 11 81 31q35 17 70 39q36 23 54 37q28 22 58 56q28 32 61 83q32 49 52 104q21 56 25 117q12 133 -63 196q-76 64 -203 64q-83 0 -146 -11
q-72 -12 -147 -40q-56 -131 -96 -244q-47 -133 -66 -202q-11 -37 -30 -138q-16 -86 -27 -186q0 -5 -5 -74q-4 -58 -5 -87q-2 -57 -1 -81q2 -45 5 -61q5 -28 14 -53q4 -11 16 -35q5 -10 11 -26q4 -11 4 -25q-2 -13 -9 -32q-6 -17 -20 -37q-12 -17 -29 -29q-21 -14 -40 -15
q-37 0 -63 32q-25 31 -42 86q-15 50 -20 126q-4 68 2 154q6 63 18 138q12 73 27 145q4 20 13 64.5t14 66.5q14 62 24 95q3 12 15.5 61t20.5 77q21 80 58 186q-49 -31 -63 -41q-38 -26 -43 -31q-16 -8 -29 -8q-34 0 -70 22q-35 21 -30 60q5 35 32 55z" />
    <glyph glyph-name="germandbls" unicode="&#xdf;" horiz-adv-x="1040" 
d="M291 -301q-30 1 -72 14q-41 12 -76 47q-47 47 -62 113t-15 129q0 87 4 160q5 88 20 164q17 92 44 191q24 88 53 179q21 65 55 156q30 80 49 123q4 9 47 114q28 68 72 146q60 107 165 178q107 72 252 72q63 0 118 -22q51 -20 88 -56q36 -35 56 -79q19 -42 19 -91
q0 -73 -36 -136q-35 -62 -90 -115q-50 -48 -117 -98q-84 -62 -116 -86q-61 -46 -91 -77q-35 -36 -35 -74q0 -12 15 -24q18 -15 39 -25q19 -10 51 -22q30 -12 50 -21q94 -40 149 -95q56 -56 56 -130q0 -84 -39 -150t-98 -110q-61 -46 -129 -68q-67 -22 -133 -22
q-82 0 -134 23q-56 25 -90 59q-36 36 -50 73q-15 39 -15 72q0 54 22 72q23 18 48 18q29 0 56 -27q28 -28 28 -57q0 -16 7 -33q8 -19 26 -36q15 -14 52 -28q29 -11 80 -11q63 0 105 19q44 20 71 50q25 28 40 66q14 36 14 65q0 38 -19 59q-16 17 -51 33q-33 15 -81 30
q-45 14 -105 44q-1 1 -37 21q-23 13 -39 29q-21 21 -31 40q-12 23 -12 51q0 67 37 117q40 54 92 95q57 45 119 86q68 46 119 88q53 45 92 102q37 55 37 127q0 59 -41 89t-113 30q-92 0 -157 -48q-63 -47 -109 -116q-47 -70 -74 -139q-11 -28 -27.5 -69.5t-19.5 -47.5
q-24 -54 -64 -170q-27 -77 -70 -235q-33 -121 -58 -258q-23 -126 -23 -240q0 -52 8 -89q7 -34 20 -53t23 -23q13 -5 23 -5h8q21 -2 36 -1q22 2 43 -3q22 -5 37 -15t15 -35q0 -7 -5 -27q-4 -17 -20 -34q-16 -18 -40 -29q-27 -13 -66 -14z" />
    <glyph glyph-name="agrave" unicode="&#xe0;" horiz-adv-x="960" 
d="M920 623q-13 -23 -40 -87q-28 -65 -52 -138q-26 -79 -45 -161q-19 -83 -19 -161q0 -39 8 -58q8 -18 35 -18q25 0 42 13q19 14 30 14q20 0 33 -19q12 -18 12 -41q0 -11 -8 -32q-8 -19 -24 -36q-19 -19 -47 -30q-30 -12 -75 -12q-38 0 -65 18t-42 47q-16 31 -22 67
q-6 38 -6 74q0 61 12 124q2 9 11 56.5t14 73.5q-44 -65 -113 -143q-60 -68 -135 -131q-33 -27 -85 -61q-44 -29 -110 -29q-56 0 -93 29q-35 28 -56 68q-20 39 -28 85q-7 42 -7 78q0 79 27 168q28 93 71 174q44 83 106 164q56 73 128 137q66 59 138 94t138 35q57 0 92 -21
q34 -21 55 -50q18 -26 25 -55q6 -27 6 -40q0 -53 -25 -65q-28 -13 -54 -13q-21 0 -37 14q-13 12 -26 28q-2 2 -10 13t-13 16q-12 13 -27 13q-6 -1 -16.5 -2.5t-15.5 -1.5q-15 -1 -36 -12q-46 -22 -111 -79q-69 -61 -128 -139q-62 -82 -105 -178t-43 -198q0 -63 18 -95
t31 -32q54 0 109 37q59 40 108 93q52 56 100 124q52 72 86 129q40 66 65 110q22 40 40 64q22 30 32 45q15 23 46 23q37 0 70 -24t33 -52q0 -8 -2 -14zM520 1253q-8 11 -8 25q0 29 32 53q33 25 64 25q19 0 37 -15q38 -52 82 -96q41 -41 74 -68q40 -33 53 -42l20 -15
q0 -24 -20 -44q-21 -21 -43 -21q-6 0 -26 13q-8 5 -26.5 17.5t-28.5 18.5q-29 19 -77 52q-33 22 -86 63z" />
    <glyph glyph-name="aacute" unicode="&#xe1;" horiz-adv-x="960" 
d="M846 1212q-39 -30 -86 -62q-48 -33 -77 -52q-46 -30 -56 -36q-22 -13 -25 -13q-22 0 -43 21q-20 20 -20 44l20 14q13 9 53 42q28 23 74 69q44 44 82 96q18 15 37 15q31 0 64 -25q32 -24 32 -53q0 -14 -8 -25zM920 623q-13 -23 -40 -87q-28 -65 -52 -138q-26 -79 -45 -161
q-19 -83 -19 -161q0 -39 8 -58q8 -18 35 -18q25 0 42 13q19 14 30 14q20 0 33 -19q12 -18 12 -41q0 -11 -8 -32q-8 -19 -24 -36q-19 -19 -47 -30q-30 -12 -75 -12q-38 0 -65 18t-42 47q-16 31 -22 67q-6 38 -6 74q0 61 12 124q2 9 11 56.5t14 73.5q-44 -65 -113 -143
q-60 -68 -135 -131q-33 -27 -85 -61q-44 -29 -110 -29q-56 0 -93 29q-35 28 -56 68q-20 39 -28 85q-7 42 -7 78q0 79 27 168q28 93 71 174q44 83 106 164q56 73 128 137q66 59 138 94t138 35q57 0 92 -21q34 -21 55 -50q18 -26 25 -55q6 -27 6 -40q0 -53 -25 -65
q-28 -13 -54 -13q-21 0 -37 14q-13 12 -26 28q-2 2 -10 13t-13 16q-12 13 -27 13q-6 -1 -16.5 -2.5t-15.5 -1.5q-15 -1 -36 -12q-46 -22 -111 -79q-69 -61 -128 -139q-62 -82 -105 -178t-43 -198q0 -63 18 -95t31 -32q54 0 109 37q59 40 108 93q52 56 100 124q52 72 86 129
q40 66 65 110q22 40 40 64q22 30 32 45q15 23 46 23q37 0 70 -24t33 -52q0 -8 -2 -14z" />
    <glyph glyph-name="acircumflex" unicode="&#xe2;" horiz-adv-x="997" 
d="M780 1339q61 -42 105 -90q46 -50 69 -92q5 -10 4 -20q-2 -12 -11 -31q-12 -24 -20 -34q-13 -16 -24 -23q-12 -8 -18 -2q-15 15 -28 38q-18 31 -33 55q-20 31 -49 57q-30 27 -75 48q-38 -15 -71 -37q-38 -26 -58 -46q-26 -26 -41 -45q-13 -16 -24 -32q-4 -4 -8 -3
q-3 1 -9 1q-9 0 -27 7q-17 7 -28 15q-13 10 -20 21q-8 12 -6 25q5 23 78 82q73 58 200 121q1 0 21 8q11 4 20 4q13 0 28 -9q4 -3 8.5 -6t9.5 -6.5t7 -5.5zM920 623q-13 -23 -40 -87q-28 -65 -52 -138q-26 -79 -45 -161q-19 -83 -19 -161q0 -39 8 -58q8 -18 35 -18
q25 0 42 13q19 14 30 14q20 0 33 -19q12 -18 12 -41q0 -11 -8 -32q-8 -19 -24 -36q-19 -19 -47 -30q-30 -12 -75 -12q-38 0 -65 18t-42 47q-16 31 -22 67q-6 38 -6 74q0 61 12 124q2 9 11 56.5t14 73.5q-44 -65 -113 -143q-60 -68 -135 -131q-33 -27 -85 -61
q-44 -29 -110 -29q-56 0 -93 29q-35 28 -56 68q-20 39 -28 85q-7 42 -7 78q0 79 27 168q28 93 71 174q44 83 106 164q56 73 128 137q66 59 138 94t138 35q57 0 92 -21q34 -21 55 -50q18 -26 25 -55q6 -27 6 -40q0 -53 -25 -65q-28 -13 -54 -13q-21 0 -37 14q-13 12 -26 28
q-2 2 -10 13t-13 16q-12 13 -27 13q-6 -1 -16.5 -2.5t-15.5 -1.5q-15 -1 -36 -12q-46 -22 -111 -79q-69 -61 -128 -139q-62 -82 -105 -178t-43 -198q0 -63 18 -95t31 -32q54 0 109 37q59 40 108 93q52 56 100 124q52 72 86 129q40 66 65 110q22 40 40 64q22 30 32 45
q15 23 46 23q37 0 70 -24t33 -52q0 -8 -2 -14z" />
    <glyph glyph-name="atilde" unicode="&#xe3;" horiz-adv-x="968" 
d="M430 1163q0 19 15 37q4 5 14 16t14 17q17 19 41 36q26 19 66 19q28 0 50 -14q20 -13 44 -33q21 -18 39 -33q17 -14 35 -14q32 0 49 12q16 11 25 27q4 6 10 16t7 11q7 12 23 12q8 0 21 -5q1 -1 23 -14q11 -7 19 -18q7 -9 5 -21q-4 -22 -24 -42q-17 -17 -45 -35t-52 -26
q-27 -9 -47 -9q-45 0 -69 18q-20 15 -36 29q-3 3 -9.5 8.5t-13 10.5t-12.5 9q-21 15 -40 15q-17 0 -27 -11q-12 -13 -18 -26q-1 -2 -16 -26q-7 -11 -17 -11q-13 0 -21 1q-16 2 -24 5q-14 5 -21 14q-8 10 -8 25zM920 623q-13 -23 -40 -87q-28 -65 -52 -138q-26 -79 -45 -161
q-19 -83 -19 -161q0 -39 8 -58q8 -18 35 -18q25 0 42 13q19 14 30 14q20 0 33 -19q12 -18 12 -41q0 -11 -8 -32q-8 -19 -24 -36q-19 -19 -47 -30q-30 -12 -75 -12q-38 0 -65 18t-42 47q-16 31 -22 67q-6 38 -6 74q0 61 12 124q2 9 11 56.5t14 73.5q-44 -65 -113 -143
q-60 -68 -135 -131q-33 -27 -85 -61q-44 -29 -110 -29q-56 0 -93 29q-35 28 -56 68q-20 39 -28 85q-7 42 -7 78q0 79 27 168q28 93 71 174q44 83 106 164q56 73 128 137q66 59 138 94t138 35q57 0 92 -21q34 -21 55 -50q18 -26 25 -55q6 -27 6 -40q0 -53 -25 -65
q-28 -13 -54 -13q-21 0 -37 14q-13 12 -26 28q-2 2 -10 13t-13 16q-12 13 -27 13q-6 -1 -16.5 -2.5t-15.5 -1.5q-15 -1 -36 -12q-46 -22 -111 -79q-69 -61 -128 -139q-62 -82 -105 -178t-43 -198q0 -63 18 -95t31 -32q54 0 109 37q59 40 108 93q52 56 100 124q52 72 86 129
q40 66 65 110q22 40 40 64q22 30 32 45q15 23 46 23q37 0 70 -24t33 -52q0 -8 -2 -14z" />
    <glyph glyph-name="adieresis" unicode="&#xe4;" horiz-adv-x="989" 
d="M662 1221q-4 -28 -20 -56q-14 -25 -35 -46t-43 -32q-24 -12 -46 -12q-29 0 -47 23q-18 22 -10 67q15 75 59 107q45 33 90 33q67 0 52 -84zM948 1221q-5 -30 -19 -56q-14 -25 -35 -46t-43 -32q-24 -12 -46 -12q-29 0 -47 23q-18 22 -10 67q15 75 59 107q45 33 90 33
q66 0 51 -84zM920 623q-13 -23 -40 -87q-28 -65 -52 -138q-26 -79 -45 -161q-19 -83 -19 -161q0 -39 8 -58q8 -18 35 -18q25 0 42 13q19 14 30 14q20 0 33 -19q12 -18 12 -41q0 -11 -8 -32q-8 -19 -24 -36q-19 -19 -47 -30q-30 -12 -75 -12q-38 0 -65 18t-42 47
q-16 31 -22 67q-6 38 -6 74q0 61 12 124q2 9 11 56.5t14 73.5q-44 -65 -113 -143q-60 -68 -135 -131q-33 -27 -85 -61q-44 -29 -110 -29q-56 0 -93 29q-35 28 -56 68q-20 39 -28 85q-7 42 -7 78q0 79 27 168q28 93 71 174q44 83 106 164q56 73 128 137q66 59 138 94t138 35
q57 0 92 -21q34 -21 55 -50q18 -26 25 -55q6 -27 6 -40q0 -53 -25 -65q-28 -13 -54 -13q-21 0 -37 14q-13 12 -26 28q-2 2 -10 13t-13 16q-12 13 -27 13q-6 -1 -16.5 -2.5t-15.5 -1.5q-15 -1 -36 -12q-46 -22 -111 -79q-69 -61 -128 -139q-62 -82 -105 -178t-43 -198
q0 -63 18 -95t31 -32q54 0 109 37q59 40 108 93q52 56 100 124q52 72 86 129q40 66 65 110q22 40 40 64q22 30 32 45q15 23 46 23q37 0 70 -24t33 -52q0 -8 -2 -14z" />
    <glyph glyph-name="aring" unicode="&#xe5;" horiz-adv-x="960" 
d="M549 1188q0 34 15 66q16 34 42 57q27 24 61 39q32 14 68 14q25 0 52 -6q26 -6 52 -22q23 -14 39 -40q15 -24 15 -63q0 -42 -14 -74q-15 -34 -39 -61t-59 -42q-37 -16 -70 -16q-56 0 -90 17q-35 17 -49 39q-14 21 -19 48q-4 23 -4 44zM709 1120q38 0 62 29t24 70
q0 21 -12 43t-52 22q-47 0 -68 -36q-22 -38 -22 -74q0 -30 16 -42t52 -12zM920 623q-13 -23 -40 -87q-28 -65 -52 -138q-26 -79 -45 -161q-19 -83 -19 -161q0 -39 8 -58q8 -18 35 -18q25 0 42 13q19 14 30 14q20 0 33 -19q12 -18 12 -41q0 -10 -8 -31t-24 -37
q-19 -19 -47 -30q-30 -12 -75 -12q-38 0 -65 18t-42 47q-16 31 -22 67q-6 37 -6 75q0 60 12 123q2 9 11 56.5t14 73.5q-44 -65 -113 -143q-60 -68 -135 -131q-33 -27 -85 -61q-44 -29 -110 -29q-56 0 -93 29q-35 28 -56 68q-20 39 -28 85q-7 42 -7 78q0 79 27 168
q28 93 71 174q44 83 106 164q56 73 128 137q66 59 138 94t138 35q57 0 92 -21q34 -21 55 -50q18 -26 25 -55q6 -27 6 -40q0 -53 -25 -65q-28 -13 -54 -13q-21 0 -37 14q-13 12 -26 28q-2 2 -10 13t-13 16q-12 13 -27 13q-6 -1 -16.5 -2.5t-15.5 -1.5q-15 -1 -36 -12
q-46 -22 -111 -79q-69 -61 -128 -139q-62 -82 -105 -178t-43 -198q0 -63 18 -95t31 -32q54 0 109 37q59 40 108 93q52 56 100 124q52 72 86 129q40 66 65 110q22 40 40 64q22 30 32 45q15 23 46 23q37 0 70 -24t33 -52q0 -8 -2 -14z" />
    <glyph glyph-name="ae" unicode="&#xe6;" horiz-adv-x="1478" 
d="M227 655q21 61 66 113q47 54 101 93q55 39 120 64q60 23 123 23q83 0 143 -57t60 -191q0 -8 -1 -13t-1 -15q44 73 97 126q54 54 108 90q52 35 105 54q52 19 87 19q95 0 145 -58t50 -135q0 -36 -12 -73q-13 -40 -40 -83q-73 -116 -176 -176q-104 -61 -274 -61
q-54 0 -105 6q-13 -31 -20 -66q-8 -40 -8 -77t8 -77t27 -69q20 -31 52 -49t76 -18q87 0 151 35q68 37 108 77q35 35 57 69q8 12 41 59q19 27 39 41q22 16 53 16q51 0 45 -52q-7 -56 -55 -124q-43 -61 -117 -122q-69 -57 -154 -95t-163 -38q-59 0 -111 26q-50 25 -90 65
q-41 41 -64 87q-25 49 -32 95q-20 -22 -76 -78q-47 -47 -102 -86q-64 -45 -121 -70q-65 -28 -136 -28q-84 0 -135 53q-51 52 -51 149q0 120 64 213q65 94 174 144q87 41 195 50q110 9 220 9q6 32 11 63q6 41 6 93q0 135 -88 135q-86 0 -139 -37q-54 -38 -90 -81
q-34 -41 -58 -81q-22 -37 -43 -37q-22 0 -47 22t-25 46q0 6 2 12zM668 383q-15 4 -47 4h-56q-55 0 -118 -10q-66 -11 -125 -37q-62 -28 -101 -73q-41 -47 -41 -115q0 -58 30 -93q30 -34 66 -34q52 0 117 40t125 97q59 56 102 119q42 61 48 102zM1245 799q-47 0 -99 -27
q-54 -28 -102 -67q-47 -39 -90 -94q-40 -52 -67 -103q24 -2 37 -2h37q119 0 201 58q83 59 120 136q18 40 5 69q-13 30 -42 30z" />
    <glyph glyph-name="ccedilla" unicode="&#xe7;" horiz-adv-x="854" 
d="M762 598q-48 0 -69 23t-5 67q10 28 5 56q-4 25 -20 42q-15 17 -38 26t-45 9q-102 0 -180 -63q-77 -62 -130 -155q-54 -94 -80 -193q-28 -106 -28 -181q0 -26 5 -64q4 -33 20 -63q17 -31 36 -47q23 -18 60 -18q74 0 130 25q55 25 98 66q45 43 74 85q28 40 58 85
q25 37 52 66q24 25 53 25q23 0 38 -15t15 -46q0 -17 -17 -52q-15 -32 -50 -83q-38 -57 -77 -99q-47 -51 -105 -93q-61 -44 -128 -70q-69 -27 -147 -27q-87 0 -139 40t-79 94q-28 57 -37 113q-9 59 -9 95q0 74 21 157q21 84 61 162q40 79 95 152q52 70 121 126q67 55 141 86
q76 32 154 32q40 0 90 -16q43 -14 81 -44q37 -29 58 -71q21 -43 17 -97q-5 -62 -17 -88q-13 -29 -30 -39q-17 -11 -32 -9q-10 1 -21 1zM463 -139q-4 -9 -20 -27q-10 -11 -33 -34q-12 -12 -36 -32q-12 -10 -26 -24q34 -4 68 -26q33 -21 33 -68q0 -42 -31 -82q-11 -16 -37 -39
q-18 -16 -49 -39q-26 -20 -46 -31q-21 -12 -28 -12q-18 0 -32 24q-13 23 -13 46q0 16 10 22q13 4 39 17q30 15 49 28q26 18 42 34q18 18 18 34q-1 6 -23 22q-21 15 -43 9q-20 -16 -40 -28q-18 -11 -42 -11q-19 0 -26 26q-9 32 -9 45q0 9 35 30q36 22 74 60q15 14 31 34
q28 32 30 35q11 11 25 27q10 11 14 11q25 0 45 -17q21 -18 21 -30v-4z" />
    <glyph glyph-name="egrave" unicode="&#xe8;" horiz-adv-x="843" 
d="M467 1251q-8 11 -8 25q0 29 31 53q33 25 65 25q19 0 37 -15q38 -52 82 -96q41 -41 74 -68q40 -33 53 -42l20 -15q0 -24 -20 -44q-21 -21 -43 -21q-6 0 -26 13q-8 5 -26.5 17.5t-28.5 18.5q-29 19 -77 52q-32 22 -86 63zM604 961q37 0 69 -17q31 -16 54 -44q23 -27 36 -61
q13 -33 13 -71q0 -60 -24 -115q-22 -51 -59 -104q-41 -58 -67 -87q-12 -13 -30 -33.5t-25 -27.5q-24 -27 -49 -49q-31 -29 -77 -60q-43 -29 -95 -51q-53 -22 -106 -22q-31 0 -56 7q-27 7 -47 22q-2 -28 2 -61q4 -36 21 -74q16 -37 49 -64q32 -26 88 -26q30 0 66 10
q103 29 155 72t85 90q10 15 29 41.5t27 37.5q24 35 64 45q30 6 47 -1q19 -8 19 -44q0 -16 -12 -45q-15 -36 -31 -62q-18 -29 -47 -67q-22 -28 -56 -59q-67 -58 -152 -102q-87 -45 -184 -45q-76 0 -125 23q-53 25 -84 59q-33 36 -51 79q-19 46 -26 82q-9 46 -10 68
q-1 19 -1 37q0 139 59 271t146 229q89 99 192 159t193 60zM627 758q0 26 -19 34q-17 7 -43 2q-22 -4 -51 -17q-9 -4 -45 -19q-53 -26 -100 -68q-44 -39 -81 -89q-35 -47 -63 -98q-26 -47 -45 -97q14 6 24 1q8 -4 15 -15q6 -9 14 -17t23 -8q32 0 65 13q28 11 63 32
q26 16 54 40q32 28 41 37q3 3 40 49q23 29 49 69q21 32 41 78q18 40 18 73z" />
    <glyph glyph-name="eacute" unicode="&#xe9;" horiz-adv-x="827" 
d="M750 1212q-39 -30 -86 -62q-48 -33 -77 -52q-35 -22 -57 -36q-22 -13 -24 -13q-22 0 -43 21t-21 44l21 14q13 9 53 42q27 23 74 69q44 44 82 96q18 15 37 15q31 0 64 -25q32 -24 32 -53q0 -14 -8 -25zM604 961q37 0 69 -17q31 -16 54 -44q23 -27 36 -61q13 -33 13 -71
q0 -60 -24 -115q-22 -51 -59 -104q-41 -58 -67 -87q-12 -13 -30 -33.5t-25 -27.5q-24 -27 -49 -49q-31 -29 -77 -60q-43 -29 -95 -51q-53 -22 -106 -22q-31 0 -56 7q-27 7 -47 22q-2 -28 2 -61q4 -36 21 -74q16 -37 49 -64q32 -26 88 -26q30 0 66 10q103 29 155 72t85 90
q10 15 29 41.5t27 37.5q24 35 64 45q30 6 47 -1q19 -8 19 -44q0 -16 -12 -45q-15 -36 -31 -62q-18 -29 -47 -67q-22 -28 -56 -59q-67 -58 -152 -102q-87 -45 -184 -45q-76 0 -125 23q-53 25 -84 59q-33 36 -51 79q-19 46 -26 82q-9 46 -10 68q-1 19 -1 37q0 139 59 271
t146 229q89 99 192 159t193 60zM627 758q0 26 -19 34q-17 7 -43 2q-22 -4 -51 -17q-9 -4 -45 -19q-53 -26 -100 -68q-44 -39 -81 -89q-35 -47 -63 -98q-26 -47 -45 -97q14 6 24 1q8 -4 15 -15q6 -9 14 -17t23 -8q32 0 65 13q28 11 63 32q26 16 54 40q32 28 41 37q3 3 40 49
q23 29 49 69q21 32 41 78q18 40 18 73z" />
    <glyph glyph-name="ecircumflex" unicode="&#xea;" horiz-adv-x="903" 
d="M700 1331q61 -42 105 -90q46 -50 69 -92q6 -11 5 -21q-1 -8 -12 -30q-12 -24 -20 -34q-14 -18 -24 -24q-12 -8 -18 -2q-14 14 -28 39q-18 31 -33 55q-20 31 -49 57q-31 28 -74 48q-41 -16 -72 -37q-35 -24 -57 -46q-26 -26 -41 -45q-24 -30 -25 -32q-4 -4 -8 -3
q-3 1 -8 1q-13 0 -28 6q-14 6 -28 16q-13 10 -20 21q-8 12 -6 25q4 22 79 82q74 59 199 121q1 0 21 8q11 4 20 4q13 0 28 -9q4 -3 8.5 -6t9.5 -6.5t7 -5.5zM604 961q37 0 69 -17q31 -16 54 -44q23 -27 36 -61q13 -33 13 -71q0 -60 -24 -115q-22 -51 -59 -104
q-41 -58 -67 -87q-12 -13 -30 -33.5t-25 -27.5q-24 -27 -49 -49q-31 -29 -77 -60q-43 -29 -95 -51q-53 -22 -106 -22q-31 0 -56 7q-27 7 -47 22q-2 -28 2 -61q4 -36 21 -74q16 -37 49 -64q32 -26 88 -26q30 0 66 10q103 29 155 72t85 90q10 15 29 41.5t27 37.5q24 35 64 45
q30 6 47 -1q19 -8 19 -44q0 -16 -12 -45q-15 -36 -31 -62q-18 -29 -47 -67q-22 -28 -56 -59q-67 -58 -152 -102q-87 -45 -184 -45q-76 0 -125 23q-53 25 -84 59q-33 36 -51 79q-19 46 -26 82q-9 46 -10 68q-1 19 -1 37q0 139 59 271t146 229q89 99 192 159t193 60zM627 758
q0 26 -19 34q-17 7 -43 2q-22 -4 -51 -17q-9 -4 -45 -19q-53 -26 -100 -68q-44 -39 -81 -89q-35 -47 -63 -98q-26 -47 -45 -97q14 6 24 1q8 -4 15 -15q6 -9 14 -17t23 -8q32 0 65 13q28 11 63 32q26 16 54 40q32 28 41 37q3 3 40 49q23 29 49 69q21 32 41 78q18 40 18 73z
" />
    <glyph glyph-name="edieresis" unicode="&#xeb;" horiz-adv-x="888" 
d="M575 1227q-5 -30 -19 -56q-14 -25 -35 -46q-19 -19 -43 -31q-26 -13 -46 -13q-29 0 -47 23q-18 22 -10 67q15 75 59 107q45 33 90 33q66 0 51 -84zM862 1227q-5 -30 -19 -56q-14 -25 -35 -46q-19 -19 -43 -31q-26 -13 -46 -13q-29 0 -47 23q-18 22 -10 67q15 75 59 107
q45 33 90 33q66 0 51 -84zM604 961q37 0 69 -17q31 -16 54 -44q23 -27 36 -61q13 -33 13 -71q0 -60 -24 -115q-22 -51 -59 -104q-41 -58 -67 -87q-12 -13 -30 -33.5t-25 -27.5q-24 -27 -49 -49q-31 -29 -77 -60q-43 -29 -95 -51q-53 -22 -106 -22q-31 0 -56 7q-27 7 -47 22
q-2 -28 2 -61q4 -36 21 -74q16 -37 49 -64q32 -26 88 -26q30 0 66 10q103 29 155 72t85 90q10 15 29 41.5t27 37.5q24 35 64 45q30 6 47 -1q19 -8 19 -44q0 -16 -12 -45q-15 -36 -31 -62q-18 -29 -47 -67q-22 -28 -56 -59q-67 -58 -152 -102q-87 -45 -184 -45q-76 0 -125 23
q-53 25 -84 59q-33 36 -51 79q-19 46 -26 82q-9 46 -10 68q-1 19 -1 37q0 139 59 271t146 229q89 99 192 159t193 60zM627 758q0 26 -19 34q-17 7 -43 2q-22 -4 -51 -17q-9 -4 -45 -19q-53 -26 -100 -68q-44 -39 -81 -89q-35 -47 -63 -98q-26 -47 -45 -97q14 6 24 1
q8 -4 15 -15q6 -9 14 -17t23 -8q32 0 65 13q28 11 63 32q26 16 54 40q32 28 41 37q3 3 40 49q23 29 49 69q21 32 41 78q18 40 18 73z" />
    <glyph glyph-name="igrave" unicode="&#xec;" horiz-adv-x="489" 
d="M348 899q37 -16 49 -41q12 -24 -6 -65q-35 -66 -54 -126q-4 -12 -18 -56t-22 -68q-27 -88 -46 -177q-22 -105 -28 -223q-4 -34 14 -56q19 -23 42 -24q21 0 35 8q15 8 24 16q19 16 20 17q12 8 27 7q23 0 47 -18t23 -46q0 -2 -10 -22t-31 -38t-59 -34q-33 -14 -87 -12
q-81 5 -121 42q-41 38 -56 90q-15 54 -11 108q5 64 10 100q10 68 32 159q21 91 40 157q26 93 41 139q4 12 16.5 51.5t18.5 56.5q16 41 41 57q23 15 69 -2zM195 1245q-9 13 -9 25q0 29 32 53q33 25 65 25q18 0 36 -15q38 -52 82 -96q46 -47 74 -69q40 -33 53 -42l21 -14
q0 -23 -21 -44t-43 -21q-5 0 -25 13l-56 36q-11 7 -76 52q-47 32 -86 62z" />
    <glyph glyph-name="iacute" unicode="&#xed;" horiz-adv-x="489" 
d="M348 899q37 -16 49 -41q12 -24 -6 -65q-35 -66 -54 -126q-4 -12 -18 -56t-22 -68q-27 -88 -46 -177q-22 -105 -28 -223q-4 -34 14 -56q19 -23 42 -24q21 0 35 8q15 8 24 16q19 16 20 17q12 8 27 7q23 0 47 -18t23 -46q0 -2 -10 -22t-31 -38t-59 -34q-33 -14 -87 -12
q-81 5 -121 42q-41 38 -56 90q-15 54 -11 108q5 64 10 100q10 68 32 159q21 91 40 157q26 93 41 139q4 12 16.5 51.5t18.5 56.5q16 41 41 57q23 15 69 -2zM508 1204q-39 -30 -86 -62q-48 -33 -77 -52q-46 -30 -56 -36q-23 -14 -25 -14q-21 0 -43 22q-20 20 -20 44l20 14
q13 9 53 42q27 23 74 69q44 44 82 96q17 14 37 14q33 0 64 -24q32 -24 32 -53q0 -14 -8 -25z" />
    <glyph glyph-name="icircumflex" unicode="&#xee;" horiz-adv-x="489" 
d="M348 899q37 -16 49 -41q12 -24 -6 -65q-35 -66 -54 -126q-4 -12 -18 -56t-22 -68q-27 -88 -46 -177q-22 -105 -28 -223q-4 -34 14 -56q19 -23 42 -24q21 0 35 8q15 8 24 16q19 16 20 17q12 8 27 7q23 0 47 -18t23 -46q0 -2 -10 -22t-31 -38t-59 -34q-33 -14 -87 -12
q-81 5 -121 42q-41 38 -56 90q-15 54 -11 108q5 64 10 100q10 68 32 159q21 91 40 157q26 93 41 139q4 12 16.5 51.5t18.5 56.5q16 41 41 57q23 15 69 -2zM479 1325q61 -42 105 -90q46 -50 69 -92q6 -10 4 -21q-1 -11 -11 -30q-12 -24 -20 -34q-14 -18 -24 -24
q-12 -8 -18 -2q-14 14 -28 39q-14 24 -33 54q-22 33 -49 58q-30 27 -75 48q-38 -15 -71 -37q-38 -26 -58 -46q-26 -26 -41 -45q-13 -16 -24 -32q-4 -4 -8 -3q-3 1 -9 1q-12 0 -27 6q-14 6 -28 16q-13 10 -20 21q-8 14 -7 25q4 22 79 82q69 55 200 120q5 3 21 9q11 4 20 4
q11 0 28 -10q7 -4 25 -17z" />
    <glyph glyph-name="idieresis" unicode="&#xef;" horiz-adv-x="489" 
d="M348 899q37 -16 49 -41q12 -24 -6 -65q-35 -66 -54 -126q-4 -12 -18 -56t-22 -68q-27 -88 -46 -177q-22 -105 -28 -223q-4 -34 14 -56q19 -23 42 -24q21 0 35 8q15 8 24 16q19 16 20 17q12 8 27 7q23 0 47 -18t23 -46q0 -2 -10 -22t-31 -38t-59 -34q-33 -14 -87 -12
q-81 5 -121 42q-41 38 -56 90q-15 54 -11 108q5 64 10 100q10 68 32 159q21 91 40 157q26 93 41 139q4 12 16.5 51.5t18.5 56.5q16 41 41 57q23 15 69 -2zM348 1217q-5 -30 -19 -56q-14 -25 -35 -46t-43 -32q-24 -12 -46 -12q-29 0 -47 23t-11 67q15 74 60 107q44 32 90 32
q66 0 51 -83zM635 1217q-4 -28 -20 -56q-15 -27 -34 -46q-21 -21 -43 -32q-24 -12 -46 -12q-30 0 -48 23q-18 22 -10 67q15 74 60 107q44 32 90 32q66 0 51 -83z" />
    <glyph glyph-name="eth" unicode="&#xf0;" horiz-adv-x="917" 
d="M915 1251q-24 -4 -49 -9q-21 -4 -49 -15q35 -85 51 -180q17 -97 17 -189q0 -172 -37 -342q-37 -171 -111 -311q-73 -139 -185 -228q-110 -88 -261 -88q-89 0 -138 36q-52 37 -76 85q-26 51 -32 99q-6 49 -6 73q0 82 22 164q23 85 69 167q47 84 115 162q69 79 163 148
q20 15 55 36q23 14 65 32q28 12 73 23q42 10 75 10q38 0 65 -27q-6 71 -21 145q-15 73 -44 134q-59 -28 -78 -40q-30 -18 -63 -51q-13 -13 -28 -8q-16 5 -28 17q-13 13 -21 29q-9 18 -9 32q0 19 15 35q15 17 41 32q20 12 58 29l66 29q-27 28 -64 54q-35 24 -80 24
q-12 0 -29 -4t-30 -4q-34 0 -54 15t-20 73q0 29 18 50t70 21q116 0 198 -55q84 -57 134 -137q12 5 58 20q33 11 49 11q14 0 36 -16q21 -15 21 -44q0 -32 -21 -37zM297 12q68 0 144 53t140 144q63 90 109 219q44 126 55 279q-23 -6 -34 2t-18 19q-8 13 -18 23q-11 11 -38 11
q-28 0 -68 -17q-42 -18 -59 -30q-81 -56 -141 -124q-65 -73 -103 -139q-40 -71 -62 -135q-22 -66 -22 -108q0 -35 6 -71q6 -35 20 -63q13 -26 35 -45q21 -18 54 -18z" />
    <glyph glyph-name="ntilde" unicode="&#xf1;" horiz-adv-x="921" 
d="M328 1163q0 19 15 37q4 5 14 16t14 17q17 19 41 36q26 19 65 19q28 0 50 -14q20 -13 44 -33q21 -18 39 -33q17 -14 35 -14q33 0 49 12q17 13 26 27q2 4 7.5 13.5t8.5 13.5q8 12 24 12q7 0 20 -5q4 -2 24 -14q9 -6 18 -18q7 -9 5 -21q-5 -24 -23 -42q-17 -17 -45 -35
t-52 -26q-27 -9 -48 -9q-44 0 -68 18q-20 15 -36 29l-36 28q-21 15 -40 15q-16 0 -26 -11q-14 -16 -19 -26t-15 -26q-7 -11 -18 -11q-12 0 -20 1q-17 2 -25 5q-12 5 -20 14q-8 10 -8 25zM367 840q-12 -18 -32 -73q-14 -39 -34 -111q-17 -60 -30 -117q-12 -49 -19 -95
q0 -1 -7 -47q-1 -6 -5 -29.5t-6 -37.5l-9 -75q-4 -37 -6 -67q40 70 141 247q68 119 148 218q6 8 19 23.5t17 20.5q19 24 43 43q25 20 52 33t63 13q50 0 76 -25q26 -24 40 -61q15 -37 16 -72q2 -50 2 -65q0 -72 -8 -155q-7 -73 -7 -156q0 -95 14 -143q14 -50 29 -71
q16 -24 30 -39q13 -14 13 -50q0 -26 -24 -50t-52 -24q-35 0 -66 28q-30 27 -49 73q-20 47 -30 103q-10 54 -10 116q0 97 15 196q16 106 16 182v54q0 30 -11 30q-34 -18 -76 -67q-41 -49 -85 -115q-40 -61 -86 -140q-28 -48 -80 -144q-56 -103 -66 -122q-35 -66 -43 -79
q-6 -13 -21 -17q-13 -4 -36 -4q-51 0 -93 20q-40 19 -40 66q0 32 7 75q8 48 15 112q5 55 16 127q7 45 15 97q1 8 17 97q10 55 24 125q10 48 18 95q7 42 20 77t26 51q16 19 38 19q26 0 43 -10q21 -12 31 -25q11 -13 19 -30q8 -16 8 -25z" />
    <glyph glyph-name="ograve" unicode="&#xf2;" horiz-adv-x="894" 
d="M477 1245q-8 11 -8 25q0 29 32 53q33 25 64 25q19 0 37 -15q38 -52 82 -96q46 -47 74 -69q40 -33 53 -42l20 -14q0 -24 -20 -44q-21 -21 -43 -21q-6 0 -26 13q-8 5 -26.5 17.5t-28.5 18.5q-29 19 -77 52q-47 32 -86 62zM815 389q-26 -74 -75 -161q-47 -84 -112 -158
q-63 -72 -145 -126q-79 -52 -172 -63q-77 -10 -135 15q-55 24 -89 67q-33 41 -48 99q-14 53 -14 112q0 76 17 151t48 157q30 78 71 152q42 75 85 132q39 51 80 92q48 48 77 70q36 28 68 45q29 16 49 16q41 0 58 -35q16 -34 12 -75q6 2 18 4.5t17 3.5q16 4 41 4q62 0 103 -27
q40 -27 62 -66q24 -43 31 -84q8 -46 8 -77q0 -83 -20 -144q-28 -85 -35 -104zM256 29q58 -12 99 -1q44 12 89 42q42 29 77 71q37 44 71 97q29 45 59 103q29 57 45 95q13 30 26 79q13 48 13 103q0 68 -16 94q-17 27 -39 27q-26 0 -47 -14t-43 -14q-16 0 -34 9t-32 23
q-14 13 -20 33q-6 18 2 35q-67 -37 -130 -109q-64 -74 -111 -158q-49 -89 -77 -180t-28 -174q0 -49 9 -79q10 -32 24 -48q16 -18 30 -24q19 -9 33 -10z" />
    <glyph glyph-name="oacute" unicode="&#xf3;" horiz-adv-x="894" 
d="M780 1217q-54 -41 -86 -63q-48 -33 -77 -52q-46 -30 -56 -36q-22 -13 -24 -13q-22 0 -43 21t-21 44l21 15q13 9 53 42q33 27 74 68t81 96q18 15 37 15q32 0 65 -25q32 -24 32 -53q0 -12 -9 -25zM815 389q-26 -74 -75 -161q-47 -84 -112 -158q-63 -72 -145 -126
q-79 -52 -172 -63q-77 -10 -135 15q-55 24 -89 67q-33 41 -48 99q-14 53 -14 112q0 76 17 151t48 157q30 78 71 152q42 75 85 132q39 51 80 92q48 48 77 70q36 28 68 45q29 16 49 16q41 0 58 -35q16 -34 12 -75q6 2 18 4.5t17 3.5q16 4 41 4q62 0 103 -27q40 -27 62 -66
q24 -43 31 -84q8 -46 8 -77q0 -83 -20 -144q-28 -85 -35 -104zM256 29q58 -12 99 -1q44 12 89 42q42 29 77 71q37 44 71 97q29 45 59 103q29 57 45 95q13 30 26 79q13 48 13 103q0 68 -16 94q-17 27 -39 27q-26 0 -47 -14t-43 -14q-16 0 -34 9t-32 23q-14 13 -20 33
q-6 18 2 35q-67 -37 -130 -109q-64 -74 -111 -158q-49 -89 -77 -180t-28 -174q0 -49 9 -79q10 -32 24 -48q16 -18 30 -24q19 -9 33 -10z" />
    <glyph glyph-name="ocircumflex" unicode="&#xf4;" horiz-adv-x="923" 
d="M721 1327q58 -40 104 -90q48 -53 70 -92q6 -10 4 -21q-1 -11 -11 -30q-10 -21 -21 -34q-15 -19 -23 -24q-13 -8 -19 -2q-12 12 -27 39q-14 24 -33 54q-22 33 -49 58q-30 27 -75 48q-41 -16 -72 -37q-35 -24 -57 -46q-26 -26 -41 -45q-24 -30 -25 -32q-4 -4 -8 -3
q-3 1 -8 1q-13 0 -28 6q-12 5 -27 16t-21 21q-8 12 -6 25q4 22 79 82q69 55 200 120q7 4 20 9q11 4 21 4q12 0 27 -9q5 -3 26 -18zM815 389q-26 -74 -75 -161q-47 -84 -112 -158q-63 -72 -145 -126q-79 -52 -172 -63q-77 -10 -135 15q-55 24 -89 67q-33 41 -48 99
q-14 53 -14 112q0 76 17 151t48 157q30 78 71 152q42 75 85 132q39 51 80 92q48 48 77 70q36 28 68 45q29 16 49 16q41 0 58 -35q16 -34 12 -75q6 2 18 4.5t17 3.5q16 4 41 4q62 0 103 -27q40 -27 62 -66q24 -43 31 -84q8 -46 8 -77q0 -83 -20 -144q-28 -85 -35 -104z
M256 29q58 -12 99 -1q44 12 89 42q42 29 77 71q37 44 71 97q29 45 59 103q29 57 45 95q13 30 26 79q13 48 13 103q0 68 -16 94q-17 27 -39 27q-26 0 -47 -14t-43 -14q-16 0 -34 9t-32 23q-14 13 -20 33q-6 18 2 35q-67 -37 -130 -109q-64 -74 -111 -158q-49 -89 -77 -180
t-28 -174q0 -49 9 -79q10 -32 24 -48q16 -18 30 -24q19 -9 33 -10z" />
    <glyph glyph-name="otilde" unicode="&#xf5;" horiz-adv-x="917" 
d="M391 1159q0 18 16 37q15 18 27 33q17 19 41 36q26 19 66 19q28 0 50 -14q20 -13 44 -33q21 -18 39 -33q17 -14 35 -14q33 0 49 12q16 11 25 27q3 6 9 14.5t8 11.5q8 13 23 13q8 0 21 -5q2 -1 23 -14q11 -7 19 -18q7 -9 5 -21q-5 -22 -24 -42q-17 -17 -45 -35t-52 -26
q-27 -9 -47 -9q-45 0 -69 18q-20 15 -36 29q-23 19 -35 27q-22 16 -40 16q-17 0 -27 -11q-12 -13 -18 -26q-1 -2 -16 -26q-7 -11 -17 -11q-13 0 -21 1q-16 2 -24 5q-14 5 -21 14q-8 10 -8 25zM815 389q-26 -74 -75 -161q-47 -84 -112 -158q-63 -72 -145 -126
q-79 -52 -172 -63q-77 -10 -135 15q-55 24 -89 67q-33 41 -48 99q-14 53 -14 112q0 76 17 151t48 157q30 78 71 152q42 75 85 132q39 51 80 92q48 48 77 70q36 28 68 45q29 16 49 16q41 0 58 -35q16 -34 12 -75q6 2 18 4.5t17 3.5q16 4 41 4q62 0 103 -27q40 -27 62 -66
q24 -43 31 -84q8 -46 8 -77q0 -83 -20 -144q-28 -85 -35 -104zM256 29q58 -12 99 -1q44 12 89 42q42 29 77 71q37 44 71 97q29 45 59 103q29 57 45 95q13 30 26 79q13 48 13 103q0 68 -16 94q-17 27 -39 27q-26 0 -47 -14t-43 -14q-16 0 -34 9t-32 23q-14 13 -20 33
q-6 18 2 35q-67 -37 -130 -109q-64 -74 -111 -158q-49 -89 -77 -180t-28 -174q0 -49 9 -79q10 -32 24 -48q16 -18 30 -24q19 -9 33 -10z" />
    <glyph glyph-name="odieresis" unicode="&#xf6;" horiz-adv-x="925" 
d="M612 1229q-5 -29 -19 -55q-15 -27 -35 -47q-19 -19 -43 -31q-26 -13 -46 -13q-29 0 -47 23q-18 22 -10 68q15 74 59 106q45 33 90 33q66 0 51 -84zM899 1229q-5 -29 -19 -55q-15 -27 -35 -47q-19 -19 -43 -31q-26 -13 -46 -13q-29 0 -47 23t-11 68q15 73 60 106t90 33
q66 0 51 -84zM815 389q-26 -74 -75 -161q-47 -84 -112 -158q-63 -72 -145 -126q-79 -52 -172 -63q-77 -10 -135 15q-55 24 -89 67q-33 41 -48 99q-14 53 -14 112q0 76 17 151t48 157q30 78 71 152q42 75 85 132q39 51 80 92q48 48 77 70q36 28 68 45q29 16 49 16
q41 0 58 -35q16 -34 12 -75q6 2 18 4.5t17 3.5q16 4 41 4q62 0 103 -27q40 -27 62 -66q24 -43 31 -84q8 -46 8 -77q0 -83 -20 -144q-28 -85 -35 -104zM256 29q58 -12 99 -1q44 12 89 42q42 29 77 71q37 44 71 97q29 45 59 103q29 57 45 95q13 30 26 79q13 48 13 103
q0 68 -16 94q-17 27 -39 27q-26 0 -47 -14t-43 -14q-16 0 -34 9t-32 23q-14 13 -20 33q-6 18 2 35q-67 -37 -130 -109q-64 -74 -111 -158q-49 -89 -77 -180t-28 -174q0 -49 9 -79q10 -32 24 -48q16 -18 30 -24q19 -9 33 -10z" />
    <glyph glyph-name="divide" unicode="&#xf7;" horiz-adv-x="1116" 
d="M160 760q22 -2 40 -2h54q184 0 366 12q175 12 367 41q21 -1 36 -24q13 -20 11 -56q-5 -37 -14 -60q-11 -28 -37 -32q-22 2 -41 2h-57q-181 0 -360 -12q-172 -12 -369 -41q-22 2 -36 27q-14 26 -9 61q1 34 12 57t37 27zM596 360q-15 -52 -48 -82q-34 -32 -69 -24
q-35 6 -50 47t-3 92q16 55 49 84q36 31 70 25q35 -8 50 -48q16 -42 1 -94zM696 1008q-16 -54 -48 -83q-34 -31 -68 -24q-36 6 -51 47t-3 92q16 55 49 84q36 31 70 25q35 -8 50 -48q16 -42 1 -93z" />
    <glyph glyph-name="oslash" unicode="&#xf8;" horiz-adv-x="894" 
d="M815 389q-27 -74 -79 -167q-47 -84 -120 -165q-69 -76 -154 -127q-86 -51 -183 -51q-26 -86 -34 -133q-2 -10 -16 -85q-6 -31 -15 -46q-8 -14 -34 -14q-18 0 -33 27q-14 25 -14 87q0 32 8 82q7 41 25 103q-39 18 -66 48q-26 29 -44 66q-16 32 -24 78q-7 38 -7 82
q0 76 17 151t48 157q30 78 71 152q42 75 85 132q39 51 80 92q48 48 77 70q36 28 68 45q29 16 49 16q24 0 38 -13q17 -16 24 -34l114 283q3 8 6.5 15.5t6 13.5t3.5 8q4 10 21 10q25 0 44 -31q18 -30 18 -78q0 -5 -2 -23q-1 -10 -7 -24q-21 -59 -47 -119q-7 -15 -49 -108
q53 -6 91 -34q36 -27 56 -65q18 -34 26 -80q7 -39 7 -73q0 -83 -20 -144q-28 -85 -35 -104zM483 449q-28 -65 -80 -200q-29 -76 -79 -226q58 1 114 44q58 44 104 103q47 60 88 133q35 62 66 133q13 30 26 79q13 48 13 103q0 68 -16 94q-17 27 -39 27t-39 -10q-15 -9 -35 -16
q-3 -6 -25 -52.5t-34 -71.5q-50 -107 -64 -140zM508 766q-6 12 -6 27q0 7 4 18q-67 -37 -130 -109q-64 -74 -111 -158q-49 -89 -77 -180t-28 -174q0 -65 15 -98q14 -31 38 -47q33 101 80 213q56 131 80 191z" />
    <glyph glyph-name="ugrave" unicode="&#xf9;" horiz-adv-x="907" 
d="M344 1245q-8 11 -8 25q0 29 32 53q33 25 64 25q19 0 37 -15q38 -52 82 -96q47 -47 74 -69q40 -33 53 -42l20 -14q0 -24 -20 -44q-21 -21 -43 -21q-6 0 -26 13q-8 5 -26.5 17.5t-28.5 18.5q-29 19 -77 52q-47 32 -86 62zM743 -104q-5 0 -21 2q-11 1 -22 6q-46 18 -70 64
t-33 105q-9 56 -7 122q1 62 6 112q-22 -42 -66 -92q-48 -55 -100 -98q-59 -49 -114 -79q-59 -32 -107 -32q-76 0 -127 52q-51 53 -51 151q0 87 12 172q11 79 23 135q8 42 20 89q17 63 30 118q15 61 30 120q21 83 24 97q15 21 45 21q16 0 39 -10q20 -9 38 -22q16 -12 27 -28
t11 -24v-9q-15 -29 -32 -71q-21 -53 -39 -106q-24 -70 -35 -111q-15 -54 -21 -91q-2 -15 -8 -48t-8 -48q-9 -56 -12 -106q-3 -51 6 -87t40 -36q58 0 103 22q43 21 83 54q36 30 60 63q8 11 21 28.5t18 24.5q13 18 34 57q22 42 38 79q14 35 34 90q16 45 27 94l12 65
q8 51 37 62q27 10 57 10t52 -16q23 -17 12 -62q-16 -65 -46 -201q-25 -116 -36 -243q-4 -36 -4 -87q0 -46 3 -85q3 -37 11 -65q7 -25 23 -25q20 0 34 9q13 9 19 9q22 0 48 -25q29 -27 24 -57q-4 -22 -37 -46q-32 -23 -105 -23z" />
    </font>
</defs>
</svg>
